<svg width="145" height="53" viewBox="0 0 145 53" fill="none" xmlns="http://www.w3.org/2000/svg">
<rect x="0.25" y="0.25" width="144.5" height="52.5" rx="4.75" stroke="url(#paint0_linear_1480_1046)" stroke-width="0.5"/>
<path d="M22.5956 35V34.76L23.5796 34.52C24.2356 34.376 24.5636 33.976 24.5636 33.32V19.64H22.5236C21.9316 19.64 21.5076 19.8 21.2516 20.12C20.9956 20.424 20.7236 20.848 20.4356 21.392L19.5716 23.072H19.3316L19.4516 19.16H33.2996L33.3956 23.072H33.1556L32.2916 21.392C32.0196 20.848 31.7556 20.424 31.4996 20.12C31.2436 19.8 30.8196 19.64 30.2276 19.64H28.1876V33.32C28.1876 33.976 28.5156 34.376 29.1716 34.52L30.1556 34.76V35H22.5956ZM34.4504 35V34.76L34.7384 34.664C35.3144 34.472 35.6024 34.072 35.6024 33.464V20.648C35.6024 20.312 35.5464 20.064 35.4344 19.904C35.3224 19.744 35.1064 19.624 34.7864 19.544L34.4264 19.448V19.208L38.6504 18.176L39.0344 18.392L38.9384 21.776V24.776C39.4984 24.312 40.0984 23.92 40.7384 23.6C41.3944 23.264 42.1144 23.096 42.8984 23.096C43.9384 23.096 44.7624 23.392 45.3704 23.984C45.9944 24.576 46.3064 25.488 46.3064 26.72V33.488C46.3064 33.808 46.3704 34.064 46.4984 34.256C46.6264 34.448 46.8504 34.592 47.1704 34.688L47.3624 34.76V35H41.7464V34.76L42.0344 34.688C42.6104 34.496 42.8984 34.088 42.8984 33.464V25.928C42.8984 25.288 42.7864 24.848 42.5624 24.608C42.3544 24.368 41.9784 24.248 41.4344 24.248C41.0824 24.248 40.6984 24.32 40.2824 24.464C39.8664 24.592 39.4424 24.824 39.0104 25.16V33.512C39.0104 34.136 39.2984 34.536 39.8744 34.712L40.0664 34.76V35H34.4504ZM54.3243 23.096C55.3643 23.096 56.2523 23.312 56.9883 23.744C57.7243 24.16 58.2843 24.736 58.6683 25.472C59.0683 26.192 59.2683 27.016 59.2683 27.944C59.2683 28.12 59.2603 28.304 59.2443 28.496C59.2283 28.672 59.1963 28.832 59.1483 28.976H51.9963C52.0123 30.704 52.3163 31.952 52.9083 32.72C53.5163 33.472 54.4123 33.848 55.5963 33.848C56.3963 33.848 57.0443 33.72 57.5403 33.464C58.0363 33.208 58.5003 32.832 58.9323 32.336L59.1723 32.552C58.6763 33.432 58.0123 34.12 57.1803 34.616C56.3643 35.112 55.3803 35.36 54.2283 35.36C53.0923 35.36 52.0843 35.12 51.2043 34.64C50.3243 34.144 49.6363 33.44 49.1403 32.528C48.6443 31.616 48.3963 30.528 48.3963 29.264C48.3963 27.952 48.6843 26.84 49.2603 25.928C49.8363 25 50.5723 24.296 51.4683 23.816C52.3803 23.336 53.3323 23.096 54.3243 23.096ZM54.2523 23.576C53.7883 23.576 53.3883 23.72 53.0523 24.008C52.7323 24.28 52.4763 24.776 52.2843 25.496C52.1083 26.2 52.0123 27.2 51.9963 28.496H56.1003C56.2603 26.752 56.1963 25.496 55.9083 24.728C55.6203 23.96 55.0683 23.576 54.2523 23.576ZM65.4029 35V34.76L66.0029 34.544C66.3229 34.416 66.5709 34.264 66.7469 34.088C66.9229 33.896 67.0669 33.632 67.1789 33.296L72.1229 19.112H74.1629L79.0349 33.392C79.1629 33.744 79.3069 34.016 79.4669 34.208C79.6269 34.384 79.8749 34.536 80.2109 34.664L80.4989 34.76V35H74.4029V34.76L74.7629 34.64C75.0989 34.512 75.2989 34.336 75.3629 34.112C75.4429 33.872 75.4349 33.592 75.3389 33.272L74.2109 29.816H68.8829L67.7309 33.2C67.6189 33.552 67.5789 33.832 67.6109 34.04C67.6589 34.248 67.8509 34.416 68.1869 34.544L68.7149 34.76V35H65.4029ZM69.0509 29.336H74.0669L71.6429 21.872L69.0509 29.336ZM81.3003 35V34.76L81.6603 34.664C81.9803 34.568 82.1963 34.424 82.3083 34.232C82.4363 34.04 82.5003 33.792 82.5003 33.488V25.976C82.5003 25.624 82.4363 25.368 82.3083 25.208C82.1963 25.032 81.9803 24.912 81.6603 24.848L81.3003 24.752V24.512L85.4283 23.12L85.6683 23.36L85.8843 25.424V25.616C86.1083 25.168 86.3963 24.76 86.7483 24.392C87.1163 24.008 87.5163 23.696 87.9483 23.456C88.3963 23.216 88.8363 23.096 89.2683 23.096C89.8763 23.096 90.3403 23.264 90.6603 23.6C90.9803 23.936 91.1403 24.36 91.1403 24.872C91.1403 25.416 90.9803 25.84 90.6603 26.144C90.3563 26.432 89.9883 26.576 89.5563 26.576C88.8843 26.576 88.2923 26.24 87.7803 25.568L87.7323 25.52C87.5723 25.296 87.3883 25.176 87.1803 25.16C86.9723 25.128 86.7803 25.224 86.6043 25.448C86.4443 25.592 86.3083 25.768 86.1963 25.976C86.1003 26.168 86.0043 26.392 85.9083 26.648V33.344C85.9083 33.984 86.1883 34.384 86.7483 34.544L87.5163 34.76V35H81.3003ZM96.665 35.36C95.641 35.36 94.841 35.104 94.265 34.592C93.705 34.08 93.425 33.264 93.425 32.144V23.936H91.769V23.696L92.345 23.6C92.841 23.488 93.265 23.328 93.617 23.12C93.985 22.912 94.345 22.632 94.697 22.28L96.665 20.096H96.905L96.833 23.456H99.521V23.936H96.809V32.576C96.809 33.136 96.929 33.56 97.169 33.848C97.425 34.136 97.745 34.28 98.129 34.28C98.465 34.28 98.761 34.2 99.017 34.04C99.273 33.864 99.529 33.632 99.785 33.344L100.025 33.584C99.705 34.128 99.265 34.56 98.705 34.88C98.145 35.2 97.465 35.36 96.665 35.36ZM103.657 21.848C103.113 21.848 102.649 21.68 102.265 21.344C101.897 20.992 101.713 20.552 101.713 20.024C101.713 19.48 101.897 19.04 102.265 18.704C102.649 18.368 103.113 18.2 103.657 18.2C104.201 18.2 104.657 18.368 105.025 18.704C105.393 19.04 105.577 19.48 105.577 20.024C105.577 20.552 105.393 20.992 105.025 21.344C104.657 21.68 104.201 21.848 103.657 21.848ZM100.825 35V34.76L101.161 34.664C101.481 34.568 101.697 34.424 101.809 34.232C101.937 34.04 102.001 33.784 102.001 33.464V25.952C102.001 25.616 101.937 25.368 101.809 25.208C101.697 25.032 101.481 24.912 101.161 24.848L100.825 24.776V24.536L105.217 23.12L105.457 23.36L105.385 26.768V33.488C105.385 33.808 105.441 34.064 105.553 34.256C105.681 34.448 105.897 34.592 106.201 34.688L106.441 34.76V35H100.825ZM111.655 35.36C110.871 35.36 110.167 35.264 109.543 35.072C108.919 34.896 108.343 34.672 107.815 34.4L107.839 31.544H108.079L108.895 32.984C109.247 33.624 109.631 34.104 110.047 34.424C110.479 34.728 111.023 34.88 111.679 34.88C112.447 34.88 113.063 34.712 113.527 34.376C114.007 34.024 114.247 33.56 114.247 32.984C114.247 32.456 114.079 32.024 113.743 31.688C113.407 31.352 112.783 31.048 111.871 30.776L110.863 30.464C109.887 30.176 109.119 29.728 108.559 29.12C107.999 28.512 107.719 27.768 107.719 26.888C107.719 25.832 108.135 24.936 108.967 24.2C109.799 23.464 110.991 23.096 112.543 23.096C113.167 23.096 113.751 23.168 114.295 23.312C114.855 23.44 115.391 23.64 115.903 23.912L115.759 26.504H115.519L114.679 25.016C114.375 24.488 114.071 24.12 113.767 23.912C113.479 23.688 113.039 23.576 112.447 23.576C111.903 23.576 111.391 23.728 110.911 24.032C110.431 24.336 110.191 24.768 110.191 25.328C110.191 25.872 110.391 26.304 110.791 26.624C111.207 26.944 111.815 27.24 112.615 27.512L113.695 27.824C114.847 28.176 115.671 28.664 116.167 29.288C116.663 29.896 116.911 30.632 116.911 31.496C116.911 32.664 116.447 33.6 115.519 34.304C114.607 35.008 113.319 35.36 111.655 35.36ZM122.517 35.36C121.493 35.36 120.693 35.104 120.117 34.592C119.557 34.08 119.277 33.264 119.277 32.144V23.936H117.621V23.696L118.197 23.6C118.693 23.488 119.117 23.328 119.469 23.12C119.837 22.912 120.197 22.632 120.549 22.28L122.517 20.096H122.757L122.685 23.456H125.373V23.936H122.661V32.576C122.661 33.136 122.781 33.56 123.021 33.848C123.277 34.136 123.597 34.28 123.981 34.28C124.317 34.28 124.613 34.2 124.869 34.04C125.125 33.864 125.381 33.632 125.637 33.344L125.877 33.584C125.557 34.128 125.117 34.56 124.557 34.88C123.997 35.2 123.317 35.36 122.517 35.36Z" fill="black"/>
<defs>
<linearGradient id="paint0_linear_1480_1046" x1="72.5" y1="0" x2="72.5" y2="53" gradientUnits="userSpaceOnUse">
<stop stop-color="white"/>
<stop offset="1" stop-color="#D4AF37"/>
</linearGradient>
</defs>
</svg>
