<svg width="44" height="44" viewBox="0 0 44 44" fill="none" xmlns="http://www.w3.org/2000/svg">
<path d="M39.798 11.9897C40.2637 11.6934 40.8812 11.8308 41.1778 12.2964C41.4746 12.7622 41.338 13.3805 40.8722 13.6772L24.3888 24.1763C24.3773 24.1836 24.3654 24.1909 24.3536 24.1977C23.6418 24.6112 22.8331 24.8286 22.0099 24.8286C21.1867 24.8286 20.378 24.6111 19.6661 24.1977C19.6544 24.191 19.6424 24.1835 19.631 24.1763L3.13097 13.6772L3.04796 13.6177C2.65001 13.3038 2.54636 12.7332 2.82433 12.2964C3.10237 11.8596 3.66342 11.7113 4.11632 11.939L4.20519 11.9897L20.6778 22.4722C21.0829 22.7057 21.5422 22.8286 22.0099 22.8286C22.4767 22.8286 22.9345 22.705 23.339 22.4722L39.798 11.9897Z" fill="black" fill-opacity="0.86"/>
<path d="M39.335 11C39.335 9.52724 38.1407 8.33301 36.668 8.33301H7.33496C5.8622 8.33301 4.66797 9.52724 4.66797 11V33C4.66814 34.4726 5.86231 35.666 7.33496 35.666H36.668C38.1406 35.666 39.3348 34.4726 39.335 33V11ZM41.335 33C41.3348 35.5772 39.2452 37.666 36.668 37.666H7.33496C4.75774 37.666 2.66814 35.5772 2.66797 33V11C2.66797 8.42267 4.75763 6.33301 7.33496 6.33301H36.668C39.2453 6.33301 41.335 8.42267 41.335 11V33Z" fill="black" fill-opacity="0.86"/>
</svg>
