<svg width="394" height="130" viewBox="0 0 394 130" fill="none" xmlns="http://www.w3.org/2000/svg">
<rect x="0.25" y="0.25" width="393.5" height="129.5" rx="15.75" fill="url(#paint0_linear_1461_1316)"/>
<rect x="0.25" y="0.25" width="393.5" height="129.5" rx="15.75" stroke="#0F0F0F" stroke-width="0.5"/>
<path d="M66.756 57.2H76.932V59.072H68.772V64.64H76.788V66.512H68.772V72.128H77.076V74H66.756V57.2ZM92.7313 74H90.8593V65.456C90.8593 64.896 90.7313 64.44 90.4753 64.088C90.2193 63.72 89.8113 63.536 89.2513 63.536C88.7233 63.536 88.2913 63.736 87.9553 64.136C87.6353 64.52 87.4753 65.12 87.4753 65.936V74H85.6033V65.36C85.6033 64.832 85.4593 64.4 85.1713 64.064C84.8833 63.712 84.4993 63.536 84.0193 63.536C83.4433 63.536 82.9953 63.744 82.6753 64.16C82.3713 64.576 82.2193 65.12 82.2193 65.792V74H80.3473V62.096H82.2193V63.392H82.5073C82.7153 62.832 83.0193 62.424 83.4193 62.168C83.8193 61.896 84.2913 61.76 84.8353 61.76C85.4113 61.76 85.8833 61.912 86.2513 62.216C86.6353 62.52 86.8993 62.912 87.0433 63.392H87.3313C87.8753 62.304 88.7393 61.76 89.9233 61.76C90.8193 61.76 91.5073 62.048 91.9873 62.624C92.4833 63.184 92.7313 63.92 92.7313 64.832V74ZM97.4186 74H95.5466V57.2H97.4186V63.968H97.7066C98.1226 63.248 98.6986 62.704 99.4346 62.336C100.171 61.952 100.971 61.76 101.835 61.76C102.571 61.76 103.267 61.896 103.923 62.168C104.579 62.44 105.155 62.832 105.651 63.344C106.163 63.856 106.563 64.488 106.851 65.24C107.155 65.992 107.307 66.848 107.307 67.808V68.288C107.307 69.264 107.163 70.128 106.875 70.88C106.587 71.632 106.187 72.264 105.675 72.776C105.179 73.288 104.595 73.68 103.923 73.952C103.251 74.208 102.539 74.336 101.787 74.336C101.403 74.336 101.011 74.288 100.611 74.192C100.211 74.112 99.8266 73.984 99.4586 73.808C99.1066 73.616 98.7786 73.392 98.4746 73.136C98.1706 72.864 97.9146 72.544 97.7066 72.176H97.4186V74ZM101.403 72.56C101.979 72.56 102.507 72.464 102.987 72.272C103.467 72.064 103.883 71.776 104.235 71.408C104.603 71.04 104.883 70.592 105.075 70.064C105.283 69.536 105.387 68.944 105.387 68.288V67.808C105.387 67.168 105.283 66.592 105.075 66.08C104.883 65.552 104.603 65.104 104.235 64.736C103.883 64.352 103.459 64.056 102.963 63.848C102.483 63.64 101.963 63.536 101.403 63.536C100.843 63.536 100.323 63.648 99.8426 63.872C99.3626 64.08 98.9386 64.376 98.5706 64.76C98.2186 65.144 97.9386 65.608 97.7306 66.152C97.5226 66.68 97.4186 67.264 97.4186 67.904V68.192C97.4186 68.848 97.5226 69.448 97.7306 69.992C97.9386 70.52 98.2186 70.976 98.5706 71.36C98.9386 71.744 99.3626 72.04 99.8426 72.248C100.323 72.456 100.843 72.56 101.403 72.56ZM110.002 62.096H114.322V63.68H114.61C114.914 63.024 115.346 62.544 115.906 62.24C116.466 61.92 117.106 61.76 117.826 61.76C119.026 61.76 119.994 62.152 120.73 62.936C121.466 63.72 121.858 64.864 121.906 66.368L119.938 66.656C119.938 65.552 119.674 64.76 119.146 64.28C118.618 63.784 117.97 63.536 117.202 63.536C116.706 63.536 116.274 63.632 115.906 63.824C115.554 64.016 115.258 64.28 115.018 64.616C114.778 64.952 114.602 65.344 114.49 65.792C114.378 66.24 114.322 66.72 114.322 67.232V72.272H117.346V74H109.714V72.272H112.45V63.824H110.002V62.096ZM134.009 71.984H133.721C133.337 72.784 132.801 73.376 132.113 73.76C131.441 74.144 130.729 74.336 129.977 74.336C129.193 74.336 128.465 74.208 127.793 73.952C127.121 73.68 126.529 73.288 126.017 72.776C125.521 72.248 125.129 71.608 124.841 70.856C124.553 70.104 124.409 69.232 124.409 68.24V67.856C124.409 66.88 124.553 66.016 124.841 65.264C125.129 64.512 125.521 63.88 126.017 63.368C126.529 62.84 127.121 62.44 127.793 62.168C128.465 61.896 129.177 61.76 129.929 61.76C130.745 61.76 131.481 61.944 132.137 62.312C132.809 62.664 133.337 63.216 133.721 63.968H134.009V62.096H135.881V71.552C135.881 72.032 136.097 72.272 136.529 72.272H137.129V74H135.857C135.313 74 134.865 73.824 134.513 73.472C134.177 73.12 134.009 72.672 134.009 72.128V71.984ZM130.169 72.56C130.729 72.56 131.241 72.456 131.705 72.248C132.185 72.04 132.593 71.744 132.929 71.36C133.265 70.976 133.529 70.52 133.721 69.992C133.913 69.448 134.009 68.848 134.009 68.192V67.904C134.009 67.264 133.913 66.68 133.721 66.152C133.529 65.608 133.257 65.144 132.905 64.76C132.569 64.376 132.161 64.08 131.681 63.872C131.217 63.648 130.713 63.536 130.169 63.536C129.609 63.536 129.097 63.64 128.633 63.848C128.169 64.056 127.761 64.352 127.409 64.736C127.073 65.104 126.809 65.56 126.617 66.104C126.425 66.632 126.329 67.216 126.329 67.856V68.24C126.329 69.6 126.681 70.664 127.385 71.432C128.105 72.184 129.033 72.56 130.169 72.56ZM151.201 69.776C151.073 70.432 150.849 71.04 150.529 71.6C150.225 72.16 149.833 72.648 149.353 73.064C148.873 73.464 148.313 73.776 147.673 74C147.033 74.224 146.321 74.336 145.537 74.336C144.705 74.336 143.913 74.2 143.161 73.928C142.425 73.656 141.777 73.264 141.217 72.752C140.657 72.224 140.209 71.584 139.873 70.832C139.553 70.08 139.393 69.216 139.393 68.24V67.952C139.393 66.992 139.553 66.128 139.873 65.36C140.209 64.592 140.657 63.944 141.217 63.416C141.777 62.888 142.425 62.48 143.161 62.192C143.913 61.904 144.705 61.76 145.537 61.76C146.289 61.76 146.985 61.872 147.625 62.096C148.265 62.32 148.825 62.64 149.305 63.056C149.801 63.456 150.201 63.936 150.505 64.496C150.825 65.056 151.041 65.664 151.153 66.32L149.281 66.752C149.233 66.336 149.113 65.936 148.921 65.552C148.745 65.152 148.497 64.808 148.177 64.52C147.873 64.216 147.497 63.976 147.049 63.8C146.601 63.624 146.081 63.536 145.489 63.536C144.913 63.536 144.369 63.648 143.857 63.872C143.361 64.08 142.921 64.384 142.537 64.784C142.153 65.168 141.849 65.632 141.625 66.176C141.417 66.72 141.313 67.312 141.313 67.952V68.24C141.313 68.912 141.417 69.52 141.625 70.064C141.849 70.592 142.153 71.04 142.537 71.408C142.921 71.776 143.369 72.064 143.881 72.272C144.393 72.464 144.945 72.56 145.537 72.56C146.129 72.56 146.641 72.472 147.073 72.296C147.521 72.104 147.897 71.864 148.201 71.576C148.521 71.272 148.769 70.928 148.945 70.544C149.137 70.16 149.265 69.76 149.329 69.344L151.201 69.776ZM156.128 68.624C156.176 69.808 156.544 70.76 157.232 71.48C157.92 72.2 158.88 72.56 160.112 72.56C160.672 72.56 161.16 72.496 161.576 72.368C161.992 72.24 162.344 72.064 162.632 71.84C162.936 71.616 163.176 71.36 163.352 71.072C163.544 70.768 163.696 70.448 163.808 70.112L165.584 70.592C165.248 71.696 164.624 72.6 163.712 73.304C162.816 73.992 161.6 74.336 160.064 74.336C159.216 74.336 158.432 74.192 157.712 73.904C157.008 73.6 156.4 73.176 155.888 72.632C155.376 72.088 154.976 71.44 154.688 70.688C154.4 69.936 154.256 69.104 154.256 68.192V67.616C154.256 66.784 154.4 66.008 154.688 65.288C154.992 64.568 155.408 63.952 155.936 63.44C156.464 62.912 157.08 62.504 157.784 62.216C158.504 61.912 159.28 61.76 160.112 61.76C161.088 61.76 161.928 61.944 162.632 62.312C163.352 62.664 163.936 63.104 164.384 63.632C164.848 64.16 165.184 64.736 165.392 65.36C165.616 65.984 165.728 66.56 165.728 67.088V68.624H156.128ZM160.112 63.536C159.584 63.536 159.088 63.624 158.624 63.8C158.176 63.96 157.776 64.192 157.424 64.496C157.088 64.8 156.808 65.16 156.584 65.576C156.376 65.976 156.24 66.416 156.176 66.896H163.856C163.824 66.384 163.696 65.92 163.472 65.504C163.264 65.088 162.984 64.736 162.632 64.448C162.296 64.16 161.904 63.936 161.456 63.776C161.024 63.616 160.576 63.536 160.112 63.536ZM183.503 57.2H195.311V59.072H190.415V74H188.398V59.072H183.503V57.2ZM200.718 74H198.846V57.2H200.718V64.256H201.006C201.374 63.488 201.886 62.88 202.542 62.432C203.214 61.984 204.03 61.76 204.99 61.76C206.286 61.76 207.334 62.192 208.134 63.056C208.95 63.904 209.358 65.184 209.358 66.896V74H207.486V67.28C207.486 66.032 207.206 65.096 206.646 64.472C206.086 63.848 205.326 63.536 204.366 63.536C203.23 63.536 202.334 63.928 201.678 64.712C201.038 65.48 200.718 66.512 200.718 67.808V74ZM214.909 68.624C214.957 69.808 215.325 70.76 216.013 71.48C216.701 72.2 217.661 72.56 218.893 72.56C219.453 72.56 219.941 72.496 220.357 72.368C220.773 72.24 221.125 72.064 221.413 71.84C221.717 71.616 221.957 71.36 222.133 71.072C222.325 70.768 222.477 70.448 222.589 70.112L224.365 70.592C224.029 71.696 223.405 72.6 222.493 73.304C221.597 73.992 220.381 74.336 218.845 74.336C217.997 74.336 217.213 74.192 216.493 73.904C215.789 73.6 215.181 73.176 214.669 72.632C214.157 72.088 213.757 71.44 213.469 70.688C213.181 69.936 213.037 69.104 213.037 68.192V67.616C213.037 66.784 213.181 66.008 213.469 65.288C213.773 64.568 214.189 63.952 214.717 63.44C215.245 62.912 215.861 62.504 216.565 62.216C217.285 61.912 218.061 61.76 218.893 61.76C219.869 61.76 220.709 61.944 221.413 62.312C222.133 62.664 222.717 63.104 223.165 63.632C223.629 64.16 223.965 64.736 224.173 65.36C224.397 65.984 224.509 66.56 224.509 67.088V68.624H214.909ZM218.893 63.536C218.365 63.536 217.869 63.624 217.405 63.8C216.957 63.96 216.557 64.192 216.205 64.496C215.869 64.8 215.589 65.16 215.365 65.576C215.157 65.976 215.021 66.416 214.957 66.896H222.637C222.605 66.384 222.477 65.92 222.253 65.504C222.045 65.088 221.765 64.736 221.413 64.448C221.077 64.16 220.685 63.936 220.237 63.776C219.805 63.616 219.357 63.536 218.893 63.536ZM241.948 57.2H245.788L248.044 73.136H248.332L250.588 57.2H254.428V74H252.556V58.064H252.268L250.012 74H246.364L244.108 58.064H243.82V74H241.948V57.2ZM268.859 68.192C268.859 69.184 268.691 70.064 268.355 70.832C268.035 71.584 267.603 72.224 267.059 72.752C266.515 73.264 265.875 73.656 265.139 73.928C264.419 74.2 263.667 74.336 262.883 74.336C262.083 74.336 261.323 74.2 260.603 73.928C259.883 73.656 259.251 73.264 258.707 72.752C258.163 72.224 257.723 71.584 257.387 70.832C257.067 70.064 256.907 69.184 256.907 68.192V67.904C256.907 66.928 257.067 66.064 257.387 65.312C257.723 64.544 258.163 63.896 258.707 63.368C259.267 62.84 259.907 62.44 260.627 62.168C261.347 61.896 262.099 61.76 262.883 61.76C263.667 61.76 264.419 61.896 265.139 62.168C265.859 62.44 266.491 62.84 267.035 63.368C267.595 63.896 268.035 64.544 268.355 65.312C268.691 66.064 268.859 66.928 268.859 67.904V68.192ZM262.883 72.56C263.459 72.56 263.987 72.464 264.467 72.272C264.963 72.064 265.395 71.768 265.763 71.384C266.131 71 266.419 70.544 266.627 70.016C266.835 69.472 266.939 68.864 266.939 68.192V67.904C266.939 67.264 266.835 66.68 266.627 66.152C266.419 65.608 266.131 65.144 265.763 64.76C265.395 64.376 264.963 64.08 264.467 63.872C263.971 63.648 263.443 63.536 262.883 63.536C262.323 63.536 261.795 63.648 261.299 63.872C260.803 64.08 260.371 64.376 260.003 64.76C259.635 65.144 259.347 65.608 259.139 66.152C258.931 66.68 258.827 67.264 258.827 67.904V68.192C258.827 68.864 258.931 69.472 259.139 70.016C259.347 70.544 259.635 71 260.003 71.384C260.371 71.768 260.795 72.064 261.275 72.272C261.771 72.464 262.307 72.56 262.883 72.56ZM283.77 74H281.898V65.456C281.898 64.896 281.77 64.44 281.514 64.088C281.258 63.72 280.85 63.536 280.29 63.536C279.762 63.536 279.33 63.736 278.994 64.136C278.674 64.52 278.514 65.12 278.514 65.936V74H276.642V65.36C276.642 64.832 276.498 64.4 276.21 64.064C275.922 63.712 275.538 63.536 275.058 63.536C274.482 63.536 274.034 63.744 273.714 64.16C273.41 64.576 273.258 65.12 273.258 65.792V74H271.386V62.096H273.258V63.392H273.546C273.754 62.832 274.058 62.424 274.458 62.168C274.858 61.896 275.33 61.76 275.874 61.76C276.45 61.76 276.922 61.912 277.29 62.216C277.674 62.52 277.938 62.912 278.082 63.392H278.37C278.914 62.304 279.778 61.76 280.962 61.76C281.858 61.76 282.546 62.048 283.026 62.624C283.522 63.184 283.77 63.92 283.77 64.832V74ZM288.386 68.624C288.434 69.808 288.802 70.76 289.49 71.48C290.178 72.2 291.138 72.56 292.37 72.56C292.93 72.56 293.418 72.496 293.834 72.368C294.25 72.24 294.602 72.064 294.89 71.84C295.194 71.616 295.434 71.36 295.61 71.072C295.802 70.768 295.954 70.448 296.066 70.112L297.842 70.592C297.506 71.696 296.882 72.6 295.97 73.304C295.074 73.992 293.858 74.336 292.322 74.336C291.474 74.336 290.69 74.192 289.97 73.904C289.266 73.6 288.658 73.176 288.146 72.632C287.634 72.088 287.234 71.44 286.946 70.688C286.658 69.936 286.514 69.104 286.514 68.192V67.616C286.514 66.784 286.658 66.008 286.946 65.288C287.25 64.568 287.666 63.952 288.194 63.44C288.722 62.912 289.338 62.504 290.042 62.216C290.762 61.912 291.538 61.76 292.37 61.76C293.346 61.76 294.186 61.944 294.89 62.312C295.61 62.664 296.194 63.104 296.642 63.632C297.106 64.16 297.442 64.736 297.65 65.36C297.874 65.984 297.986 66.56 297.986 67.088V68.624H288.386ZM292.37 63.536C291.842 63.536 291.346 63.624 290.882 63.8C290.434 63.96 290.034 64.192 289.682 64.496C289.346 64.8 289.066 65.16 288.842 65.576C288.634 65.976 288.498 66.416 288.434 66.896H296.114C296.082 66.384 295.954 65.92 295.73 65.504C295.522 65.088 295.242 64.736 294.89 64.448C294.554 64.16 294.162 63.936 293.714 63.776C293.282 63.616 292.834 63.536 292.37 63.536ZM303.585 74H301.713V62.096H303.585V64.112H303.873C304.609 62.544 305.889 61.76 307.713 61.76C309.089 61.76 310.185 62.192 311.001 63.056C311.817 63.904 312.225 65.184 312.225 66.896V74H310.353V67.28C310.353 66.032 310.073 65.096 309.513 64.472C308.953 63.848 308.193 63.536 307.233 63.536C306.097 63.536 305.201 63.928 304.545 64.712C303.905 65.48 303.585 66.512 303.585 67.808V74ZM316 62.096H319.744V57.2H321.616V62.096H326.224V63.824H321.616V71.552C321.616 72.032 321.832 72.272 322.264 72.272H325.648V74H321.592C321.048 74 320.6 73.824 320.248 73.472C319.912 73.12 319.744 72.672 319.744 72.128V63.824H316V62.096Z" fill="black"/>
<defs>
<linearGradient id="paint0_linear_1461_1316" x1="8" y1="-3.51615e-06" x2="375" y2="121" gradientUnits="userSpaceOnUse">
<stop offset="0.399238" stop-color="white" stop-opacity="0.3"/>
<stop offset="1" stop-opacity="0.34"/>
</linearGradient>
</defs>
</svg>
