<svg width="211" height="81" viewBox="0 0 211 81" fill="none" xmlns="http://www.w3.org/2000/svg">
<rect width="211" height="81" rx="10" fill="url(#paint0_linear_4313_492)" fill-opacity="0.25"/>
<rect x="0.5" y="0.5" width="210" height="80" rx="9.5" stroke="url(#paint1_linear_4313_492)" stroke-opacity="0.78"/>
<path d="M56.256 32.7H66.432V34.572H58.272V40.14H66.288V42.012H58.272V47.628H66.576V49.5H56.256V32.7ZM79.2553 37.596H81.3913L77.8873 43.26V43.548L81.6793 49.5H79.4953L76.2553 44.268H75.8233L72.5833 49.5H70.3993L74.1913 43.548V43.26L70.6873 37.596H72.8233L75.8233 42.54H76.2553L79.2553 37.596ZM86.9186 54.3H85.0466V37.596H86.9186V39.468H87.2066C87.6226 38.748 88.1986 38.204 88.9346 37.836C89.6706 37.452 90.4706 37.26 91.3346 37.26C92.0706 37.26 92.7666 37.396 93.4226 37.668C94.0786 37.94 94.6546 38.332 95.1506 38.844C95.6626 39.356 96.0626 39.988 96.3506 40.74C96.6546 41.492 96.8066 42.348 96.8066 43.308V43.788C96.8066 44.764 96.6626 45.628 96.3746 46.38C96.0866 47.132 95.6866 47.764 95.1746 48.276C94.6786 48.788 94.0946 49.18 93.4226 49.452C92.7506 49.708 92.0386 49.836 91.2866 49.836C90.9026 49.836 90.5106 49.788 90.1106 49.692C89.7106 49.612 89.3266 49.484 88.9586 49.308C88.6066 49.116 88.2786 48.892 87.9746 48.636C87.6706 48.364 87.4146 48.044 87.2066 47.676H86.9186V54.3ZM90.9026 48.06C91.4786 48.06 92.0066 47.964 92.4866 47.772C92.9666 47.564 93.3826 47.276 93.7346 46.908C94.1026 46.54 94.3826 46.092 94.5746 45.564C94.7826 45.036 94.8866 44.444 94.8866 43.788V43.308C94.8866 42.668 94.7826 42.092 94.5746 41.58C94.3826 41.052 94.1026 40.604 93.7346 40.236C93.3826 39.852 92.9586 39.556 92.4626 39.348C91.9826 39.14 91.4626 39.036 90.9026 39.036C90.3426 39.036 89.8226 39.148 89.3426 39.372C88.8626 39.58 88.4386 39.876 88.0706 40.26C87.7186 40.644 87.4386 41.108 87.2306 41.652C87.0226 42.18 86.9186 42.764 86.9186 43.404V43.692C86.9186 44.348 87.0226 44.948 87.2306 45.492C87.4386 46.02 87.7186 46.476 88.0706 46.86C88.4386 47.244 88.8626 47.54 89.3426 47.748C89.8226 47.956 90.3426 48.06 90.9026 48.06ZM100.174 47.772H104.494V34.428H100.318V32.7H106.366V47.772H110.686V49.5H100.174V47.772ZM126.101 43.692C126.101 44.684 125.933 45.564 125.597 46.332C125.277 47.084 124.845 47.724 124.301 48.252C123.757 48.764 123.117 49.156 122.381 49.428C121.661 49.7 120.909 49.836 120.125 49.836C119.325 49.836 118.565 49.7 117.845 49.428C117.125 49.156 116.493 48.764 115.949 48.252C115.405 47.724 114.965 47.084 114.629 46.332C114.309 45.564 114.149 44.684 114.149 43.692V43.404C114.149 42.428 114.309 41.564 114.629 40.812C114.965 40.044 115.405 39.396 115.949 38.868C116.509 38.34 117.149 37.94 117.869 37.668C118.589 37.396 119.341 37.26 120.125 37.26C120.909 37.26 121.661 37.396 122.381 37.668C123.101 37.94 123.733 38.34 124.277 38.868C124.837 39.396 125.277 40.044 125.597 40.812C125.933 41.564 126.101 42.428 126.101 43.404V43.692ZM120.125 48.06C120.701 48.06 121.229 47.964 121.709 47.772C122.205 47.564 122.637 47.268 123.005 46.884C123.373 46.5 123.661 46.044 123.869 45.516C124.077 44.972 124.181 44.364 124.181 43.692V43.404C124.181 42.764 124.077 42.18 123.869 41.652C123.661 41.108 123.373 40.644 123.005 40.26C122.637 39.876 122.205 39.58 121.709 39.372C121.213 39.148 120.685 39.036 120.125 39.036C119.565 39.036 119.037 39.148 118.541 39.372C118.045 39.58 117.613 39.876 117.245 40.26C116.877 40.644 116.589 41.108 116.381 41.652C116.173 42.18 116.069 42.764 116.069 43.404V43.692C116.069 44.364 116.173 44.972 116.381 45.516C116.589 46.044 116.877 46.5 117.245 46.884C117.613 47.268 118.037 47.564 118.517 47.772C119.013 47.964 119.549 48.06 120.125 48.06ZM128.893 37.596H133.213V39.18H133.501C133.805 38.524 134.237 38.044 134.797 37.74C135.357 37.42 135.997 37.26 136.717 37.26C137.917 37.26 138.885 37.652 139.621 38.436C140.357 39.22 140.749 40.364 140.797 41.868L138.829 42.156C138.829 41.052 138.565 40.26 138.037 39.78C137.509 39.284 136.861 39.036 136.093 39.036C135.597 39.036 135.165 39.132 134.797 39.324C134.445 39.516 134.149 39.78 133.909 40.116C133.669 40.452 133.493 40.844 133.381 41.292C133.269 41.74 133.213 42.22 133.213 42.732V47.772H136.237V49.5H128.605V47.772H131.341V39.324H128.893V37.596ZM145.628 44.124C145.676 45.308 146.044 46.26 146.732 46.98C147.42 47.7 148.38 48.06 149.612 48.06C150.172 48.06 150.66 47.996 151.076 47.868C151.492 47.74 151.844 47.564 152.132 47.34C152.436 47.116 152.676 46.86 152.852 46.572C153.044 46.268 153.196 45.948 153.308 45.612L155.084 46.092C154.748 47.196 154.124 48.1 153.212 48.804C152.316 49.492 151.1 49.836 149.564 49.836C148.716 49.836 147.932 49.692 147.212 49.404C146.508 49.1 145.9 48.676 145.388 48.132C144.876 47.588 144.476 46.94 144.188 46.188C143.9 45.436 143.756 44.604 143.756 43.692V43.116C143.756 42.284 143.9 41.508 144.188 40.788C144.492 40.068 144.908 39.452 145.436 38.94C145.964 38.412 146.58 38.004 147.284 37.716C148.004 37.412 148.78 37.26 149.612 37.26C150.588 37.26 151.428 37.444 152.132 37.812C152.852 38.164 153.436 38.604 153.884 39.132C154.348 39.66 154.684 40.236 154.892 40.86C155.116 41.484 155.228 42.06 155.228 42.588V44.124H145.628ZM149.612 39.036C149.084 39.036 148.588 39.124 148.124 39.3C147.676 39.46 147.276 39.692 146.924 39.996C146.588 40.3 146.308 40.66 146.084 41.076C145.876 41.476 145.74 41.916 145.676 42.396H153.356C153.324 41.884 153.196 41.42 152.972 41.004C152.764 40.588 152.484 40.236 152.132 39.948C151.796 39.66 151.404 39.436 150.956 39.276C150.524 39.116 150.076 39.036 149.612 39.036Z" fill="#080808" fill-opacity="0.756863"/>
<defs>
<linearGradient id="paint0_linear_4313_492" x1="12.5" y1="7" x2="203" y2="76.5" gradientUnits="userSpaceOnUse">
<stop stop-color="white"/>
<stop offset="1" stop-color="#EAD2FF"/>
</linearGradient>
<linearGradient id="paint1_linear_4313_492" x1="205" y1="75.5" x2="6.49999" y2="9.24418e-06" gradientUnits="userSpaceOnUse">
<stop stop-color="#F6A4FE"/>
<stop offset="1" stop-color="#FAEAFC"/>
</linearGradient>
</defs>
</svg>
