<svg width="44" height="44" viewBox="0 0 44 44" fill="none" xmlns="http://www.w3.org/2000/svg">
<path d="M39.335 12.834C39.335 8.32366 35.6783 4.66699 31.168 4.66699H12.835C8.32464 4.66699 4.66797 8.32366 4.66797 12.834V31.167C4.66797 35.6773 8.32464 39.334 12.835 39.334H31.168C35.6783 39.334 39.335 35.6773 39.335 31.167V12.834ZM41.335 31.167C41.335 36.7819 36.7829 41.334 31.168 41.334H12.835C7.22007 41.334 2.66797 36.7819 2.66797 31.167V12.834C2.66797 7.21909 7.22007 2.66699 12.835 2.66699H31.168C36.7829 2.66699 41.335 7.21909 41.335 12.834V31.167Z" fill="black" fill-opacity="0.86"/>
<path d="M18.2415 14.5237C19.7973 13.7164 21.5682 13.4199 23.3021 13.677C25.0705 13.9392 26.7078 14.7635 27.972 16.0276C29.2362 17.2918 30.0603 18.9299 30.3226 20.6985C30.5796 22.4322 30.2841 24.2033 29.4769 25.759C28.6696 27.3148 27.3921 28.5765 25.8265 29.3645C24.2609 30.1525 22.4866 30.4261 20.7562 30.1477C19.0256 29.8692 17.4262 29.0522 16.1868 27.8127C14.9476 26.5734 14.1303 24.9748 13.8519 23.2444C13.5734 21.5139 13.8481 19.7397 14.636 18.1741C15.4241 16.6084 16.6857 15.331 18.2415 14.5237ZM23.0091 15.6555C21.6914 15.4601 20.3448 15.6855 19.1624 16.2991C17.9802 16.9126 17.021 17.8837 16.4222 19.0735C15.8234 20.2633 15.6149 21.612 15.8265 22.927C16.0382 24.2421 16.66 25.4568 17.6019 26.3987C18.5438 27.3405 19.7584 27.9615 21.0735 28.1731C22.3888 28.3847 23.7372 28.1763 24.9271 27.5774C26.117 26.9785 27.0879 26.0196 27.7015 24.8372C28.3149 23.6548 28.5404 22.3091 28.345 20.9915C28.1457 19.6474 27.5187 18.4034 26.5579 17.4426C25.5972 16.4819 24.3531 15.8549 23.0091 15.6555Z" fill="black" fill-opacity="0.86"/>
<path d="M32.1006 10.917L32.2021 10.9219C32.7066 10.9729 33.1006 11.3991 33.1006 11.917C33.1006 12.4349 32.7066 12.8611 32.2021 12.9121L32.1006 12.917H32.082C31.5297 12.917 31.082 12.4693 31.082 11.917C31.082 11.3647 31.5297 10.917 32.082 10.917H32.1006Z" fill="black" fill-opacity="0.86"/>
</svg>
