<?xml version="1.0" encoding="UTF-8"?>
<svg version="1.1" xmlns="http://www.w3.org/2000/svg" width="2406" height="2045">
<path d="M0 0 C-1.485 0.99 -1.485 0.99 -3 2 C-1.01126641 3.98873359 2.80896936 3.48383026 5.54296875 3.68359375 C7.10743399 3.80779018 8.67188672 3.93214425 10.23632812 4.05664062 C12.70691938 4.24789167 15.17765581 4.43676078 17.64868164 4.62231445 C20.03066891 4.80289487 22.41178346 4.99276771 24.79296875 5.18359375 C25.52444626 5.23575546 26.25592377 5.28791718 27.00956726 5.34165955 C31.27907593 5.68885456 34.99796282 6.47296373 39 8 C39 8.99 39 9.98 39 11 C32.48844431 14.37213002 25.96091515 15.02417449 18.73828125 15.8671875 C16.7494849 16.11423366 14.76068966 16.36128911 12.77195263 16.60881233 C9.28651541 17.03955965 5.79939705 17.45626804 2.3125 17.875 C-57.59767542 25.09913295 -113.3388423 37.04252535 -162 75 C-163.423125 76.10408203 -163.423125 76.10408203 -164.875 77.23046875 C-176.39063889 86.41954687 -187.07466407 96.2446795 -196 108 C-196.75925781 108.96679688 -197.51851562 109.93359375 -198.30078125 110.9296875 C-206.84258751 121.98378972 -212.67759023 132.8036282 -217 146 C-216.38858154 146.10138779 -215.77716309 146.20277557 -215.1472168 146.30723572 C-198.12183636 149.14900373 -181.15008246 152.24835857 -164.1875 155.44140625 C-162.57713175 155.74449707 -162.57713175 155.74449707 -160.9342308 156.05371094 C-156.4518007 156.89764697 -151.96946705 157.74209318 -147.48724174 158.58711624 C-55.27844837 175.96848256 37.16007926 193.34022909 154 204 C155.09664978 204.0857428 155.09664978 204.0857428 156.2154541 204.17321777 C196.97990773 207.33873214 238.16255166 207.94138489 279 206 C279.84906921 205.9598175 280.69813843 205.91963501 281.57293701 205.87823486 C305.1718843 204.72842001 327.95624019 202.43065621 351 197 C352.86446777 196.56494141 352.86446777 196.56494141 354.76660156 196.12109375 C405.11599378 184.17684769 453.76794172 166.17106731 500 143 C500.9796875 142.51144531 501.959375 142.02289063 502.96875 141.51953125 C530.03694146 127.9474184 555.89289988 111.55787918 577.90625 90.65234375 C580 89 580 89 583 89 C582.34 90.32 581.68 91.64 581 93 C593.96539749 86.18868519 604.40473713 75.93565039 614.46972656 65.45703125 C618.69342661 61.10219113 618.69342661 61.10219113 622 60 C621.31290836 78.2079284 603.5960928 93.96648674 591.0625 105.8125 C564.41140964 129.48964895 532.85564007 146.88401383 501.22369385 162.87384033 C498.77789524 164.11248195 496.33487642 165.35650335 493.89208984 166.60107422 C448.98708455 189.46157237 403.31472194 209.64833362 356 227 C355.30239563 227.25630188 354.60479126 227.51260376 353.88604736 227.77667236 C336.3374397 234.2134317 318.76532911 240.24948434 300.75 245.25 C268.79633219 252.95656791 268.79633219 252.95656791 241.29296875 269.609375 C234.33675417 275.53983078 222.41754419 274.30641163 213.83984375 274.30078125 C212.59336563 274.30638062 211.34688751 274.31197998 210.06263733 274.31774902 C206.71382511 274.32760667 203.3654504 274.32713371 200.0166626 274.31805801 C197.92150799 274.31245725 195.82636139 274.30960944 193.73120117 274.30697632 C170.05063371 274.26376995 146.56875103 273.36857309 123 271 C122.0354187 270.9033606 121.0708374 270.80672119 120.07702637 270.70715332 C104.14527137 269.10001658 88.20688661 267.45419254 72.32519531 265.40283203 C71.59797272 265.30913834 70.87075012 265.21544464 70.12149048 265.11891174 C68.19191209 264.86756632 66.26315265 264.60995539 64.33447266 264.35180664 C61.19217587 264.02027569 58.15661759 263.93467614 55 264 C55 265.65 55 267.3 55 269 C49.42918016 271.74036286 44.53873387 272.69801043 38.375 273.1875 C37.41319824 273.26645508 36.45139648 273.34541016 35.46044922 273.42675781 C1.91779416 275.89163878 -32.2092315 273.05326145 -65.72265625 271.19921875 C-97.84172261 269.36454535 -97.84172261 269.36454535 -130 268.6875 C-130.71990112 268.68409607 -131.43980225 268.68069214 -132.18151855 268.67718506 C-144.92136757 268.4547507 -144.92136757 268.4547507 -157 272 C-157.33 272.99 -157.66 273.98 -158 275 C-183.21127401 270.48407592 -208.31924682 265.43017962 -233.44055176 260.44372559 C-238.14813709 259.50983347 -242.85612118 258.57796044 -247.56410885 257.64609909 C-252.11004444 256.74612602 -256.65577949 255.84514356 -261.20144844 254.94382477 C-263.36676511 254.51456291 -265.53213305 254.08555956 -267.69755363 253.6568222 C-270.69952758 253.06224767 -273.70124013 252.46637129 -276.70288086 251.87011719 C-278.03431877 251.60677078 -278.03431877 251.60677078 -279.39265442 251.33810425 C-280.20896332 251.1756723 -281.02527222 251.01324036 -281.86631775 250.84588623 C-282.57237121 250.70581524 -283.27842466 250.56574425 -284.00587368 250.42142868 C-286.01809683 249.99617551 -288.00808584 249.51138369 -290 249 C-290.39614502 250.71908569 -290.39614502 250.71908569 -290.80029297 252.47290039 C-291.92174657 256.94797289 -293.48684953 261.15416966 -295.1953125 265.43359375 C-295.83201787 267.05659959 -296.46839872 268.67973276 -297.10449219 270.30297852 C-297.4349353 271.14176544 -297.76537842 271.98055237 -298.10583496 272.84475708 C-304.34260712 288.71102628 -310.35342644 304.58144485 -315 321 C-315.20044922 321.70785645 -315.40089844 322.41571289 -315.60742188 323.14501953 C-317.94616708 331.70971009 -319.38094793 341.14888493 -318 350 C-316.03528672 352.18871486 -316.03528672 352.18871486 -314 354 C-314.38631592 354.75692139 -314.77263184 355.51384277 -315.1706543 356.29370117 C-351.97053311 428.60576187 -384.13507961 505.97472677 -393.1875 587.125 C-393.26631409 587.81129486 -393.34512817 588.49758972 -393.42633057 589.2046814 C-396.64673584 617.66581281 -397.33075039 646.4814546 -398.46871567 675.08594513 C-398.56418203 677.47967544 -398.66083466 679.87335558 -398.75772095 682.26702881 C-399.79011685 707.8392029 -400.60525345 733.4090829 -401 759 C-400.13125244 758.69819824 -399.26250488 758.39639648 -398.36743164 758.08544922 C-365.47388525 746.72163332 -332.81192742 738.70391055 -298 736 C-296.90244385 735.91322998 -296.90244385 735.91322998 -295.78271484 735.82470703 C-232.84777126 731.06824236 -159.90060056 738.45745779 -106 774 C-105.51144531 774.5053125 -105.02289062 775.010625 -104.51953125 775.53125 C-102.94350494 777.20238691 -102.94350494 777.20238691 -100.22265625 778.3828125 C-96.63545011 780.18293776 -93.57974631 782.41005766 -90.4375 784.875 C-89.88642578 785.29652344 -89.33535156 785.71804688 -88.76757812 786.15234375 C-85.25305292 788.8789149 -82.09385634 791.79195916 -79 795 C-78.34 795.66 -77.68 796.32 -77 797 C-80.54443797 796.41499188 -83.37754206 795.48234665 -86.5703125 793.84765625 C-87.45235352 793.40591064 -88.33439453 792.96416504 -89.24316406 792.5090332 C-90.19416992 792.03167725 -91.14517578 791.55432129 -92.125 791.0625 C-132.28459561 771.44825555 -180.84168592 756.81853248 -226 758 C-225.30551758 758.10022461 -224.61103516 758.20044922 -223.89550781 758.30371094 C-220.67857948 758.77455906 -217.46439942 759.2621976 -214.25 759.75 C-213.15816406 759.90726563 -212.06632812 760.06453125 -210.94140625 760.2265625 C-202.72013456 761.49137353 -194.49423511 763.25288244 -187 767 C-187 767.99 -187 768.98 -187 770 C-189.32261368 771.16130684 -190.87449472 771.20810809 -193.46435547 771.34130859 C-194.39592972 771.3917482 -195.32750397 771.44218781 -196.28730774 771.49415588 C-197.30366806 771.54506882 -198.32002838 771.59598175 -199.3671875 771.6484375 C-201.54046414 771.76569543 -203.71372191 771.88330356 -205.88696289 772.0012207 C-207.59893356 772.09217514 -207.59893356 772.09217514 -209.3454895 772.18496704 C-257.7833319 773.95101296 -257.7833319 773.95101296 -305 784 C-300.71 783.67 -296.42 783.34 -292 783 C-292.33 783.99 -292.66 784.98 -293 786 C-295.94140625 787.38671875 -295.94140625 787.38671875 -299.5625 788.6875 C-301.35880859 789.34298828 -301.35880859 789.34298828 -303.19140625 790.01171875 C-304.11824219 790.33785156 -305.04507812 790.66398438 -306 791 C-305.35417969 790.9278125 -304.70835938 790.855625 -304.04296875 790.78125 C-294.35728418 789.82725644 -284.71980008 789.90849561 -275 790 C-275 790.66 -275 791.32 -275 792 C-275.7621582 792.11480713 -276.52431641 792.22961426 -277.30957031 792.34790039 C-315.59884649 798.20225865 -352.30741884 808.52915802 -387.96704102 823.69824219 C-388.98983154 824.13297852 -390.01262207 824.56771484 -391.06640625 825.015625 C-391.95271729 825.40008789 -392.83902832 825.78455078 -393.75219727 826.18066406 C-396 827 -396 827 -399 827 C-399 827.99 -399 828.98 -399 830 C-398.46149414 829.75991211 -397.92298828 829.51982422 -397.36816406 829.27246094 C-337.0869975 802.67267677 -337.0869975 802.67267677 -307 802 C-307 802.66 -307 803.32 -307 804 C-307.85335938 804.20753906 -308.70671875 804.41507813 -309.5859375 804.62890625 C-313.1740785 805.5129946 -316.75750394 806.41315795 -320.33886719 807.32421875 C-322.15641119 807.78577488 -323.97481397 808.24395904 -325.79394531 808.69921875 C-348.12151452 814.32014526 -370.05264132 821.45077464 -391.4375 830 C-392.1169165 830.26619141 -392.79633301 830.53238281 -393.49633789 830.80664062 C-395.48927926 831.60407932 -395.48927926 831.60407932 -398 833 C-398.33 833.99 -398.66 834.98 -399 836 C-397.081875 835.938125 -397.081875 835.938125 -395.125 835.875 C-392.9453125 835.8046875 -392.9453125 835.8046875 -391 836 C-389 838 -389 838 -388.875 840.625 C-388.91625 841.40875 -388.9575 842.1925 -389 843 C-381.85901531 843.25115173 -375.31596971 842.51875291 -368.3125 841.1875 C-349.47399162 837.85683623 -330.33115593 835.76995425 -311.1875 835.6875 C-310.29409912 835.68202148 -309.40069824 835.67654297 -308.48022461 835.67089844 C-302.46871063 835.73734299 -296.84970092 836.63613673 -291 838 C-290.67 839.65 -290.34 841.3 -290 843 C-299.07122031 847.88424413 -308.39704136 851.57885373 -318.03005981 855.17660522 C-340.34583027 863.53382536 -362.26718783 872.36508553 -383.02758789 884.16870117 C-383.8602417 884.64154541 -384.69289551 885.11438965 -385.55078125 885.6015625 C-386.26919189 886.01744629 -386.98760254 886.43333008 -387.7277832 886.86181641 C-390.41003093 888.20538994 -393.13989045 889.10674487 -396 890 C-395.83564453 891.62893188 -395.83564453 891.62893188 -395.66796875 893.29077148 C-394.53141201 904.77915391 -393.54856095 916.27803729 -392.625 927.78515625 C-392.56252956 928.56277502 -392.50005913 929.34039379 -392.43569565 930.14157677 C-392.09950103 934.32900053 -391.76417741 938.51649367 -391.42913818 942.70401001 C-389.20891439 970.44104253 -386.9187906 998.17082322 -384.4921875 1025.890625 C-384.33138577 1027.72860688 -384.33138577 1027.72860688 -384.16733551 1029.60371971 C-383.73147494 1034.5855883 -383.29550054 1039.56744692 -382.85950851 1044.54930401 C-378.73723333 1091.67075711 -374.82914873 1138.78164945 -372 1186 C-371.90135651 1187.62582001 -371.90135651 1187.62582001 -371.80072021 1189.28448486 C-370.29274869 1214.2045505 -369.07948904 1239.07023788 -370.55859375 1264.0234375 C-370.60901825 1264.88993927 -370.65944275 1265.75644104 -370.71139526 1266.64920044 C-370.96514768 1270.95608873 -371.24015389 1275.25989147 -371.55175781 1279.56298828 C-371.65334088 1281.13571987 -371.75459368 1282.70847284 -371.85546875 1284.28125 C-371.91472031 1285.00283295 -371.97397186 1285.72441589 -372.03501892 1286.46786499 C-372.29713743 1290.83943636 -371.77259721 1292.69233245 -369 1296 C-368.30942025 1299.8981621 -368.47902646 1303.86021349 -368.5 1307.8125 C-368.50640503 1309.69364502 -368.50640503 1309.69364502 -368.51293945 1311.61279297 C-368.75711194 1330.80187774 -371.38979293 1349.90544297 -373.63885498 1368.93847656 C-374.35203718 1374.98431379 -375.05104971 1381.0318105 -375.75309753 1387.07894897 C-376.29098052 1391.70534007 -376.8331294 1396.33111408 -377.38745117 1400.95556641 C-378.46160294 1409.96327093 -379.415258 1418.94467718 -380 1428 C-378.68 1428.33 -377.36 1428.66 -376 1429 C-382.80043535 1484.89705536 -393.04193589 1539.83416744 -409.33001709 1593.77020264 C-410.01242467 1596.04135106 -410.68415714 1598.31544993 -411.35400391 1600.59033203 C-417.75481787 1622.23786754 -425.75760234 1642.27334079 -436.11621094 1662.32617188 C-437.86018468 1665.70891958 -439.53717389 1669.12110798 -441.1953125 1672.546875 C-448.1075678 1686.78734835 -455.87262193 1700.42229974 -464 1714 C-465.49785052 1716.5050819 -466.99468359 1719.01070254 -468.48583984 1721.51977539 C-469.34156164 1722.95831397 -470.20221044 1724.39393857 -471.06884766 1725.82592773 C-472.86960024 1728.84533635 -474.43565747 1731.51173759 -475 1735 C-474.40445312 1736.08667969 -474.40445312 1736.08667969 -473.796875 1737.1953125 C-472.68258054 1741.11719202 -474.01003572 1742.93023273 -475.87060547 1746.43237305 C-476.32580566 1747.23843994 -476.78100586 1748.04450684 -477.25 1748.875 C-477.71164551 1749.71780518 -478.17329102 1750.56061035 -478.64892578 1751.42895508 C-488.35314422 1768.87049889 -500.41279158 1784.8856464 -513.41796875 1799.98828125 C-515.8223964 1802.79284058 -518.17075122 1805.63291403 -520.5 1808.5 C-523.25038829 1811.88434304 -526.04135302 1815.22502223 -528.8840332 1818.53222656 C-544.60388966 1836.63053417 -544.60388966 1836.63053417 -557 1857 C-555.02 1857 -553.04 1857 -551 1857 C-551.43143439 1861.46534595 -554.53895341 1864.06184835 -557.5 1867.125 C-558.51130891 1868.18925702 -559.52169758 1869.25438913 -560.53125 1870.3203125 C-561.07982666 1870.89644287 -561.62840332 1871.47257324 -562.19360352 1872.06616211 C-564.22846106 1874.244579 -566.20446975 1876.47006741 -568.18359375 1878.69921875 C-572.97344687 1884.03899181 -577.98503472 1889.13705243 -583.06616211 1894.1965332 C-584.56806925 1895.69304925 -586.06451062 1897.194883 -587.56054688 1898.69726562 C-592.87117876 1904.01156262 -598.28701371 1909.12131745 -604 1914 C-605.60768373 1915.45445517 -607.21239715 1916.91220895 -608.8125 1918.375 C-614.0620449 1923.10518353 -619.48436219 1927.58457528 -625 1932 C-625.5151416 1932.41475586 -626.0302832 1932.82951172 -626.56103516 1933.25683594 C-705.11466075 1996.39428281 -798.89045191 2033.32700925 -899 2043 C-900.57189087 2043.15686279 -900.57189087 2043.15686279 -902.17553711 2043.31689453 C-914.52147609 2044.3792173 -926.9305972 2044.24386885 -939.3125 2044.25 C-940.53653534 2044.25067474 -941.76057068 2044.25134949 -943.021698 2044.25204468 C-996.21609594 2044.2055495 -1053.71286705 2037.78147138 -1102 2014 C-1102.62745117 2013.69513672 -1103.25490234 2013.39027344 -1103.90136719 2013.07617188 C-1126.69466088 2001.87904192 -1147.6197602 1986.29364725 -1167 1970 C-1168.01707031 1969.17886719 -1169.03414062 1968.35773438 -1170.08203125 1967.51171875 C-1175.9724465 1962.74699911 -1181.30395375 1957.95520591 -1186 1952 C-1186.80308594 1950.99839844 -1187.60617187 1949.99679687 -1188.43359375 1948.96484375 C-1193.4884825 1942.58195973 -1198.00619044 1936.11123458 -1202 1929 C-1202.40089844 1928.3296875 -1202.80179688 1927.659375 -1203.21484375 1926.96875 C-1204.97062996 1924.01952903 -1206.37276077 1921.38709186 -1207 1918 C-1207.33 1917.34 -1207.66 1916.68 -1208 1916 C-1204.02699827 1917.34760867 -1201.57996623 1919.04554363 -1198.5625 1921.9375 C-1192.93315871 1927.14339526 -1187.00026885 1931.83366566 -1180.93017578 1936.50683594 C-1178.95268799 1938.03660009 -1176.98953344 1939.58348928 -1175.02734375 1941.1328125 C-1164.43837103 1949.43244731 -1153.37870628 1956.82866571 -1142 1964 C-1144.29256135 1961.68767519 -1146.57745353 1959.38511618 -1148.984375 1957.19140625 C-1152.07877544 1954.33661647 -1153.80585703 1952.71185756 -1154.9375 1948.5625 C-1154.9684375 1947.2940625 -1154.9684375 1947.2940625 -1155 1946 C-1147.58986827 1946.48992606 -1141.42221687 1948.38082721 -1134.5 1951 C-1132.3008487 1951.81138075 -1130.10162775 1952.62257275 -1127.90234375 1953.43359375 C-1126.21020752 1954.06370361 -1126.21020752 1954.06370361 -1124.48388672 1954.70654297 C-1118.68866035 1956.85812736 -1112.87606502 1958.96108913 -1107.0625 1961.0625 C-1105.44601562 1961.65321289 -1105.44601562 1961.65321289 -1103.796875 1962.25585938 C-1102.80300781 1962.61615234 -1101.80914063 1962.97644531 -1100.78515625 1963.34765625 C-1099.90738525 1963.66742432 -1099.02961426 1963.98719238 -1098.12524414 1964.31665039 C-1096.05473479 1965.10203492 -1096.05473479 1965.10203492 -1094 1965 C-1095.32 1963.68 -1096.64 1962.36 -1098 1961 C-1091.375 1960 -1091.375 1960 -1088 1960 C-1088.75925781 1959.60167969 -1089.51851562 1959.20335937 -1090.30078125 1958.79296875 C-1091.79158203 1957.99826172 -1091.79158203 1957.99826172 -1093.3125 1957.1875 C-1094.29863281 1956.66542969 -1095.28476563 1956.14335938 -1096.30078125 1955.60546875 C-1098.62843471 1954.22100338 -1100.31495482 1953.09911771 -1102 1951 C-1102 1950.34 -1102 1949.68 -1102 1949 C-1097.24199094 1950.56642274 -1092.50694714 1952.16980832 -1087.796875 1953.875 C-1072.73914393 1959.2193308 -1057.51881794 1963.29600541 -1042 1967.0625 C-1040.98353394 1967.30991943 -1039.96706787 1967.55733887 -1038.9197998 1967.81225586 C-1036.01042712 1968.51753696 -1033.09951805 1969.21588524 -1030.1875 1969.91015625 C-1029.30427063 1970.12221207 -1028.42104126 1970.33426788 -1027.51104736 1970.55274963 C-1026.69658142 1970.74425095 -1025.88211548 1970.93575226 -1025.04296875 1971.13305664 C-1024.33164795 1971.30132462 -1023.62032715 1971.46959259 -1022.88745117 1971.64295959 C-1020.82886677 1972.09293454 -1020.82886677 1972.09293454 -1018 1972 C-1025.02479726 1969.0532344 -1032.28646776 1967.40897236 -1039.68173218 1965.6973877 C-1059.91565076 1960.9934359 -1059.91565076 1960.9934359 -1069.6875 1957.75 C-1070.36731934 1957.52852295 -1071.04713867 1957.3070459 -1071.74755859 1957.07885742 C-1076.01527104 1955.59469947 -1079.36371951 1953.61410026 -1083 1951 C-1082.34 1950.34 -1081.68 1949.68 -1081 1949 C-1080.20456787 1949.30852905 -1080.20456787 1949.30852905 -1079.39306641 1949.62329102 C-1068.031994 1953.98930297 -1056.63325423 1957.83940109 -1044.875 1961 C-1043.19591553 1961.45354858 -1043.19591553 1961.45354858 -1041.48291016 1961.91625977 C-1037.14804159 1963.05342186 -1033.50574642 1964 -1029 1964 C-1029.65484375 1963.47921875 -1030.3096875 1962.9584375 -1030.984375 1962.421875 C-1033.6517098 1959.21693783 -1033.41433711 1957.35842763 -1033.25 1953.25 C-1033.21390625 1952.07953125 -1033.1778125 1950.9090625 -1033.140625 1949.703125 C-1033.07101562 1948.36507813 -1033.07101562 1948.36507813 -1033 1947 C-1033.73790771 1946.72921631 -1034.47581543 1946.45843262 -1035.23608398 1946.17944336 C-1037.87821598 1945.05196878 -1039.9101562 1943.81646438 -1042.22265625 1942.12890625 C-1043.39332642 1941.27510376 -1043.39332642 1941.27510376 -1044.58764648 1940.40405273 C-1045.40434814 1939.79634033 -1046.2210498 1939.18862793 -1047.0625 1938.5625 C-1047.90433838 1937.93867432 -1048.74617676 1937.31484863 -1049.61352539 1936.67211914 C-1058.0588657 1930.33346562 -1066.77834617 1923.63325819 -1073 1915 C-1073.3125 1912.25 -1073.3125 1912.25 -1073 1910 C-1071.05312549 1908.05312549 -1067.45878762 1908.76010062 -1064.8125 1908.75 C-1058.17409101 1908.76110317 -1051.78935012 1909.32990284 -1045.23046875 1910.3203125 C-1032.63443358 1912.1241097 -1019.99980957 1913.45399161 -1007.34130859 1914.73486328 C-1003.50409886 1915.12458371 -999.66808876 1915.52489684 -995.83203125 1915.92578125 C-981.22495707 1917.42746282 -966.67792164 1918.54250141 -952 1919 C-952.67466309 1918.83395264 -953.34932617 1918.66790527 -954.04443359 1918.49682617 C-957.15526482 1917.72962973 -960.26513097 1916.9585871 -963.375 1916.1875 C-964.96634766 1915.79594727 -964.96634766 1915.79594727 -966.58984375 1915.39648438 C-971.65347167 1914.1383437 -976.70595067 1912.84682724 -981.7265625 1911.42578125 C-982.52916504 1911.19930908 -983.33176758 1910.97283691 -984.15869141 1910.73950195 C-986 1910 -986 1910 -987 1908 C-986.20754883 1907.93530518 -985.41509766 1907.87061035 -984.59863281 1907.80395508 C-928.43847915 1903.09971442 -873.40040587 1888.18500639 -822 1865 C-821.05560059 1864.57944336 -820.11120117 1864.15888672 -819.13818359 1863.72558594 C-792.23989034 1851.66789494 -767.09027372 1836.30252668 -744 1818 C-742.90598573 1817.16878627 -741.8095697 1816.34072546 -740.7109375 1815.515625 C-734.33769219 1810.71962988 -728.31833556 1805.7187419 -722.46484375 1800.28515625 C-720.42559075 1798.39456511 -718.35983766 1796.56037683 -716.25 1794.75 C-712.230539 1791.25481652 -708.33429882 1787.63054609 -704.4375 1784 C-703.81198242 1783.41831055 -703.18646484 1782.83662109 -702.54199219 1782.23730469 C-696.40240562 1776.49777526 -690.48438994 1770.65675675 -685.00390625 1764.28125 C-683.07666474 1762.08727526 -681.09442312 1759.95286877 -679.09741211 1757.82250977 C-673.46577556 1751.7910514 -668.37069392 1745.45744243 -663.41455078 1738.86035156 C-661.85871306 1736.81418596 -660.27442158 1734.79251273 -658.68359375 1732.7734375 C-604.47900568 1663.95998777 -569.55965058 1581.28879547 -535 1426 C-534.88118469 1425.27911194 -534.76236938 1424.55822388 -534.63995361 1423.81549072 C-528.6998489 1387.51043289 -525.48647697 1350.7631959 -523.25 1314.0625 C-523.16138702 1312.61469147 -523.16138702 1312.61469147 -523.07098389 1311.13763428 C-522.66747645 1304.42714574 -522.32225118 1297.71483314 -522 1291 C-521.9274147 1289.57867264 -521.9274147 1289.57867264 -521.85336304 1288.12863159 C-520.55834697 1262.08852121 -520.80132063 1236.00175 -520.8125 1209.9375 C-520.81261959 1208.70434555 -520.81273918 1207.4711911 -520.8128624 1206.20066833 C-520.81756225 1167.87983182 -521.19061085 1129.63640221 -522.74651718 1091.34500027 C-522.96685181 1085.89773068 -523.17200701 1080.44996647 -523.37304688 1075.00195312 C-523.72912722 1065.35516987 -524.09260812 1055.70869399 -524.46392441 1046.06248474 C-524.52945331 1044.35905279 -524.59476473 1042.65561247 -524.65985489 1040.9521637 C-524.84347576 1036.15234273 -525.03164361 1031.35274535 -525.22727203 1026.55339813 C-525.28622544 1025.09193601 -525.34368898 1023.63041295 -525.39958954 1022.16883087 C-525.47651153 1020.16642642 -525.55950508 1018.16425793 -525.64282227 1016.16210938 C-525.68786392 1015.03848999 -525.73290558 1013.91487061 -525.77931213 1012.75720215 C-525.89626851 1009.91198008 -525.89626851 1009.91198008 -527 1007 C-531.71755298 1011.69202766 -536.43104611 1016.38810612 -541.1418457 1021.08691406 C-542.74216818 1022.68223301 -544.3433902 1024.27665014 -545.94555664 1025.87011719 C-548.2590937 1028.17141331 -550.56928899 1030.47602071 -552.87890625 1032.78125 C-553.58648575 1033.48366821 -554.29406525 1034.18608643 -555.02308655 1034.90979004 C-555.7032634 1035.58989136 -556.38344025 1036.26999268 -557.08422852 1036.97070312 C-557.96692162 1037.85006531 -557.96692162 1037.85006531 -558.8674469 1038.74719238 C-560.72411881 1040.70856189 -562.49096268 1042.71097274 -564.25549316 1044.75450134 C-567.94788966 1048.99581904 -571.84691771 1052.98796367 -575.82788086 1056.95727539 C-576.57683121 1057.70797806 -577.32578156 1058.45868073 -578.09742737 1059.23213196 C-580.55073978 1061.68981187 -583.0076521 1064.14385527 -585.46484375 1066.59765625 C-587.18459931 1068.31808631 -588.90420647 1070.03866472 -590.62367249 1071.75938416 C-594.21876497 1075.3559467 -597.81564896 1078.95070528 -601.41381836 1082.54418945 C-606.01126869 1087.13594294 -610.60421464 1091.7321716 -615.19582272 1096.32976627 C-618.74316788 1099.88073571 -622.29290465 1103.42930666 -625.84335518 1106.97717094 C-627.53726025 1108.67041191 -629.23043103 1110.36438779 -630.9228344 1112.05912971 C-633.2937107 1114.43256325 -635.66779959 1116.80273776 -638.04272461 1119.17211914 C-639.07712173 1120.20955261 -639.07712173 1120.20955261 -640.13241577 1121.26794434 C-644.06396071 1125.18261995 -648.10100684 1128.91499129 -652.3100214 1132.53032589 C-654.30461624 1134.26490667 -656.16434484 1136.09878573 -658 1138 C-661.10375954 1141.14578336 -664.31876298 1144.07294016 -667.66796875 1146.953125 C-670.66270853 1149.58167382 -673.57955829 1152.28947025 -676.5 1155 C-681.26619639 1159.4151451 -686.0684757 1163.76922516 -691 1168 C-691.4851709 1168.41685059 -691.9703418 1168.83370117 -692.47021484 1169.26318359 C-695.40181525 1171.78161129 -698.33635656 1174.29656014 -701.2734375 1176.80859375 C-703.74174374 1178.92030934 -706.20503309 1181.0376464 -708.6640625 1183.16015625 C-715.33782634 1188.91527166 -722.08430997 1194.53600001 -729 1200 C-730.16484844 1200.93391639 -731.32884907 1201.86889082 -732.4921875 1202.8046875 C-747.07953216 1214.53543836 -761.97995622 1225.83033252 -777 1237 C-777.70125 1237.52400391 -778.4025 1238.04800781 -779.125 1238.58789062 C-800.90564618 1254.81702445 -823.83593897 1269.82551767 -847 1284 C-848.17780029 1284.72074707 -848.17780029 1284.72074707 -849.37939453 1285.45605469 C-932.73027834 1336.27453617 -1022.15900302 1375.14234274 -1118 1395 C-1119.00434082 1395.21172852 -1120.00868164 1395.42345703 -1121.04345703 1395.64160156 C-1142.17738759 1400.03194966 -1163.56244854 1402.61548475 -1185 1405 C-1186.16708496 1405.13035645 -1187.33416992 1405.26071289 -1188.53662109 1405.39501953 C-1274.96123216 1414.62189527 -1365.57518424 1403.27804494 -1521 1344 C-1522.34989014 1343.32590088 -1522.34989014 1343.32590088 -1523.72705078 1342.63818359 C-1553.85549295 1327.52975134 -1582.06143135 1308.46640164 -1608 1287 C-1608.9178125 1286.2575 -1609.835625 1285.515 -1610.78125 1284.75 C-1619.19100252 1277.9466047 -1627.30643312 1270.90807626 -1634.8203125 1263.1171875 C-1636.74951763 1261.24330008 -1638.72857692 1259.50326031 -1640.76953125 1257.75390625 C-1644.97780657 1254.09622821 -1648.78385747 1250.15701651 -1652.5625 1246.0625 C-1653.49352539 1245.06573242 -1653.49352539 1245.06573242 -1654.44335938 1244.04882812 C-1658.72385959 1239.44695563 -1662.88523976 1234.75018695 -1667 1230 C-1667.45753662 1229.47543213 -1667.91507324 1228.95086426 -1668.38647461 1228.41040039 C-1689.59891115 1204.0296365 -1707.97857451 1176.5953318 -1723 1148 C-1723.59619141 1146.8665918 -1724.19238281 1145.73318359 -1724.80664062 1144.56542969 C-1734.27977798 1126.45490255 -1742.55633596 1108.03953714 -1750 1089 C-1750.3717334 1088.06381836 -1750.7434668 1087.12763672 -1751.12646484 1086.16308594 C-1765.3591419 1050.09095647 -1773.83719575 1011.59989876 -1779.375 973.3125 C-1779.55754333 972.06580032 -1779.55754333 972.06580032 -1779.74377441 970.79391479 C-1783.32765598 945.98690792 -1784.38272838 921.21926963 -1784.31805801 896.18640137 C-1784.31240959 893.96443611 -1784.30959436 891.74247851 -1784.30697632 889.52050781 C-1784.27046937 868.20469895 -1783.82095121 847.16259042 -1781 826 C-1780.82016512 824.57224398 -1780.64149876 823.1443404 -1780.46386719 821.71630859 C-1777.94418148 801.60798552 -1774.54289039 781.75977157 -1770 762 C-1769.73461426 760.84483887 -1769.46922852 759.68967773 -1769.19580078 758.49951172 C-1764.97513564 740.39833276 -1759.77892237 722.66123938 -1754 705 C-1753.60941406 703.8022998 -1753.21882813 702.60459961 -1752.81640625 701.37060547 C-1744.28960042 675.43024496 -1733.85861521 650.40125173 -1722.25976562 625.69140625 C-1721.07208375 623.15400218 -1719.90096375 620.60965498 -1718.734375 618.0625 C-1713.04764554 605.72957273 -1706.65374934 593.83534453 -1700 582 C-1699.41943848 580.96391602 -1698.83887695 579.92783203 -1698.24072266 578.86035156 C-1689.95857257 564.13207283 -1681.22094593 549.80474873 -1671.83642578 535.75390625 C-1670.01360913 533.02040827 -1668.20625482 530.27725276 -1666.40234375 527.53125 C-1655.87947975 511.55777729 -1644.78733014 496.06368069 -1633 481 C-1632.14301585 479.89599889 -1631.28624989 478.79182837 -1630.4296875 477.6875 C-1616.4674429 459.74154654 -1601.85755713 442.32246808 -1586.4140625 425.6328125 C-1584.39774614 423.43378786 -1582.43745527 421.20551636 -1580.5 418.9375 C-1577.20044808 415.12239309 -1573.62778692 411.59967266 -1570.0402832 408.05957031 C-1567.47714458 405.51791908 -1565.01829496 402.94314873 -1562.6875 400.1875 C-1555.49748244 391.78177899 -1547.4294322 383.90926278 -1538.98828125 376.76953125 C-1536.38456403 374.45227408 -1533.9470175 371.9797882 -1531.5 369.5 C-1527.81851958 365.7740285 -1524.06704861 362.20143761 -1520.08203125 358.80078125 C-1517.56846422 356.62675798 -1515.13223771 354.37609512 -1512.6875 352.125 C-1508.14475315 347.97754742 -1503.45880038 344.06767305 -1498.671875 340.20703125 C-1496.1014095 338.08376662 -1493.64080637 335.88188151 -1491.1875 333.625 C-1486.81299174 329.64316413 -1482.25470925 325.98257917 -1477.58349609 322.36108398 C-1473.76685432 319.39954516 -1470.00788283 316.38040171 -1466.28027344 313.30761719 C-1457.72466955 306.26357409 -1448.91034734 299.62142804 -1439.93334961 293.125 C-1437.64069405 291.46413658 -1435.35355703 289.796404 -1433.06860352 288.125 C-1422.1205709 280.13934918 -1410.97885331 272.49072199 -1399.6875 265 C-1398.83493622 264.43317505 -1397.98237244 263.8663501 -1397.10397339 263.28234863 C-1384.550198 254.93987926 -1371.96322867 246.69675646 -1359 239 C-1358.07864258 238.45021484 -1357.15728516 237.90042969 -1356.20800781 237.33398438 C-1341.34993489 228.49094726 -1326.25939273 220.12766872 -1311 212 C-1310.19320801 211.56768066 -1309.38641602 211.13536133 -1308.55517578 210.68994141 C-1239.63732736 173.76705423 -1166.73071232 145.41417382 -1091.39056396 124.66009521 C-1088.94231537 123.98407181 -1086.49575064 123.30218651 -1084.04931641 122.61962891 C-995.70110814 98.04943605 -901.73120595 88.62138344 -780.44791794 87.74205017 C-777.30724846 87.75017528 -774.1665863 87.75509377 -771.02590942 87.75939941 C-740.72031794 87.80714489 -710.46522406 88.06877917 -680.20214844 89.81640625 C-676.75358259 90.01412823 -673.30458412 90.20274261 -669.85546875 90.390625 C-590.32320213 94.76962268 -511.19701405 103.35678616 -331.76237488 126.52481079 C-329.50385676 126.85492372 -327.24484339 127.18166919 -324.98530579 127.50473022 C-319.16554204 128.34556202 -313.37796772 129.27895675 -307.59301758 130.33447266 C-306.3736702 130.54552139 -305.15432281 130.75657013 -303.89802551 130.97401428 C-301.57806162 131.37753305 -299.26243157 131.80721014 -296.95317078 132.26805115 C-291.48935078 133.19285936 -287.95184362 133.52988109 -283.11791992 130.57006836 C-280.3933944 128.51396613 -277.86448076 126.35486919 -275.61328125 123.78125 C-272.07635178 119.96942964 -268.22075246 117.0137323 -264 114 C-258.54292001 109.97654276 -253.23709948 105.80523579 -248 101.5 C-240.84615548 95.63053634 -233.5357349 90.0134807 -226.08154297 84.53125 C-224.66953741 83.49253327 -223.25977446 82.45076241 -221.85205078 81.40625 C-206.27257123 69.85612571 -190.10909635 59.37193624 -173.05859375 50.11962891 C-171.65168517 49.35443883 -170.2481721 48.58298112 -168.84765625 47.80615234 C-139.14936432 31.34552174 -106.83149239 20.30315521 -74 12 C-72.93716797 11.7309082 -71.87433594 11.46181641 -70.77929688 11.18457031 C-55.34779263 7.35821681 -39.73866542 4.6567208 -24.0625 2.0625 C-23.09632751 1.90071259 -22.13015503 1.73892517 -21.13470459 1.57223511 C-18.37379917 1.11288786 -15.61123577 0.6655982 -12.84765625 0.22265625 C-12.0134465 0.08344757 -11.17923676 -0.05576111 -10.31974792 -0.19918823 C-6.5609585 -0.78694585 -3.64413027 -1.09658168 0 0 Z M-846 215 C-846.88437744 215.06705139 -847.76875488 215.13410278 -848.67993164 215.20318604 C-936.12223547 221.93428427 -1023.21251213 238.96665509 -1205 310 C-1206.49104248 310.72509766 -1206.49104248 310.72509766 -1208.01220703 311.46484375 C-1210.84516721 312.84417716 -1213.67345311 314.2325796 -1216.5 315.625 C-1217.77411743 316.24592529 -1217.77411743 316.24592529 -1219.07397461 316.87939453 C-1219.84362549 317.26208496 -1220.61327637 317.64477539 -1221.40625 318.0390625 C-1222.41655273 318.53720459 -1222.41655273 318.53720459 -1223.44726562 319.04541016 C-1225.18162414 319.92346862 -1225.18162414 319.92346862 -1226 322 C-1225.26716797 322.21333984 -1224.53433594 322.42667969 -1223.77929688 322.64648438 C-1216.02422761 325.04674512 -1209.41913741 328.29196414 -1202.5 332.5 C-1201.4682666 333.11584961 -1200.4365332 333.73169922 -1199.37353516 334.36621094 C-1197.26212673 335.6280605 -1195.15353469 336.89463512 -1193.04785156 338.16601562 C-1190.20712372 339.8753674 -1187.35351771 341.55980516 -1184.4921875 343.234375 C-1141.4391183 368.51996048 -1141.4391183 368.51996048 -1133.6640625 390.12109375 C-1129.41867385 408.52610221 -1137.654615 425.57439611 -1147 441 C-1152.66030913 449.83239894 -1159.22979117 458.00083916 -1166 466 C-1166.46164551 466.55187988 -1166.92329102 467.10375977 -1167.39892578 467.67236328 C-1173.25855196 474.6764628 -1179.23248087 481.39212419 -1185.7734375 487.77734375 C-1187.76468909 489.76510192 -1189.61320958 491.79763328 -1191.4375 493.9375 C-1194.3017425 497.28927314 -1197.36358827 500.40529447 -1200.5 503.5 C-1204.24787894 507.20302821 -1207.84424038 510.9764673 -1211.265625 514.984375 C-1213.25912581 517.30114621 -1215.31554388 519.55419984 -1217.375 521.8125 C-1221.27436384 526.13341669 -1224.97741663 530.58123756 -1228.6328125 535.109375 C-1230.67742664 537.60609854 -1232.76993974 540.05078726 -1234.88745117 542.4855957 C-1256.68465299 567.71192191 -1272.96374134 594.71546937 -1271 629 C-1268.49629906 648.85217989 -1258.59367586 666.10041429 -1242.9140625 678.42578125 C-1234.75633606 684.55664892 -1226.15171828 689.51820019 -1217 694 C-1215.9584375 694.52980469 -1214.916875 695.05960938 -1213.84375 695.60546875 C-1206.4477229 699.07965516 -1200.11214275 699.58878455 -1192 699 C-1193.90632573 689.46837137 -1198.30330011 682.73059044 -1204.3125 675.25 C-1216.2591699 660.34927364 -1225.34264801 644.60266096 -1224 625 C-1222.42806993 620.2842098 -1220.32717512 617.50014563 -1216 615 C-1212.13456857 614.37654332 -1209.71347341 614.0917446 -1206.24609375 615.9296875 C-1202.31596254 619.01178575 -1199.59390243 622.84682821 -1196.6875 626.875 C-1192.53261908 632.60045446 -1187.96860616 637.16384481 -1182 641 C-1181.34 641 -1180.68 641 -1180 641 C-1177.43469035 632.13615646 -1179.3041028 622.74847266 -1180.9375 613.875 C-1181.30311988 611.83114614 -1181.66643861 609.78687916 -1182.02734375 607.7421875 C-1182.18968506 606.8538623 -1182.35202637 605.96553711 -1182.51928711 605.05029297 C-1183.63549482 597.96756108 -1184.1697832 590.97948918 -1184.23828125 583.8125 C-1184.2480751 582.96040451 -1184.25786896 582.10830902 -1184.26795959 581.23039246 C-1184.43905433 562.48396698 -1184.37710179 544.33785794 -1180 526 C-1179.67854004 524.63657471 -1179.67854004 524.63657471 -1179.35058594 523.24560547 C-1174.4447297 503.14016406 -1166.55459107 475.42053737 -1148.125 463.6875 C-1135.85647083 456.85139534 -1122.62657175 458.05252922 -1109.41796875 461.609375 C-1097.77454869 465.07575644 -1086.81086425 470.55486974 -1078 479 C-1077.03707031 479.92039062 -1077.03707031 479.92039062 -1076.0546875 480.859375 C-1065.37486559 492.04775986 -1061.69011823 506.74450194 -1061.83984375 521.85742188 C-1062.04271778 525.83820622 -1062.66825028 529.65360172 -1063.37182617 533.57250977 C-1066.51013603 551.20095294 -1066.59789956 568.81742996 -1066.79208374 586.67518616 C-1066.80268829 587.64991379 -1066.81329285 588.62464142 -1066.82421875 589.62890625 C-1066.83988388 591.07377663 -1066.83988388 591.07377663 -1066.85586548 592.5478363 C-1067.01423339 604.85848958 -1067.17970332 617.38959837 -1069.1875 629.5625 C-1069.31133057 630.32860596 -1069.43516113 631.09471191 -1069.56274414 631.8840332 C-1071.4898545 642.80506913 -1074.89355547 653.56568182 -1080.33032227 663.24926758 C-1081.28708843 665.19588699 -1081.28708843 665.19588699 -1080 668 C-1069.94195134 667.04279185 -1062.48113552 658.08232705 -1056.17578125 650.7578125 C-1025.70115625 612.13108853 -1015.99002774 555.12004552 -1021 507 C-1022.67961295 492.95437764 -1024.96859646 479.25823885 -1030 466 C-1030.37680908 465.00564941 -1030.37680908 465.00564941 -1030.76123047 463.99121094 C-1038.66676757 443.55203297 -1050.941669 430.56370797 -1069.125 418.75 C-1070.48364855 417.85764664 -1071.8417257 416.96442267 -1073.19921875 416.0703125 C-1075.6932972 414.42916981 -1078.19056523 412.79315388 -1080.69189453 411.16308594 C-1083.80690247 409.12626156 -1086.90656983 407.06933734 -1090 405 C-1058.19384326 403.8968963 -1028.29907356 417.12009436 -1003 436 C-1002.22124512 436.57331055 -1002.22124512 436.57331055 -1001.42675781 437.15820312 C-994.6896659 442.13316509 -988.3005827 447.36381725 -982.140625 453.046875 C-980.40658742 454.62902608 -978.65300618 456.10946881 -976.8125 457.5625 C-973.13323744 460.75119422 -970.10256819 464.25512564 -967 468 C-966.55317871 468.53447754 -966.10635742 469.06895508 -965.64599609 469.61962891 C-958.66185598 478.00659597 -952.37564791 486.46747456 -947 496 C-946.6380957 496.63099609 -946.27619141 497.26199219 -945.90332031 497.91210938 C-935.98017299 515.32203025 -929.97059764 533.39722506 -926 553 C-925.7525 554.18980469 -925.505 555.37960937 -925.25 556.60546875 C-917.32751422 603.53519357 -931.82582507 654.31649906 -958.36645508 693.12792969 C-966.62555377 704.69034032 -977.40455517 712.14857101 -989 720 C-991.77324595 721.89231763 -994.54312103 723.7895291 -997.3125 725.6875 C-998.29404053 726.35797363 -998.29404053 726.35797363 -999.29541016 727.04199219 C-1005.33349803 731.18473657 -1011.19010944 735.54354986 -1017 740 C-1017.55816406 739.65839844 -1018.11632812 739.31679688 -1018.69140625 738.96484375 C-1022.83505057 737.23306685 -1026.883773 738.55699312 -1031 740 C-1033.1262288 741.51334689 -1034.36425713 742.92805903 -1036 745 C-1035.1690807 748.11594739 -1034.48993358 750.45562935 -1032.3125 752.875 C-1028.1452799 754.90229626 -1024.18493721 754.40885537 -1019.88671875 752.92578125 C-1011.29696725 748.59419716 -1003.6912094 743.39285902 -995.9765625 737.66015625 C-990.55599064 733.63791263 -984.99807695 729.82501683 -979.4375 726 C-966.84485003 717.28666166 -954.34402257 708.4297305 -943.125 697.96875 C-941.11730124 696.10867615 -939.04483124 694.37013368 -936.9375 692.625 C-929.92342293 686.51962927 -924.10829452 678.74483362 -919 671 C-919 670.34 -919 669.68 -919 669 C-916.03 669.33 -913.06 669.66 -910 670 C-906.32838102 680.90011884 -904.38225013 689.12227231 -909 700 C-911.10701857 703.51701837 -913.49632593 706.75684414 -916 710 C-917.14772264 711.49855489 -918.29371217 712.99843967 -919.4375 714.5 C-919.93121094 715.1290625 -920.42492187 715.758125 -920.93359375 716.40625 C-922.18536988 717.9574332 -922.18536988 717.9574332 -922 720 C-893.91092858 719.31942778 -864.8130459 703.75754363 -843 687 C-842.10410156 686.32839844 -841.20820312 685.65679688 -840.28515625 684.96484375 C-826.43694489 674.15699158 -814.35534197 661.14378117 -804 647 C-803.17755246 645.90719886 -802.35463618 644.81475034 -801.53125 643.72265625 C-779.15751397 613.64162413 -763.65775097 578.5992426 -747.6171875 544.90234375 C-746.87686279 543.34785522 -746.87686279 543.34785522 -746.12158203 541.76196289 C-745.25164507 539.93088341 -744.38502869 538.09821964 -743.52294922 536.26342773 C-731.97792966 511.86773073 -731.97792966 511.86773073 -720 506 C-710.71518898 502.94399302 -700.52495342 504.70703347 -692 509 C-682.91052866 514.22990329 -674.85328343 520.94060143 -666.76464844 527.56884766 C-665.15517377 528.87415209 -663.52020511 530.14786095 -661.8828125 531.41796875 C-655.60427022 536.33123245 -650.59637636 541.48003001 -646 548 C-645.45601562 548.76828125 -644.91203125 549.5365625 -644.3515625 550.328125 C-636.18910542 562.84113027 -633.8123048 576.80631523 -633.6875 591.5 C-633.65849609 592.57636719 -633.62949219 593.65273438 -633.59960938 594.76171875 C-633.46709399 612.47800698 -638.26393628 629.84000018 -642.71746826 646.86383057 C-647.03711569 663.42876489 -650.73455128 679.90384485 -653.47607422 696.80859375 C-658.6988162 728.62205281 -665.61874429 755.53803851 -690.875 777.5 C-693 779 -693 779 -695 779 C-694.75443359 778.15695312 -694.75443359 778.15695312 -694.50390625 777.296875 C-693.97135003 774.86940944 -693.90101319 772.73110319 -693.9375 770.25 C-693.95103516 769.05117187 -693.95103516 769.05117187 -693.96484375 767.828125 C-693.97644531 767.22484375 -693.98804688 766.6215625 -694 766 C-699.12181815 767.31023255 -701.39532255 769.20940795 -705 773 C-714.03217984 782.44520707 -722.93927044 790.98046624 -734 798 C-734.64130859 798.41056641 -735.28261719 798.82113281 -735.94335938 799.24414062 C-769.37499626 820.39476804 -809.85688976 832.67204477 -849.29296875 834.65625 C-851.97218166 834.99646751 -853.69333271 835.63471721 -856 837 C-855.21625 837.4125 -854.4325 837.825 -853.625 838.25 C-850.94108344 840.0392777 -850.11901051 841.04988139 -849 844 C-848.25234375 843.93039062 -847.5046875 843.86078125 -846.734375 843.7890625 C-843.32287749 844.05223516 -842.49978173 844.85643903 -840.25 847.375 C-836.49200566 851.98262784 -835.70635032 856.14535958 -836 862 C-836.15984375 862.92683594 -836.3196875 863.85367188 -836.484375 864.80859375 C-838.71205448 878.59657963 -837.26302614 893.90358551 -831.09765625 906.46875 C-825.8477574 918.57527832 -823.28743059 932.25596056 -820 945 C-820.77730469 945.30679688 -821.55460938 945.61359375 -822.35546875 945.9296875 C-824.64010798 946.85434208 -826.81376975 947.86639913 -829 949 C-829 947.35 -829 945.7 -829 944 C-836.47304168 939.70300103 -846.7828272 942.2093442 -855 943 C-855.66 942.01 -856.32 941.02 -857 940 C-857.86625 940.185625 -858.7325 940.37125 -859.625 940.5625 C-864.72803497 941.32900525 -869.78329624 940.63848705 -874.890625 940.15625 C-878.03412639 939.80946341 -878.03412639 939.80946341 -881 941 C-880.95875 939.948125 -880.9175 938.89625 -880.875 937.8125 C-880.99753858 934.07507329 -881.0853377 932.16335511 -883 929 C-884.0621875 928.28070312 -885.124375 927.56140625 -886.21875 926.8203125 C-890.32840658 923.95678944 -893.03271617 920.53930566 -895.9375 916.5 C-896.44966064 915.80092529 -896.96182129 915.10185059 -897.48950195 914.3815918 C-910.03245544 897.05662501 -910.03245544 897.05662501 -911 890 C-911.99 890 -912.98 890 -914 890 C-913.67 887.69 -913.34 885.38 -913 883 C-913.99 883 -914.98 883 -916 883 C-916.054138 880.75026553 -916.09285491 878.50015617 -916.125 876.25 C-916.15980469 874.37054687 -916.15980469 874.37054687 -916.1953125 872.453125 C-916.01537302 869.27179508 -915.68998582 867.63478104 -914 865 C-914.66 865 -915.32 865 -916 865 C-916.061875 864.13375 -916.12375 863.2675 -916.1875 862.375 C-917.23122656 858.03952044 -918.99278171 856.23854277 -922 853 C-920.35 854.32 -918.7 855.64 -917 857 C-916.85900879 856.39003174 -916.71801758 855.78006348 -916.57275391 855.15161133 C-915.92758577 852.37094196 -915.27635271 849.59172688 -914.625 846.8125 C-914.40328125 845.85279297 -914.1815625 844.89308594 -913.953125 843.90429688 C-913.73398437 842.97294922 -913.51484375 842.04160156 -913.2890625 841.08203125 C-912.99056396 839.80162964 -912.99056396 839.80162964 -912.68603516 838.49536133 C-912 836 -912 836 -910.91943359 833.36987305 C-909.81915003 830.95751586 -909.81915003 830.95751586 -910 828 C-911.47803204 827.68217683 -912.95751712 827.37111135 -914.4375 827.0625 C-915.26121094 826.88847656 -916.08492187 826.71445312 -916.93359375 826.53515625 C-925.36944677 825.06291184 -933.53721755 824.89442661 -942.08641434 824.98596573 C-944.27557896 825.00831286 -946.46465288 825.02218192 -948.65390015 825.03366089 C-954.87274399 825.06693332 -961.09143947 825.1083887 -967.31005859 825.17138672 C-971.13300563 825.20951007 -974.95580193 825.23220008 -978.77891159 825.24569321 C-980.21792178 825.25362886 -981.65691466 825.26706227 -983.09581375 825.28662491 C-1002.57068311 825.54668932 -1022.50769992 821.62628275 -1037.25390625 807.90234375 C-1046.47339875 797.98307953 -1052.13994057 786.1211677 -1055.2109375 773.00390625 C-1055.51922485 771.687854 -1055.51922485 771.687854 -1055.83374023 770.34521484 C-1056.22577069 768.61951993 -1056.59883478 766.88936601 -1056.94946289 765.15478516 C-1058.29566193 759.10741135 -1060.56282888 754.41433718 -1065 750 C-1068.77963381 747.72739722 -1071.58623351 747.55862335 -1076 748 C-1082.63310813 749.93063438 -1086.69508898 754.54828165 -1091.36328125 759.40234375 C-1100.13867304 768.04772973 -1111.58359158 776.03286157 -1124.25 776.25 C-1133.49491385 776.09081605 -1138.7636062 773.1305794 -1145.48046875 766.78515625 C-1151.59204398 760.02925991 -1155.97291041 752.06252318 -1160.125 744 C-1164.82324069 735.26920939 -1171.76924215 731.25061634 -1181 728 C-1186.66832261 726.5479297 -1192.48387121 726.05479929 -1198.2890625 725.4296875 C-1246.18307566 720.12620103 -1290.14864789 698.45366452 -1321.0234375 660.82421875 C-1351.37614627 622.54775003 -1365.16643253 574.47593424 -1360.11621094 525.95092773 C-1356.45488205 495.9056497 -1345.89609439 466.24865558 -1333 439 C-1332.53335937 438.01306152 -1332.06671875 437.02612305 -1331.5859375 436.00927734 C-1319.16358536 409.98959792 -1303.80875969 386.12838852 -1286.8125 362.890625 C-1284.44904019 359.64958025 -1282.19562294 356.35676968 -1280 353 C-1283.58359859 354.33018456 -1286.6911049 355.92627579 -1289.9140625 357.9765625 C-1290.83421143 358.56066895 -1291.75436035 359.14477539 -1292.70239258 359.74658203 C-1293.66685303 360.36645996 -1294.63131348 360.98633789 -1295.625 361.625 C-1296.61975342 362.26163574 -1297.61450684 362.89827148 -1298.6394043 363.55419922 C-1304.31477539 367.20794358 -1309.88028777 370.92235563 -1315.27734375 374.9765625 C-1318.06120884 377.04548949 -1320.89258811 379.03005988 -1323.73925781 381.01098633 C-1339.78211164 392.19587036 -1355.22678029 404.17328813 -1370.31298828 416.61279297 C-1371.83643159 417.8654999 -1373.36886635 419.1072526 -1374.90234375 420.34765625 C-1386.74881746 429.93268858 -1398.13661502 440.01106187 -1409.26879883 450.41235352 C-1410.48954442 451.53187243 -1411.72530559 452.63512518 -1412.97143555 453.72631836 C-1421.24430481 461.00286221 -1428.97325859 468.82245974 -1436.75073242 476.62036133 C-1439.18881632 479.06381922 -1441.63221789 481.50186807 -1444.07617188 483.93945312 C-1445.64875833 485.51270021 -1447.22103464 487.08625737 -1448.79296875 488.66015625 C-1449.87290352 489.73705467 -1449.87290352 489.73705467 -1450.97465515 490.83570862 C-1454.96210406 494.84142809 -1458.78178623 498.93928373 -1462.46507263 503.22695923 C-1464.85948891 505.99282149 -1467.37266524 508.6446903 -1469.875 511.3125 C-1474.36189457 516.13582423 -1478.62289013 521.08155978 -1482.74609375 526.22265625 C-1484.71416799 528.64778759 -1486.73288236 531.01761489 -1488.77832031 533.37744141 C-1495.98836819 541.72990803 -1502.54088404 550.55472279 -1509.09472656 559.42578125 C-1510.93737858 561.91539208 -1512.79132175 564.39616729 -1514.6484375 566.875 C-1522.47100909 577.35014523 -1529.89378429 588.02699151 -1537 599 C-1537.47614746 599.73089844 -1537.95229492 600.46179688 -1538.44287109 601.21484375 C-1555.76674218 627.88317691 -1571.10957013 655.7158821 -1584.15234375 684.71484375 C-1586.1190104 689.08421907 -1588.13621638 693.42546758 -1590.19140625 697.75390625 C-1597.4055125 712.97692033 -1603.9780159 728.28512574 -1609.89306641 744.05859375 C-1611.05807905 747.15433093 -1612.26184729 750.23311286 -1613.48901367 753.3046875 C-1615.34232226 758.63205898 -1616.14395651 763.03067331 -1615.8515625 768.671875 C-1615.74677263 777.53557747 -1617.5493247 785.65653545 -1619.56149292 794.25384521 C-1620.63828409 798.86998433 -1621.6557377 803.49909662 -1622.671875 808.12890625 C-1622.97695229 809.51553467 -1622.97695229 809.51553467 -1623.28819275 810.93017578 C-1626.17040312 824.18601448 -1628.20779043 837.55742478 -1630 851 C-1630.1868335 852.37526855 -1630.1868335 852.37526855 -1630.37744141 853.77832031 C-1634.68557438 886.59671994 -1638.91576421 933.96628877 -1626 965 C-1625.01 965.33 -1624.02 965.66 -1623 966 C-1622.34 965.67 -1621.68 965.34 -1621 965 C-1620.9537146 965.82721558 -1620.9537146 965.82721558 -1620.90649414 966.67114258 C-1620.30443367 974.56668987 -1618.44877498 982.04889721 -1616.4375 989.6875 C-1616.2601532 990.36707764 -1616.0828064 991.04665527 -1615.90008545 991.74682617 C-1602.94307951 1041.1809191 -1579.55325453 1088.20607229 -1545.3984375 1126.43408203 C-1544.05766604 1127.93542772 -1542.73160289 1129.44986959 -1541.40625 1130.96484375 C-1529.96701243 1143.79953048 -1517.33522638 1155.49815136 -1503.58056641 1165.80908203 C-1502.09662754 1166.92719353 -1500.63155413 1168.07021904 -1499.16796875 1169.21484375 C-1484.50728255 1180.55380804 -1468.4917517 1190.13796656 -1452.52978516 1199.51171875 C-1450.83887192 1200.50648878 -1449.15104637 1201.50652543 -1447.46630859 1202.51171875 C-1412.86134763 1223.14606221 -1374.70603101 1237.326749 -1335.5625 1246.625 C-1333.94601562 1247.01510254 -1333.94601562 1247.01510254 -1332.296875 1247.41308594 C-1325.1608959 1249.07850614 -1325.1608959 1249.07850614 -1318 1248 C-1317.34 1247.34 -1316.68 1246.68 -1316 1246 C-1308.26643213 1245.28128234 -1300.31105736 1246.16800811 -1292.59375 1246.83984375 C-1291.5483606 1246.92625626 -1290.50297119 1247.01266876 -1289.42590332 1247.10169983 C-1286.11686174 1247.37566109 -1282.8084064 1247.65597993 -1279.5 1247.9375 C-1225.18929775 1252.53060142 -1168.85364556 1254.80163446 -1117 1235 C-1117 1233.68 -1117 1232.36 -1117 1231 C-1117.66 1230.67 -1118.32 1230.34 -1119 1230 C-1119 1229.34 -1119 1228.68 -1119 1228 C-1118.23896973 1227.79020508 -1117.47793945 1227.58041016 -1116.69384766 1227.36425781 C-1058.63028883 1211.23405076 -1002.98378477 1187.71688781 -950.76416016 1157.58496094 C-948.08655248 1156.04962893 -945.39612602 1154.54018545 -942.69921875 1153.0390625 C-931.28089218 1146.65754128 -920.29908141 1139.75916052 -909.390625 1132.54296875 C-904.79118505 1129.50283929 -900.1353765 1126.57226264 -895.4375 1123.6875 C-888.68634863 1119.51802159 -882.2499216 1114.99654916 -875.83789062 1110.32714844 C-873.22150785 1108.43784759 -870.57746684 1106.58889836 -867.93432617 1104.73730469 C-853.35692864 1094.51920484 -839.03485576 1083.95144048 -825 1073 C-824.45601562 1072.57686523 -823.91203125 1072.15373047 -823.3515625 1071.71777344 C-814.40482353 1064.75519029 -805.58348802 1057.64438554 -796.80419922 1050.47216797 C-795.21726954 1049.17728489 -793.62651263 1047.88709522 -792.03515625 1046.59765625 C-785.18851863 1041.037905 -778.49181469 1035.3143188 -771.81152344 1029.55712891 C-770.00637604 1028.00548064 -768.19561441 1026.46066415 -766.3828125 1024.91796875 C-759.97245758 1019.45803949 -753.65652625 1013.92516202 -747.44921875 1008.234375 C-744.67500128 1005.70350994 -741.85292879 1003.23360609 -739.01953125 1000.76953125 C-734.97333617 997.22421912 -730.99316378 993.60477095 -727 990 C-725.33359149 988.49971321 -723.66692647 986.99971128 -722 985.5 C-720.75863281 984.38238281 -720.75863281 984.38238281 -719.4921875 983.2421875 C-717.85260121 981.76707382 -716.21200345 980.29308348 -714.5703125 978.8203125 C-709.97969436 974.69902273 -705.41550032 970.55129287 -700.875 966.375 C-697.63782784 963.39781719 -694.38862271 960.44047144 -691.0625 957.5625 C-687.47041211 954.45035705 -683.98451718 951.23124165 -680.5 948 C-676.36785104 944.16888409 -672.20961192 940.38364482 -667.9453125 936.69921875 C-665.6633471 934.70593572 -663.42771426 932.66506973 -661.1875 930.625 C-657.74621795 927.51471149 -654.23678702 924.53521688 -650.625 921.625 C-646.6117345 918.38047268 -642.77586874 915.01250676 -639 911.5 C-634.44405527 907.2660379 -629.74728841 903.27068335 -624.90234375 899.37109375 C-621.61037112 896.68168946 -618.39992018 893.90832914 -615.1875 891.125 C-609.43887465 886.16181328 -603.54500613 881.42634671 -597.546875 876.76953125 C-595.16176827 874.91627439 -592.79917008 873.03917847 -590.453125 871.13671875 C-580.53701276 863.09579454 -570.32954123 855.50032552 -560 848 C-559.19498047 847.41476562 -558.38996094 846.82953125 -557.56054688 846.2265625 C-549.63927865 840.47261464 -541.70880599 834.73565405 -533.65234375 829.171875 C-532.04647469 828.10237962 -532.04647469 828.10237962 -531 827 C-530.94766476 824.31054997 -530.9588142 821.64531653 -531.0078125 818.95703125 C-531.02827577 817.19166363 -531.04749849 815.42628133 -531.06567383 813.66088867 C-531.08133896 812.23805069 -531.08133896 812.23805069 -531.09732056 810.78646851 C-532.0307047 710.50067103 -519.17515446 607.70651872 -441 354 C-440.7316333 353.35389771 -440.4632666 352.70779541 -440.18676758 352.04211426 C-423.13932569 311.06338522 -403.24558647 271.22209754 -379 234 C-386.47925503 231.89451288 -394.06612905 230.90146464 -401.75390625 229.86328125 C-403.22829133 229.66121441 -404.70264565 229.45892299 -406.17697144 229.25642395 C-410.97106717 228.6003614 -415.7666604 227.9556721 -420.5625 227.3125 C-421.38505909 227.20191002 -422.20761818 227.09132004 -423.0551033 226.97737885 C-476.23880327 219.82959182 -529.38721123 213.84124158 -583 211 C-584.11131287 210.94048157 -585.22262573 210.88096313 -586.36761475 210.81964111 C-672.62883994 206.26297921 -759.89193607 208.46196185 -846 215 Z M-790.6875 649.21484375 C-792.21748315 651.05754305 -793.71833728 652.92485925 -795.1875 654.81640625 C-799.60180897 660.48406366 -803.90871745 664.7817499 -809.83984375 668.8359375 C-813.68656377 671.47015615 -817.40295061 674.25615518 -821.125 677.0625 C-821.81021729 677.57707764 -822.49543457 678.09165527 -823.20141602 678.62182617 C-828.17557103 682.36188703 -833.11387202 686.14538792 -838 690 C-833.8185585 692.09072075 -827.80439276 688.95226793 -823.41625977 687.66967773 C-821.34419091 687.07164649 -819.26420504 686.51135769 -817.18164062 685.95117188 C-810.07302972 683.93769165 -804.9551056 682.02464921 -800.43139648 675.85766602 C-798.16645372 672.91822384 -795.64505702 671.67974349 -792.375 669.9375 C-791.77888916 669.61225342 -791.18277832 669.28700684 -790.56860352 668.9519043 C-788.11844701 667.62146899 -785.64601792 666.33586719 -783.17236328 665.04980469 C-781.42534152 664.14133435 -779.68137544 663.22699541 -777.9375 662.3125 C-776.91527344 661.79300781 -775.89304687 661.27351562 -774.83984375 660.73828125 C-771.73086686 658.83526238 -769.47584031 656.66119734 -767 654 C-766.67 653.67 -766.34 653.34 -766 653 C-765.52123954 649.58028246 -765.37884308 647.05888494 -767.1640625 644.015625 C-769.36377899 641.28572044 -771.27069751 639.35530121 -774.4375 637.8125 C-781.82065018 638.3527305 -786.13227313 643.9901832 -790.6875 649.21484375 Z M-315 785 C-311 786 -311 786 -311 786 Z M-315 792 C-315 792.33 -315 792.66 -315 793 C-313.35 793 -311.7 793 -310 793 C-310 792.67 -310 792.34 -310 792 C-311.65 792 -313.3 792 -315 792 Z M-383.66796875 810.43359375 C-385.00698242 810.9121582 -385.00698242 810.9121582 -386.37304688 811.40039062 C-387.30181641 811.74263672 -388.23058594 812.08488281 -389.1875 812.4375 C-390.12787109 812.77587891 -391.06824219 813.11425781 -392.03710938 813.46289062 C-394.36114742 814.30048809 -396.68178235 815.14645283 -399 816 C-399 816.99 -399 817.98 -399 819 C-391.41 816.03 -383.82 813.06 -376 810 C-379.5020254 808.8326582 -380.29616038 809.20943402 -383.66796875 810.43359375 Z M-875 835 C-875 835.33 -875 835.66 -875 836 C-873.35 836 -871.7 836 -870 836 C-870 835.67 -870 835.34 -870 835 C-871.65 835 -873.3 835 -875 835 Z M-870 836 C-870 836.33 -870 836.66 -870 837 C-867.69 837 -865.38 837 -863 837 C-863 836.67 -863 836.34 -863 836 C-865.31 836 -867.62 836 -870 836 Z M-917 857 C-916.67 857.99 -916.34 858.98 -916 860 C-915.01 859.67 -914.02 859.34 -913 859 C-914.32 858.34 -915.64 857.68 -917 857 Z M-1051 1974 C-1048.25601469 1975.82932354 -1046.27295949 1976.67804012 -1043.17578125 1977.65625 C-1042.22896484 1977.95660156 -1041.28214844 1978.25695313 -1040.30664062 1978.56640625 C-1039.31857422 1978.87449219 -1038.33050781 1979.18257812 -1037.3125 1979.5 C-1036.34376953 1979.80808594 -1035.37503906 1980.11617187 -1034.37695312 1980.43359375 C-1024.30637928 1984.2441476 -1024.30637928 1984.2441476 -1014 1984 C-1032.11305619 1977.01648773 -1032.11305619 1977.01648773 -1051 1974 Z " fill="#63318A" transform="translate(1784,1)"/>
<path d="M0 0 C8.82078323 2.37144983 17.82531738 2.93496818 26.90039062 3.6796875 C38.78700512 4.78250466 51.11905608 6.38880438 60 15 C60.55171875 15.52464844 61.1034375 16.04929687 61.671875 16.58984375 C68.11454847 23.36740867 70.26578624 32.03989557 72 41 C92.21635304 44.16765786 108.12075899 39.08598651 126.65966797 31.35400391 C128.21451904 30.7069751 128.21451904 30.7069751 129.80078125 30.046875 C131.19550659 29.45664551 131.19550659 29.45664551 132.6184082 28.85449219 C135 28 135 28 138 28 C137.36408335 35.92467358 136.11782195 43.68322531 134.6875 51.5 C134.38682617 53.23830078 134.38682617 53.23830078 134.08007812 55.01171875 C132.22792835 65.16127012 129.89034386 73.59153118 122.875 81.3125 C121.89222698 82.42374763 120.91181382 83.53708611 119.93359375 84.65234375 C119.4422998 85.20776855 118.95100586 85.76319336 118.44482422 86.33544922 C88.64121007 120.67154946 72.73197677 164.04115715 56.46063232 205.7958374 C55.62312037 207.94476484 54.78448772 210.0932559 53.94464111 212.24127197 C44.20114307 236.40538712 44.20114307 236.40538712 37.6875 261.5625 C37.53216797 262.35978516 37.37683594 263.15707031 37.21679688 263.97851562 C35.67639789 272.10362445 34.8479904 280.17331284 34.76171875 288.44140625 C34.75219681 289.23033768 34.74267487 290.0192691 34.73286438 290.83210754 C34.7083216 293.40894257 34.69582325 295.98556332 34.6875 298.5625 C34.68355225 299.4526178 34.67960449 300.3427356 34.67553711 301.25982666 C34.64395193 316.69777173 35.72397181 331.86489562 37.5769043 347.18579102 C38.53390876 355.21392832 39.18882406 363.12742436 39.21875 371.21875 C39.22374512 371.99342621 39.22874023 372.76810242 39.23388672 373.56625366 C39.15421815 383.99216633 36.58902119 392.67413481 29.13671875 400.1953125 C20.72733279 407.2979383 10.38354238 408.35940957 -0.265625 408.24609375 C-1.22317688 408.23984482 -2.18072876 408.23359589 -3.16729736 408.22715759 C-13.09694552 408.09299934 -22.89113612 407.19565103 -32.75 406.0625 C-33.69569855 405.95729034 -34.64139709 405.85208069 -35.61575317 405.74368286 C-53.45273345 403.74753696 -71.19920162 401.16390253 -88.9375 398.4375 C-90.802995 398.15351852 -90.802995 398.15351852 -92.70617676 397.86380005 C-140.22380473 390.58254317 -140.22380473 390.58254317 -155 372 C-179.55733781 333.86067089 -169.50472884 267.54655283 -160.72265625 225.7578125 C-155.85479099 203.81614305 -148.94191333 182.18432724 -139 162 C-138.57380371 161.12456543 -138.14760742 160.24913086 -137.70849609 159.34716797 C-125.26582506 134.00098624 -109.5592752 111.32092115 -90 91 C-89.28215332 90.24428711 -88.56430664 89.48857422 -87.82470703 88.70996094 C-78.6018662 79.03334944 -70.03255413 70.09262576 -58 64 C-55.61990775 62.78023574 -53.24698316 61.54812559 -50.875 60.3125 C-49.82054687 59.79300781 -48.76609375 59.27351562 -47.6796875 58.73828125 C-44.84519391 57.19802334 -44.84519391 57.19802334 -43.5703125 54.41796875 C-41.75117293 51.61685583 -40.37774842 51.05072484 -37.16308594 50.32763672 C-31.68468096 49.49783768 -26.15083449 49.21872023 -20.625 48.87695312 C-14.33527457 48.41642574 -8.86967266 47.32857906 -3 45 C-3 40.70606218 -4.21329671 38.34956285 -7.0625 35.3125 C-9.84965837 32.64740696 -12.75872256 30.45046681 -15.984375 28.359375 C-16.69456787 27.89619873 -17.40476074 27.43302246 -18.13647461 26.95581055 C-19.55937709 26.04472512 -20.99753031 25.1569239 -22.45141602 24.29614258 C-27.21402161 21.27463096 -29.10805577 18.65937438 -30.55786133 13.19165039 C-31.11390842 10.43536396 -31.50982547 7.74475753 -31.6875 4.9375 C-31.75324219 3.99777344 -31.81898438 3.05804687 -31.88671875 2.08984375 C-31.94279297 1.05537109 -31.94279297 1.05537109 -32 0 C-31.44828125 0.15984375 -30.8965625 0.3196875 -30.328125 0.484375 C-24.51707226 1.77138668 -18.33679358 1.85364528 -12.875 -0.625 C-8.18508797 -2.65952395 -4.72882276 -1.36034627 0 0 Z " fill="#63318A" transform="translate(568,758)"/>
<path d="M0 0 C4.71144293 0.0961519 7.12553079 0.69568265 10.5 4.0625 C11.68554996 5.3579685 12.8522679 6.67091069 14 8 C14.77923828 8.88365234 14.77923828 8.88365234 15.57421875 9.78515625 C16.69755492 11.06624907 17.8142628 12.35317162 18.92578125 13.64453125 C21.01435124 16.01629717 23.15532807 18.32888367 25.31201172 20.63842773 C30.33686148 26.0204013 35.11132227 31.50850099 39.72265625 37.25390625 C42.21826626 40.26319242 44.83768467 43.13935389 47.5 46 C51.79736554 50.61883081 55.82771334 55.39220446 59.78515625 60.30859375 C63.37560806 64.67159427 67.18059741 68.83748323 71 73 C71.41130926 66.21339722 70.01147961 60.99406503 67.75 54.625 C67.29947266 53.30242188 67.29947266 53.30242188 66.83984375 51.953125 C64.97632405 46.54495293 62.91139396 41.26182322 60.64550781 36.00927734 C60 34 60 34 61 32 C88.02922244 35.62089004 108.67599204 41.44696369 129 60 C129.65355469 60.58265625 130.30710937 61.1653125 130.98046875 61.765625 C137.05812124 67.48237176 141.94911873 74.38808584 147 81 C147.51852539 81.67369629 148.03705078 82.34739258 148.57128906 83.04150391 C150.15842875 85.10595323 151.73686035 87.1767639 153.3125 89.25 C153.79162842 89.87447021 154.27075684 90.49894043 154.7644043 91.14233398 C162.06709754 100.8350455 167.11328956 111.24762722 171.95898438 122.3112793 C172.99162865 124.66839157 174.03397743 127.02101107 175.078125 129.37304688 C185.87542982 153.78357209 185.87542982 153.78357209 189.8125 166.4375 C190.21082031 167.69433594 190.60914063 168.95117188 191.01953125 170.24609375 C193.41811868 179.42953009 193.11910274 188.5868574 193.0625 198 C193.05747576 199.45702971 193.05291449 200.9140611 193.04882812 202.37109375 C193.03789388 205.9140977 193.02068 209.45703797 193 213 C192.45730469 212.57847656 191.91460938 212.15695312 191.35546875 211.72265625 C190.64003906 211.17480469 189.92460938 210.62695312 189.1875 210.0625 C188.47980469 209.51722656 187.77210938 208.97195313 187.04296875 208.41015625 C183.04478277 205.65041411 179.478716 205.86558025 174.75 205.875 C173.46609375 205.87242187 172.1821875 205.86984375 170.859375 205.8671875 C167.16059245 205.99447354 163.65832245 206.46683641 160 207 C143.77081616 207.88646802 143.77081616 207.88646802 138 204 C131.82762329 198.06770522 128.06482354 191.79938435 124.5625 184.0625 C118.79263126 172.00950734 113.13580815 162.8030591 100 158 C96.7490834 156.88070301 96.7490834 156.88070301 94 157 C91.85652366 158.58965949 91.09472828 159.52721202 90.56640625 162.1640625 C90.55151324 171.54665988 93.53108667 178.0560204 99.8828125 184.8984375 C105.43235549 190.40702445 111.30168705 195.55449634 117.25 200.625 C119.92681734 202.92327751 122.11093437 205.3092418 124.3125 208.0625 C127.72162145 212.1049674 131.54737805 214.2556002 136.25390625 216.578125 C139 218 139 218 141.9375 220.0234375 C145.0866966 222.0559547 147.8805693 223.21539947 151.4375 224.375 C152.37348022 224.68244141 152.37348022 224.68244141 153.32836914 224.99609375 C157.45398624 226.31109422 161.61164118 227.42771526 165.8125 228.4765625 C166.8238501 228.73002441 167.8352002 228.98348633 168.87719727 229.24462891 C170.87425999 229.73756166 172.8747033 230.21704966 174.87866211 230.68115234 C181.19934206 232.2274528 187.28258938 234.28258938 192 239 C192.62002186 241.91410273 192.77957784 243.18542028 192 246 C187.60991108 252.47587778 182.39265973 257.36636497 175 260 C173.96875 260.391875 172.9375 260.78375 171.875 261.1875 C146.79940421 266.44528621 124.30712489 258.84577425 103.37890625 245.38671875 C93.70587531 239.32937958 83.24642133 234.70886618 72.93457031 229.85986328 C50.25485979 219.16539927 29.74230689 207.5998986 19.25390625 183.59375 C15.72351372 173.47549102 14.37672552 162.6880031 15 152 C15.680625 152.06058594 16.36125 152.12117187 17.0625 152.18359375 C25.70092349 152.93026599 34.34545949 153.48380279 43 154 C39.97010193 146.40431084 36.57551211 140.91065218 31 135 C5.39772398 106.48265945 -11.56391516 74.65846576 -10.15673828 35.60400391 C-9.45307344 23.91352232 -7.57811757 9.23583079 0 0 Z " fill="#63318A" transform="translate(712,820)"/>
<path d="M0 0 C-1.35086012 8.00756556 -3.57682432 15.70906366 -5.94116211 23.46191406 C-6.56938457 25.52258248 -7.19048501 27.58530041 -7.81054688 29.6484375 C-10.84370814 39.68741628 -10.84370814 39.68741628 -12 42 C-13.45903258 41.69078116 -14.91720722 41.37751201 -16.375 41.0625 C-17.18710937 40.88847656 -17.99921875 40.71445312 -18.8359375 40.53515625 C-21 40 -21 40 -23 39 C-22.64413093 30.68002659 -21.90997914 22.53170298 -20.5625 14.3125 C-20.44028076 13.54695801 -20.31806152 12.78141602 -20.19213867 11.99267578 C-18.84897918 4.15714238 -18.84897918 4.15714238 -17 2 C-13.84765625 1.171875 -13.84765625 1.171875 -10.0625 0.75 C-8.81597656 0.60046875 -7.56945312 0.4509375 -6.28515625 0.296875 C-3 0 -3 0 0 0 Z " fill="#63318A" transform="translate(910,648)"/>
</svg>
