<svg width="30" height="29" viewBox="0 0 30 29" fill="none" xmlns="http://www.w3.org/2000/svg">
<g clip-path="url(#paint0_diamond_1484_1649_clip_path)" data-figma-skip-parse="true"><g transform="matrix(-0.02048 0.021834 -0.000706726 -0.0186867 24.8965 10.7819)"><rect x="0" y="0" width="1058.72" height="1437.08" fill="url(#paint0_diamond_1484_1649)" opacity="1" shape-rendering="crispEdges"/><rect x="0" y="0" width="1058.72" height="1437.08" transform="scale(1 -1)" fill="url(#paint0_diamond_1484_1649)" opacity="1" shape-rendering="crispEdges"/><rect x="0" y="0" width="1058.72" height="1437.08" transform="scale(-1 1)" fill="url(#paint0_diamond_1484_1649)" opacity="1" shape-rendering="crispEdges"/><rect x="0" y="0" width="1058.72" height="1437.08" transform="scale(-1)" fill="url(#paint0_diamond_1484_1649)" opacity="1" shape-rendering="crispEdges"/></g></g><path d="M6.0119 7.18896V6.68896H5.61377L5.5246 7.07699L6.0119 7.18896ZM6.49832 23.3365L6.13467 23.6796L6.49832 23.3365ZM24 23.689L24.3763 24.0182L24 23.689ZM24.0153 7.18896L24.4813 7.00784L24.3574 6.68896H24.0153V7.18896ZM6.0119 7.18896L5.5246 7.07699C5.13384 8.77751 4.70495 10.326 4.33461 11.8216C3.96796 13.3023 3.66456 14.71 3.54964 16.0575C3.31698 18.7857 3.85951 21.2686 6.13467 23.6796L6.49832 23.3365L6.86197 22.9933C4.81628 20.8255 4.33299 18.6405 4.54602 16.1425C4.65396 14.8769 4.94128 13.532 5.3053 12.0619C5.66563 10.6067 6.10735 9.00619 6.4992 7.30094L6.0119 7.18896ZM6.49832 23.3365L6.13467 23.6796C11.9418 29.8334 20.7006 28.219 24.3763 24.0182L24 23.689L23.6237 23.3597C20.2994 27.1589 12.2265 28.6781 6.86197 22.9933L6.49832 23.3365ZM24 23.689L24.3763 24.0182C25.5781 22.6447 26.1596 20.8686 26.3767 19.0233C26.594 17.1765 26.451 15.2237 26.1706 13.4532C25.8898 11.68 25.4682 10.0715 25.1176 8.90752C24.9421 8.32494 24.7839 7.85226 24.6692 7.52428C24.6118 7.36025 24.5653 7.23232 24.5329 7.14482C24.5167 7.10106 24.5041 7.06741 24.4953 7.0444C24.491 7.0329 24.4876 7.02405 24.4852 7.01794C24.4841 7.01488 24.4831 7.0125 24.4825 7.01082C24.4822 7.00997 24.4819 7.0093 24.4817 7.00881C24.4816 7.00856 24.4815 7.00832 24.4815 7.00819C24.4814 7.00799 24.4813 7.00784 24.0153 7.18896C23.5493 7.37009 23.5492 7.37002 23.5492 7.37C23.5492 7.37005 23.5492 7.37007 23.5493 7.37017C23.5494 7.37036 23.5495 7.37073 23.5497 7.37128C23.5501 7.37236 23.5508 7.37413 23.5518 7.37657C23.5536 7.38147 23.5565 7.38907 23.5604 7.39932C23.5682 7.41981 23.5799 7.45087 23.5951 7.49195C23.6255 7.57412 23.67 7.69635 23.7252 7.85434C23.8357 8.17038 23.9893 8.6291 24.1601 9.19598C24.502 10.3309 24.9112 11.8937 25.1829 13.6096C25.4551 15.3282 25.5864 17.1825 25.3836 18.9064C25.1806 20.6317 24.6474 22.1898 23.6237 23.3597L24 23.689ZM24.0153 7.18896V6.68896H6.0119V7.18896V7.68896H24.0153V7.18896Z" data-figma-gradient-fill="{&#34;type&#34;:&#34;GRADIENT_DIAMOND&#34;,&#34;stops&#34;:[{&#34;color&#34;:{&#34;r&#34;:0.65454483032226562,&#34;g&#34;:0.12514296174049377,&#34;b&#34;:0.91924577951431274,&#34;a&#34;:0.73000001907348633},&#34;position&#34;:0.40384614467620850},{&#34;color&#34;:{&#34;r&#34;:0.23033502697944641,&#34;g&#34;:0.019933830946683884,&#34;b&#34;:0.76252627372741699,&#34;a&#34;:0.64999997615814209},&#34;position&#34;:0.74038463830947876},{&#34;color&#34;:{&#34;r&#34;:0.0761718750,&#34;g&#34;:0.0021025685127824545,&#34;b&#34;:0.0018796920776367188,&#34;a&#34;:1.0},&#34;position&#34;:1.0}],&#34;stopsVar&#34;:[{&#34;color&#34;:{&#34;r&#34;:0.65454483032226562,&#34;g&#34;:0.12514296174049377,&#34;b&#34;:0.91924577951431274,&#34;a&#34;:0.73000001907348633},&#34;position&#34;:0.40384614467620850},{&#34;color&#34;:{&#34;r&#34;:0.23033502697944641,&#34;g&#34;:0.019933830946683884,&#34;b&#34;:0.76252627372741699,&#34;a&#34;:0.64999997615814209},&#34;position&#34;:0.74038463830947876},{&#34;color&#34;:{&#34;r&#34;:0.0761718750,&#34;g&#34;:0.0021025685127824545,&#34;b&#34;:0.0018796920776367188,&#34;a&#34;:1.0},&#34;position&#34;:1.0}],&#34;transform&#34;:{&#34;m00&#34;:-40.960052490234375,&#34;m01&#34;:-1.4134516716003418,&#34;m02&#34;:46.083221435546875,&#34;m10&#34;:43.668022155761719,&#34;m11&#34;:-37.373317718505859,&#34;m12&#34;:7.6345577239990234},&#34;opacity&#34;:1.0,&#34;blendMode&#34;:&#34;NORMAL&#34;,&#34;visible&#34;:true}"/>
<g clip-path="url(#paint1_diamond_1484_1649_clip_path)" data-figma-skip-parse="true"><g transform="matrix(-0.00885081 0.00673713 -0.000305424 -0.00576598 19.0308 2.10864)"><rect x="0" y="0" width="1124.37" height="1624.41" fill="url(#paint1_diamond_1484_1649)" opacity="1" shape-rendering="crispEdges"/><rect x="0" y="0" width="1124.37" height="1624.41" transform="scale(1 -1)" fill="url(#paint1_diamond_1484_1649)" opacity="1" shape-rendering="crispEdges"/><rect x="0" y="0" width="1124.37" height="1624.41" transform="scale(-1 1)" fill="url(#paint1_diamond_1484_1649)" opacity="1" shape-rendering="crispEdges"/><rect x="0" y="0" width="1124.37" height="1624.41" transform="scale(-1)" fill="url(#paint1_diamond_1484_1649)" opacity="1" shape-rendering="crispEdges"/></g></g><path d="M10 7.18887L10.4966 7.24729C10.9846 3.09897 13.0008 1.45019 14.7353 1.5012C16.5001 1.55311 18.5178 3.36224 19.0039 7.25092L19.5 7.1889L19.9961 7.12688C19.4822 3.0156 17.2499 0.574737 14.7647 0.501636C12.2492 0.427644 10.0154 2.77883 9.50342 7.13045L10 7.18887Z" data-figma-gradient-fill="{&#34;type&#34;:&#34;GRADIENT_DIAMOND&#34;,&#34;stops&#34;:[{&#34;color&#34;:{&#34;r&#34;:0.65454483032226562,&#34;g&#34;:0.12514296174049377,&#34;b&#34;:0.91924577951431274,&#34;a&#34;:0.73000001907348633},&#34;position&#34;:0.40384614467620850},{&#34;color&#34;:{&#34;r&#34;:0.23033502697944641,&#34;g&#34;:0.019933830946683884,&#34;b&#34;:0.76252627372741699,&#34;a&#34;:0.64999997615814209},&#34;position&#34;:0.74038463830947876},{&#34;color&#34;:{&#34;r&#34;:0.0761718750,&#34;g&#34;:0.0021025685127824545,&#34;b&#34;:0.0018796920776367188,&#34;a&#34;:1.0},&#34;position&#34;:1.0}],&#34;stopsVar&#34;:[{&#34;color&#34;:{&#34;r&#34;:0.65454483032226562,&#34;g&#34;:0.12514296174049377,&#34;b&#34;:0.91924577951431274,&#34;a&#34;:0.73000001907348633},&#34;position&#34;:0.40384614467620850},{&#34;color&#34;:{&#34;r&#34;:0.23033502697944641,&#34;g&#34;:0.019933830946683884,&#34;b&#34;:0.76252627372741699,&#34;a&#34;:0.64999997615814209},&#34;position&#34;:0.74038463830947876},{&#34;color&#34;:{&#34;r&#34;:0.0761718750,&#34;g&#34;:0.0021025685127824545,&#34;b&#34;:0.0018796920776367188,&#34;a&#34;:1.0},&#34;position&#34;:1.0}],&#34;transform&#34;:{&#34;m00&#34;:-17.701622009277344,&#34;m01&#34;:-0.61084848642349243,&#34;m02&#34;:28.187019348144531,&#34;m10&#34;:13.474255561828613,&#34;m11&#34;:-11.531953811645508,&#34;m12&#34;:1.1374926567077637},&#34;opacity&#34;:1.0,&#34;blendMode&#34;:&#34;NORMAL&#34;,&#34;visible&#34;:true}"/>
<g clip-path="url(#paint2_diamond_1484_1649_clip_path)" data-figma-skip-parse="true"><g transform="matrix(-0.00892838 0.00367397 -0.000308101 -0.00314437 19.0435 11.7935)"><rect x="0" y="0" width="1128.22" height="1762.3" fill="url(#paint2_diamond_1484_1649)" opacity="1" shape-rendering="crispEdges"/><rect x="0" y="0" width="1128.22" height="1762.3" transform="scale(1 -1)" fill="url(#paint2_diamond_1484_1649)" opacity="1" shape-rendering="crispEdges"/><rect x="0" y="0" width="1128.22" height="1762.3" transform="scale(-1 1)" fill="url(#paint2_diamond_1484_1649)" opacity="1" shape-rendering="crispEdges"/><rect x="0" y="0" width="1128.22" height="1762.3" transform="scale(-1)" fill="url(#paint2_diamond_1484_1649)" opacity="1" shape-rendering="crispEdges"/></g></g><path d="M19.5 11.189L19.0031 11.2447C19.1012 12.1189 18.6625 12.7962 17.8319 13.2905C16.9855 13.7941 15.7839 14.064 14.563 14.064C13.3399 14.064 12.1772 13.7933 11.4001 13.2985C11.0161 13.054 10.7441 12.7666 10.5897 12.4477C10.4384 12.1351 10.3834 11.7589 10.486 11.2975L9.99793 11.189L9.50985 11.0804C9.36231 11.744 9.43248 12.3522 9.68963 12.8834C9.9437 13.4082 10.3635 13.824 10.8629 14.142C11.8526 14.7721 13.2225 15.064 14.563 15.064C15.9059 15.064 17.2989 14.7713 18.3432 14.1499C19.4032 13.5192 20.1512 12.509 19.9969 11.1332L19.5 11.189Z" data-figma-gradient-fill="{&#34;type&#34;:&#34;GRADIENT_DIAMOND&#34;,&#34;stops&#34;:[{&#34;color&#34;:{&#34;r&#34;:0.65454483032226562,&#34;g&#34;:0.12514296174049377,&#34;b&#34;:0.91924577951431274,&#34;a&#34;:0.73000001907348633},&#34;position&#34;:0.40384614467620850},{&#34;color&#34;:{&#34;r&#34;:0.23033502697944641,&#34;g&#34;:0.019933830946683884,&#34;b&#34;:0.76252627372741699,&#34;a&#34;:0.64999997615814209},&#34;position&#34;:0.74038463830947876},{&#34;color&#34;:{&#34;r&#34;:0.0761718750,&#34;g&#34;:0.0021025685127824545,&#34;b&#34;:0.0018796920776367188,&#34;a&#34;:1.0},&#34;position&#34;:1.0}],&#34;stopsVar&#34;:[{&#34;color&#34;:{&#34;r&#34;:0.65454483032226562,&#34;g&#34;:0.12514296174049377,&#34;b&#34;:0.91924577951431274,&#34;a&#34;:0.73000001907348633},&#34;position&#34;:0.40384614467620850},{&#34;color&#34;:{&#34;r&#34;:0.23033502697944641,&#34;g&#34;:0.019933830946683884,&#34;b&#34;:0.76252627372741699,&#34;a&#34;:0.64999997615814209},&#34;position&#34;:0.74038463830947876},{&#34;color&#34;:{&#34;r&#34;:0.0761718750,&#34;g&#34;:0.0021025685127824545,&#34;b&#34;:0.0018796920776367188,&#34;a&#34;:1.0},&#34;position&#34;:1.0}],&#34;transform&#34;:{&#34;m00&#34;:-17.856760025024414,&#34;m01&#34;:-0.61620199680328369,&#34;m02&#34;:28.280004501342773,&#34;m10&#34;:7.3479318618774414,&#34;m11&#34;:-6.2887344360351562,&#34;m12&#34;:11.263943672180176},&#34;opacity&#34;:1.0,&#34;blendMode&#34;:&#34;NORMAL&#34;,&#34;visible&#34;:true}"/>
<defs>
<clipPath id="paint0_diamond_1484_1649_clip_path"><path d="M6.0119 7.18896V6.68896H5.61377L5.5246 7.07699L6.0119 7.18896ZM6.49832 23.3365L6.13467 23.6796L6.49832 23.3365ZM24 23.689L24.3763 24.0182L24 23.689ZM24.0153 7.18896L24.4813 7.00784L24.3574 6.68896H24.0153V7.18896ZM6.0119 7.18896L5.5246 7.07699C5.13384 8.77751 4.70495 10.326 4.33461 11.8216C3.96796 13.3023 3.66456 14.71 3.54964 16.0575C3.31698 18.7857 3.85951 21.2686 6.13467 23.6796L6.49832 23.3365L6.86197 22.9933C4.81628 20.8255 4.33299 18.6405 4.54602 16.1425C4.65396 14.8769 4.94128 13.532 5.3053 12.0619C5.66563 10.6067 6.10735 9.00619 6.4992 7.30094L6.0119 7.18896ZM6.49832 23.3365L6.13467 23.6796C11.9418 29.8334 20.7006 28.219 24.3763 24.0182L24 23.689L23.6237 23.3597C20.2994 27.1589 12.2265 28.6781 6.86197 22.9933L6.49832 23.3365ZM24 23.689L24.3763 24.0182C25.5781 22.6447 26.1596 20.8686 26.3767 19.0233C26.594 17.1765 26.451 15.2237 26.1706 13.4532C25.8898 11.68 25.4682 10.0715 25.1176 8.90752C24.9421 8.32494 24.7839 7.85226 24.6692 7.52428C24.6118 7.36025 24.5653 7.23232 24.5329 7.14482C24.5167 7.10106 24.5041 7.06741 24.4953 7.0444C24.491 7.0329 24.4876 7.02405 24.4852 7.01794C24.4841 7.01488 24.4831 7.0125 24.4825 7.01082C24.4822 7.00997 24.4819 7.0093 24.4817 7.00881C24.4816 7.00856 24.4815 7.00832 24.4815 7.00819C24.4814 7.00799 24.4813 7.00784 24.0153 7.18896C23.5493 7.37009 23.5492 7.37002 23.5492 7.37C23.5492 7.37005 23.5492 7.37007 23.5493 7.37017C23.5494 7.37036 23.5495 7.37073 23.5497 7.37128C23.5501 7.37236 23.5508 7.37413 23.5518 7.37657C23.5536 7.38147 23.5565 7.38907 23.5604 7.39932C23.5682 7.41981 23.5799 7.45087 23.5951 7.49195C23.6255 7.57412 23.67 7.69635 23.7252 7.85434C23.8357 8.17038 23.9893 8.6291 24.1601 9.19598C24.502 10.3309 24.9112 11.8937 25.1829 13.6096C25.4551 15.3282 25.5864 17.1825 25.3836 18.9064C25.1806 20.6317 24.6474 22.1898 23.6237 23.3597L24 23.689ZM24.0153 7.18896V6.68896H6.0119V7.18896V7.68896H24.0153V7.18896Z"/></clipPath><clipPath id="paint1_diamond_1484_1649_clip_path"><path d="M10 7.18887L10.4966 7.24729C10.9846 3.09897 13.0008 1.45019 14.7353 1.5012C16.5001 1.55311 18.5178 3.36224 19.0039 7.25092L19.5 7.1889L19.9961 7.12688C19.4822 3.0156 17.2499 0.574737 14.7647 0.501636C12.2492 0.427644 10.0154 2.77883 9.50342 7.13045L10 7.18887Z"/></clipPath><clipPath id="paint2_diamond_1484_1649_clip_path"><path d="M19.5 11.189L19.0031 11.2447C19.1012 12.1189 18.6625 12.7962 17.8319 13.2905C16.9855 13.7941 15.7839 14.064 14.563 14.064C13.3399 14.064 12.1772 13.7933 11.4001 13.2985C11.0161 13.054 10.7441 12.7666 10.5897 12.4477C10.4384 12.1351 10.3834 11.7589 10.486 11.2975L9.99793 11.189L9.50985 11.0804C9.36231 11.744 9.43248 12.3522 9.68963 12.8834C9.9437 13.4082 10.3635 13.824 10.8629 14.142C11.8526 14.7721 13.2225 15.064 14.563 15.064C15.9059 15.064 17.2989 14.7713 18.3432 14.1499C19.4032 13.5192 20.1512 12.509 19.9969 11.1332L19.5 11.189Z"/></clipPath><linearGradient id="paint0_diamond_1484_1649" x1="0" y1="0" x2="500" y2="500" gradientUnits="userSpaceOnUse">
<stop offset="0.403846" stop-color="#A720EA" stop-opacity="0.73"/>
<stop offset="0.740385" stop-color="#3B05C2" stop-opacity="0.65"/>
<stop offset="1" stop-color="#130100"/>
</linearGradient>
<linearGradient id="paint1_diamond_1484_1649" x1="0" y1="0" x2="500" y2="500" gradientUnits="userSpaceOnUse">
<stop offset="0.403846" stop-color="#A720EA" stop-opacity="0.73"/>
<stop offset="0.740385" stop-color="#3B05C2" stop-opacity="0.65"/>
<stop offset="1" stop-color="#130100"/>
</linearGradient>
<linearGradient id="paint2_diamond_1484_1649" x1="0" y1="0" x2="500" y2="500" gradientUnits="userSpaceOnUse">
<stop offset="0.403846" stop-color="#A720EA" stop-opacity="0.73"/>
<stop offset="0.740385" stop-color="#3B05C2" stop-opacity="0.65"/>
<stop offset="1" stop-color="#130100"/>
</linearGradient>
</defs>
</svg>
