<svg width="30" height="29" viewBox="0 0 30 29" fill="none" xmlns="http://www.w3.org/2000/svg">
<path d="M23.8418 7.43896C23.8719 7.52071 23.9122 7.63272 23.9609 7.77197C24.0725 8.09094 24.2275 8.5529 24.3994 9.12354C24.7435 10.2657 25.1557 11.8405 25.4297 13.5708C25.7039 15.3023 25.8383 17.1815 25.6318 18.936C25.4253 20.6912 24.8796 22.3032 23.8115 23.5239C20.3994 27.4235 12.1549 28.9666 6.67969 23.1646C4.57705 20.9362 4.07902 18.6768 4.29688 16.1216C4.40655 14.8355 4.69782 13.4742 5.0625 12.0015C5.41149 10.5921 5.82909 9.06939 6.20898 7.43896H23.8418Z" stroke="black" stroke-width="0.5"/>
<path d="M10 7.18887C11 -1.31107 18.5 -0.811062 19.5 7.1889" stroke="black" stroke-width="0.5"/>
<path d="M19.5 11.189C20.0047 15.689 8.99741 15.689 9.99793 11.189" stroke="black" stroke-width="0.5"/>
</svg>
