<svg width="243" height="113" viewBox="0 0 243 113" fill="none" xmlns="http://www.w3.org/2000/svg">
<g filter="url(#filter0_d_1473_1029)">
<rect x="16" y="8" width="211" height="81" rx="10" fill="url(#paint0_linear_1473_1029)" fill-opacity="0.25" shape-rendering="crispEdges"/>
<rect x="16.5" y="8.5" width="210" height="80" rx="9.5" stroke="url(#paint1_linear_1473_1029)" stroke-opacity="0.78" shape-rendering="crispEdges"/>
<path d="M56.44 47.228C56.44 45.052 56.96 43.364 58 42.164C59.04 40.964 60.488 40.364 62.344 40.364C64.2 40.364 65.648 40.964 66.688 42.164C67.728 43.364 68.248 45.052 68.248 47.228V50.972C68.248 53.212 67.728 54.916 66.688 56.084C65.648 57.252 64.2 57.836 62.344 57.836C60.488 57.836 59.04 57.252 58 56.084C56.96 54.916 56.44 53.212 56.44 50.972V47.228ZM62.344 55.964C63.64 55.964 64.608 55.524 65.248 54.644C65.904 53.748 66.232 52.476 66.232 50.828V47.372C66.232 45.836 65.904 44.596 65.248 43.652C64.608 42.708 63.64 42.236 62.344 42.236C61.048 42.236 60.072 42.708 59.416 43.652C58.776 44.596 58.456 45.836 58.456 47.372V50.828C58.456 52.476 58.776 53.748 59.416 54.644C60.072 55.524 61.048 55.964 62.344 55.964ZM71.1113 45.596H75.4313V47.18H75.7193C76.0233 46.524 76.4553 46.044 77.0153 45.74C77.5753 45.42 78.2153 45.26 78.9353 45.26C80.1353 45.26 81.1033 45.652 81.8393 46.436C82.5753 47.22 82.9673 48.364 83.0153 49.868L81.0473 50.156C81.0473 49.052 80.7833 48.26 80.2553 47.78C79.7273 47.284 79.0793 47.036 78.3113 47.036C77.8153 47.036 77.3833 47.132 77.0153 47.324C76.6633 47.516 76.3673 47.78 76.1273 48.116C75.8873 48.452 75.7113 48.844 75.5993 49.292C75.4873 49.74 75.4313 50.22 75.4313 50.732V55.772H78.4553V57.5H70.8233V55.772H73.5593V47.324H71.1113V45.596ZM95.6946 55.676H95.4066C95.2146 56.044 94.9666 56.364 94.6626 56.636C94.3746 56.908 94.0546 57.132 93.7026 57.308C93.3666 57.484 93.0066 57.612 92.6226 57.692C92.2386 57.788 91.8706 57.836 91.5186 57.836C90.7186 57.836 89.9746 57.7 89.2866 57.428C88.5986 57.156 87.9906 56.764 87.4626 56.252C86.9506 55.74 86.5426 55.108 86.2386 54.356C85.9506 53.588 85.8066 52.716 85.8066 51.74V51.356C85.8066 50.396 85.9586 49.54 86.2626 48.788C86.5666 48.02 86.9746 47.38 87.4866 46.868C87.9986 46.34 88.5986 45.94 89.2866 45.668C89.9746 45.396 90.7026 45.26 91.4706 45.26C92.2866 45.26 93.0466 45.444 93.7506 45.812C94.4706 46.164 95.0226 46.716 95.4066 47.468H95.6946V40.7H97.5666V57.5H95.6946V55.676ZM91.7106 56.06C92.2706 56.06 92.7906 55.956 93.2706 55.748C93.7506 55.54 94.1666 55.244 94.5186 54.86C94.8866 54.476 95.1746 54.02 95.3826 53.492C95.5906 52.948 95.6946 52.348 95.6946 51.692V51.404C95.6946 50.764 95.5906 50.18 95.3826 49.652C95.1746 49.108 94.8866 48.644 94.5186 48.26C94.1666 47.876 93.7426 47.58 93.2466 47.372C92.7666 47.148 92.2546 47.036 91.7106 47.036C91.1506 47.036 90.6226 47.14 90.1266 47.348C89.6466 47.556 89.2226 47.852 88.8546 48.236C88.5026 48.62 88.2226 49.076 88.0146 49.604C87.8226 50.132 87.7266 50.716 87.7266 51.356V51.74C87.7266 52.412 87.8226 53.012 88.0146 53.54C88.2226 54.068 88.5026 54.524 88.8546 54.908C89.2226 55.276 89.6466 55.564 90.1266 55.772C90.6066 55.964 91.1346 56.06 91.7106 56.06ZM102.542 52.124C102.59 53.308 102.958 54.26 103.646 54.98C104.334 55.7 105.294 56.06 106.526 56.06C107.086 56.06 107.574 55.996 107.99 55.868C108.406 55.74 108.758 55.564 109.046 55.34C109.35 55.116 109.59 54.86 109.766 54.572C109.958 54.268 110.11 53.948 110.222 53.612L111.998 54.092C111.662 55.196 111.038 56.1 110.126 56.804C109.23 57.492 108.014 57.836 106.478 57.836C105.63 57.836 104.846 57.692 104.126 57.404C103.422 57.1 102.814 56.676 102.302 56.132C101.79 55.588 101.39 54.94 101.102 54.188C100.814 53.436 100.67 52.604 100.67 51.692V51.116C100.67 50.284 100.814 49.508 101.102 48.788C101.406 48.068 101.822 47.452 102.35 46.94C102.878 46.412 103.494 46.004 104.198 45.716C104.918 45.412 105.694 45.26 106.526 45.26C107.502 45.26 108.342 45.444 109.046 45.812C109.766 46.164 110.35 46.604 110.798 47.132C111.262 47.66 111.598 48.236 111.806 48.86C112.03 49.484 112.142 50.06 112.142 50.588V52.124H102.542ZM106.526 47.036C105.998 47.036 105.502 47.124 105.038 47.3C104.59 47.46 104.19 47.692 103.838 47.996C103.502 48.3 103.222 48.66 102.998 49.076C102.79 49.476 102.654 49.916 102.59 50.396H110.27C110.238 49.884 110.11 49.42 109.886 49.004C109.678 48.588 109.398 48.236 109.046 47.948C108.71 47.66 108.318 47.436 107.87 47.276C107.438 47.116 106.99 47.036 106.526 47.036ZM115.197 45.596H119.517V47.18H119.805C120.109 46.524 120.541 46.044 121.101 45.74C121.661 45.42 122.301 45.26 123.021 45.26C124.221 45.26 125.189 45.652 125.925 46.436C126.661 47.22 127.053 48.364 127.101 49.868L125.133 50.156C125.133 49.052 124.869 48.26 124.341 47.78C123.813 47.284 123.165 47.036 122.397 47.036C121.901 47.036 121.469 47.132 121.101 47.324C120.749 47.516 120.453 47.78 120.213 48.116C119.973 48.452 119.797 48.844 119.685 49.292C119.573 49.74 119.517 50.22 119.517 50.732V55.772H122.541V57.5H114.909V55.772H117.645V47.324H115.197V45.596ZM153.804 56.636H154.092V40.7H156.108V57.5H152.076L147.228 41.564H146.94V57.5H144.924V40.7H148.956L153.804 56.636ZM171.187 51.692C171.187 52.684 171.019 53.564 170.683 54.332C170.363 55.084 169.931 55.724 169.387 56.252C168.843 56.764 168.203 57.156 167.467 57.428C166.747 57.7 165.995 57.836 165.211 57.836C164.411 57.836 163.651 57.7 162.931 57.428C162.211 57.156 161.579 56.764 161.035 56.252C160.491 55.724 160.051 55.084 159.715 54.332C159.395 53.564 159.235 52.684 159.235 51.692V51.404C159.235 50.428 159.395 49.564 159.715 48.812C160.051 48.044 160.491 47.396 161.035 46.868C161.595 46.34 162.235 45.94 162.955 45.668C163.675 45.396 164.427 45.26 165.211 45.26C165.995 45.26 166.747 45.396 167.467 45.668C168.187 45.94 168.819 46.34 169.363 46.868C169.923 47.396 170.363 48.044 170.683 48.812C171.019 49.564 171.187 50.428 171.187 51.404V51.692ZM165.211 56.06C165.787 56.06 166.315 55.964 166.795 55.772C167.291 55.564 167.723 55.268 168.091 54.884C168.459 54.5 168.747 54.044 168.955 53.516C169.163 52.972 169.267 52.364 169.267 51.692V51.404C169.267 50.764 169.163 50.18 168.955 49.652C168.747 49.108 168.459 48.644 168.091 48.26C167.723 47.876 167.291 47.58 166.795 47.372C166.299 47.148 165.771 47.036 165.211 47.036C164.651 47.036 164.123 47.148 163.627 47.372C163.131 47.58 162.699 47.876 162.331 48.26C161.963 48.644 161.675 49.108 161.467 49.652C161.259 50.18 161.155 50.764 161.155 51.404V51.692C161.155 52.364 161.259 52.972 161.467 53.516C161.675 54.044 161.963 54.5 162.331 54.884C162.699 55.268 163.123 55.564 163.603 55.772C164.099 55.964 164.635 56.06 165.211 56.06ZM184.947 57.5H181.491L180.051 46.46H179.763L178.323 57.5H174.867L172.995 45.596H174.915L176.499 56.636H176.787L178.179 45.596H181.635L183.027 56.636H183.315L184.898 45.596H186.819L184.947 57.5Z" fill="#080808" fill-opacity="0.756863"/>
</g>
<defs>
<filter id="filter0_d_1473_1029" x="0" y="0" width="243" height="113" filterUnits="userSpaceOnUse" color-interpolation-filters="sRGB">
<feFlood flood-opacity="0" result="BackgroundImageFix"/>
<feColorMatrix in="SourceAlpha" type="matrix" values="0 0 0 0 0 0 0 0 0 0 0 0 0 0 0 0 0 0 127 0" result="hardAlpha"/>
<feOffset dy="8"/>
<feGaussianBlur stdDeviation="8"/>
<feComposite in2="hardAlpha" operator="out"/>
<feColorMatrix type="matrix" values="0 0 0 0 0.994873 0 0 0 0 0.512664 0 0 0 0 0.962726 0 0 0 0.16 0"/>
<feBlend mode="normal" in2="BackgroundImageFix" result="effect1_dropShadow_1473_1029"/>
<feBlend mode="normal" in="SourceGraphic" in2="effect1_dropShadow_1473_1029" result="shape"/>
</filter>
<linearGradient id="paint0_linear_1473_1029" x1="16" y1="8" x2="209.5" y2="89" gradientUnits="userSpaceOnUse">
<stop stop-color="white"/>
<stop offset="1" stop-color="#EAD2FF"/>
</linearGradient>
<linearGradient id="paint1_linear_1473_1029" x1="221" y1="83.5" x2="22.5" y2="8.00001" gradientUnits="userSpaceOnUse">
<stop stop-color="#F6A4FE"/>
<stop offset="1" stop-color="#FAEAFC"/>
</linearGradient>
</defs>
</svg>
