<svg width="211" height="81" viewBox="0 0 211 81" fill="none" xmlns="http://www.w3.org/2000/svg">
<rect width="211" height="81" rx="10" fill="url(#paint0_linear_1473_1031)"/>
<rect x="0.25" y="0.25" width="210.5" height="80.5" rx="9.75" stroke="url(#paint1_linear_1473_1031)" stroke-opacity="0.78" stroke-width="0.5"/>
<path d="M40.44 39.228C40.44 37.052 40.96 35.364 42 34.164C43.04 32.964 44.488 32.364 46.344 32.364C48.2 32.364 49.648 32.964 50.688 34.164C51.728 35.364 52.248 37.052 52.248 39.228V42.972C52.248 45.212 51.728 46.916 50.688 48.084C49.648 49.252 48.2 49.836 46.344 49.836C44.488 49.836 43.04 49.252 42 48.084C40.96 46.916 40.44 45.212 40.44 42.972V39.228ZM46.344 47.964C47.64 47.964 48.608 47.524 49.248 46.644C49.904 45.748 50.232 44.476 50.232 42.828V39.372C50.232 37.836 49.904 36.596 49.248 35.652C48.608 34.708 47.64 34.236 46.344 34.236C45.048 34.236 44.072 34.708 43.416 35.652C42.776 36.596 42.456 37.836 42.456 39.372V42.828C42.456 44.476 42.776 45.748 43.416 46.644C44.072 47.524 45.048 47.964 46.344 47.964ZM55.1113 37.596H59.4313V39.18H59.7193C60.0233 38.524 60.4553 38.044 61.0153 37.74C61.5753 37.42 62.2153 37.26 62.9353 37.26C64.1353 37.26 65.1033 37.652 65.8393 38.436C66.5753 39.22 66.9673 40.364 67.0153 41.868L65.0473 42.156C65.0473 41.052 64.7833 40.26 64.2553 39.78C63.7273 39.284 63.0793 39.036 62.3113 39.036C61.8153 39.036 61.3833 39.132 61.0153 39.324C60.6633 39.516 60.3673 39.78 60.1273 40.116C59.8873 40.452 59.7113 40.844 59.5993 41.292C59.4873 41.74 59.4313 42.22 59.4313 42.732V47.772H62.4553V49.5H54.8233V47.772H57.5593V39.324H55.1113V37.596ZM79.6946 47.676H79.4066C79.2146 48.044 78.9666 48.364 78.6626 48.636C78.3746 48.908 78.0546 49.132 77.7026 49.308C77.3666 49.484 77.0066 49.612 76.6226 49.692C76.2386 49.788 75.8706 49.836 75.5186 49.836C74.7186 49.836 73.9746 49.7 73.2866 49.428C72.5986 49.156 71.9906 48.764 71.4626 48.252C70.9506 47.74 70.5426 47.108 70.2386 46.356C69.9506 45.588 69.8066 44.716 69.8066 43.74V43.356C69.8066 42.396 69.9586 41.54 70.2626 40.788C70.5666 40.02 70.9746 39.38 71.4866 38.868C71.9986 38.34 72.5986 37.94 73.2866 37.668C73.9746 37.396 74.7026 37.26 75.4706 37.26C76.2866 37.26 77.0466 37.444 77.7506 37.812C78.4706 38.164 79.0226 38.716 79.4066 39.468H79.6946V32.7H81.5666V49.5H79.6946V47.676ZM75.7106 48.06C76.2706 48.06 76.7906 47.956 77.2706 47.748C77.7506 47.54 78.1666 47.244 78.5186 46.86C78.8866 46.476 79.1746 46.02 79.3826 45.492C79.5906 44.948 79.6946 44.348 79.6946 43.692V43.404C79.6946 42.764 79.5906 42.18 79.3826 41.652C79.1746 41.108 78.8866 40.644 78.5186 40.26C78.1666 39.876 77.7426 39.58 77.2466 39.372C76.7666 39.148 76.2546 39.036 75.7106 39.036C75.1506 39.036 74.6226 39.14 74.1266 39.348C73.6466 39.556 73.2226 39.852 72.8546 40.236C72.5026 40.62 72.2226 41.076 72.0146 41.604C71.8226 42.132 71.7266 42.716 71.7266 43.356V43.74C71.7266 44.412 71.8226 45.012 72.0146 45.54C72.2226 46.068 72.5026 46.524 72.8546 46.908C73.2226 47.276 73.6466 47.564 74.1266 47.772C74.6066 47.964 75.1346 48.06 75.7106 48.06ZM86.5419 44.124C86.5899 45.308 86.9579 46.26 87.6459 46.98C88.3339 47.7 89.2939 48.06 90.5259 48.06C91.0859 48.06 91.5739 47.996 91.9899 47.868C92.4059 47.74 92.7579 47.564 93.0459 47.34C93.3499 47.116 93.5899 46.86 93.7659 46.572C93.9579 46.268 94.1099 45.948 94.2219 45.612L95.9979 46.092C95.6619 47.196 95.0379 48.1 94.1259 48.804C93.2299 49.492 92.0139 49.836 90.4779 49.836C89.6299 49.836 88.8459 49.692 88.1259 49.404C87.4219 49.1 86.8139 48.676 86.3019 48.132C85.7899 47.588 85.3899 46.94 85.1019 46.188C84.8139 45.436 84.6699 44.604 84.6699 43.692V43.116C84.6699 42.284 84.8139 41.508 85.1019 40.788C85.4059 40.068 85.8219 39.452 86.3499 38.94C86.8779 38.412 87.4939 38.004 88.1979 37.716C88.9179 37.412 89.6939 37.26 90.5259 37.26C91.5019 37.26 92.3419 37.444 93.0459 37.812C93.7659 38.164 94.3499 38.604 94.7979 39.132C95.2619 39.66 95.5979 40.236 95.8059 40.86C96.0299 41.484 96.1419 42.06 96.1419 42.588V44.124H86.5419ZM90.5259 39.036C89.9979 39.036 89.5019 39.124 89.0379 39.3C88.5899 39.46 88.1899 39.692 87.8379 39.996C87.5019 40.3 87.2219 40.66 86.9979 41.076C86.7899 41.476 86.6539 41.916 86.5899 42.396H94.2699C94.2379 41.884 94.1099 41.42 93.8859 41.004C93.6779 40.588 93.3979 40.236 93.0459 39.948C92.7099 39.66 92.3179 39.436 91.8699 39.276C91.4379 39.116 90.9899 39.036 90.5259 39.036ZM99.1973 37.596H103.517V39.18H103.805C104.109 38.524 104.541 38.044 105.101 37.74C105.661 37.42 106.301 37.26 107.021 37.26C108.221 37.26 109.189 37.652 109.925 38.436C110.661 39.22 111.053 40.364 111.101 41.868L109.133 42.156C109.133 41.052 108.869 40.26 108.341 39.78C107.813 39.284 107.165 39.036 106.397 39.036C105.901 39.036 105.469 39.132 105.101 39.324C104.749 39.516 104.453 39.78 104.213 40.116C103.973 40.452 103.797 40.844 103.685 41.292C103.573 41.74 103.517 42.22 103.517 42.732V47.772H106.541V49.5H98.9093V47.772H101.645V39.324H99.1973V37.596ZM137.804 48.636H138.092V32.7H140.108V49.5H136.076L131.228 33.564H130.94V49.5H128.924V32.7H132.956L137.804 48.636ZM155.187 43.692C155.187 44.684 155.019 45.564 154.683 46.332C154.363 47.084 153.931 47.724 153.387 48.252C152.843 48.764 152.203 49.156 151.467 49.428C150.747 49.7 149.995 49.836 149.211 49.836C148.411 49.836 147.651 49.7 146.931 49.428C146.211 49.156 145.579 48.764 145.035 48.252C144.491 47.724 144.051 47.084 143.715 46.332C143.395 45.564 143.235 44.684 143.235 43.692V43.404C143.235 42.428 143.395 41.564 143.715 40.812C144.051 40.044 144.491 39.396 145.035 38.868C145.595 38.34 146.235 37.94 146.955 37.668C147.675 37.396 148.427 37.26 149.211 37.26C149.995 37.26 150.747 37.396 151.467 37.668C152.187 37.94 152.819 38.34 153.363 38.868C153.923 39.396 154.363 40.044 154.683 40.812C155.019 41.564 155.187 42.428 155.187 43.404V43.692ZM149.211 48.06C149.787 48.06 150.315 47.964 150.795 47.772C151.291 47.564 151.723 47.268 152.091 46.884C152.459 46.5 152.747 46.044 152.955 45.516C153.163 44.972 153.267 44.364 153.267 43.692V43.404C153.267 42.764 153.163 42.18 152.955 41.652C152.747 41.108 152.459 40.644 152.091 40.26C151.723 39.876 151.291 39.58 150.795 39.372C150.299 39.148 149.771 39.036 149.211 39.036C148.651 39.036 148.123 39.148 147.627 39.372C147.131 39.58 146.699 39.876 146.331 40.26C145.963 40.644 145.675 41.108 145.467 41.652C145.259 42.18 145.155 42.764 145.155 43.404V43.692C145.155 44.364 145.259 44.972 145.467 45.516C145.675 46.044 145.963 46.5 146.331 46.884C146.699 47.268 147.123 47.564 147.603 47.772C148.099 47.964 148.635 48.06 149.211 48.06ZM168.947 49.5H165.491L164.051 38.46H163.763L162.323 49.5H158.867L156.995 37.596H158.915L160.499 48.636H160.787L162.179 37.596H165.635L167.027 48.636H167.315L168.898 37.596H170.819L168.947 49.5Z" fill="#080808" fill-opacity="0.756863"/>
<defs>
<linearGradient id="paint0_linear_1473_1031" x1="4" y1="3.5" x2="203.5" y2="73" gradientUnits="userSpaceOnUse">
<stop stop-color="white" stop-opacity="0.3"/>
<stop offset="1" stop-opacity="0.34"/>
</linearGradient>
<linearGradient id="paint1_linear_1473_1031" x1="105.5" y1="0" x2="105.5" y2="81" gradientUnits="userSpaceOnUse">
<stop stop-color="#EAABF0"/>
<stop offset="1" stop-color="#87628A"/>
</linearGradient>
</defs>
</svg>
