<svg width="145" height="53" viewBox="0 0 145 53" fill="none" xmlns="http://www.w3.org/2000/svg">
<rect x="0.25" y="0.25" width="144.5" height="52.5" rx="4.75" fill="url(#paint0_linear_1480_1043)"/>
<rect x="0.25" y="0.25" width="144.5" height="52.5" rx="4.75" stroke="#5D0707" stroke-width="0.5"/>
<path d="M24.8924 35V34.76L25.8764 34.52C26.5324 34.376 26.8604 33.976 26.8604 33.32V19.64H24.8204C24.2284 19.64 23.8044 19.8 23.5484 20.12C23.2924 20.424 23.0204 20.848 22.7324 21.392L21.8684 23.072H21.6284L21.7484 19.16H35.5964L35.6924 23.072H35.4524L34.5884 21.392C34.3164 20.848 34.0524 20.424 33.7964 20.12C33.5404 19.8 33.1164 19.64 32.5244 19.64H30.4844V33.32C30.4844 33.976 30.8124 34.376 31.4684 34.52L32.4524 34.76V35H24.8924ZM36.7473 35V34.76L37.0353 34.664C37.6113 34.472 37.8993 34.072 37.8993 33.464V20.648C37.8993 20.312 37.8433 20.064 37.7313 19.904C37.6193 19.744 37.4033 19.624 37.0833 19.544L36.7233 19.448V19.208L40.9473 18.176L41.3313 18.392L41.2353 21.776V24.776C41.7953 24.312 42.3953 23.92 43.0353 23.6C43.6913 23.264 44.4113 23.096 45.1953 23.096C46.2353 23.096 47.0593 23.392 47.6673 23.984C48.2913 24.576 48.6033 25.488 48.6033 26.72V33.488C48.6033 33.808 48.6673 34.064 48.7953 34.256C48.9233 34.448 49.1473 34.592 49.4673 34.688L49.6593 34.76V35H44.0433V34.76L44.3313 34.688C44.9073 34.496 45.1953 34.088 45.1953 33.464V25.928C45.1953 25.288 45.0833 24.848 44.8593 24.608C44.6513 24.368 44.2753 24.248 43.7313 24.248C43.3793 24.248 42.9953 24.32 42.5793 24.464C42.1633 24.592 41.7393 24.824 41.3073 25.16V33.512C41.3073 34.136 41.5953 34.536 42.1713 34.712L42.3633 34.76V35H36.7473ZM56.6212 23.096C57.6612 23.096 58.5492 23.312 59.2852 23.744C60.0212 24.16 60.5812 24.736 60.9652 25.472C61.3652 26.192 61.5652 27.016 61.5652 27.944C61.5652 28.12 61.5572 28.304 61.5412 28.496C61.5252 28.672 61.4932 28.832 61.4452 28.976H54.2932C54.3092 30.704 54.6132 31.952 55.2052 32.72C55.8132 33.472 56.7092 33.848 57.8932 33.848C58.6932 33.848 59.3412 33.72 59.8372 33.464C60.3332 33.208 60.7972 32.832 61.2292 32.336L61.4692 32.552C60.9732 33.432 60.3092 34.12 59.4772 34.616C58.6612 35.112 57.6772 35.36 56.5252 35.36C55.3892 35.36 54.3812 35.12 53.5012 34.64C52.6212 34.144 51.9332 33.44 51.4372 32.528C50.9412 31.616 50.6932 30.528 50.6932 29.264C50.6932 27.952 50.9812 26.84 51.5572 25.928C52.1332 25 52.8692 24.296 53.7652 23.816C54.6772 23.336 55.6292 23.096 56.6212 23.096ZM56.5492 23.576C56.0852 23.576 55.6852 23.72 55.3492 24.008C55.0292 24.28 54.7732 24.776 54.5812 25.496C54.4052 26.2 54.3092 27.2 54.2932 28.496H58.3972C58.5572 26.752 58.4932 25.496 58.2052 24.728C57.9172 23.96 57.3652 23.576 56.5492 23.576ZM73.1958 35.432C72.3158 35.432 71.4198 35.32 70.5078 35.096C69.5958 34.888 68.8358 34.608 68.2278 34.256L68.3478 30.992H68.5878L69.3318 32.552C69.5558 33 69.7958 33.4 70.0518 33.752C70.3078 34.088 70.6598 34.352 71.1078 34.544C71.4278 34.704 71.7318 34.816 72.0198 34.88C72.3238 34.928 72.6598 34.952 73.0278 34.952C74.0038 34.952 74.7718 34.688 75.3318 34.16C75.9078 33.632 76.1958 32.952 76.1958 32.12C76.1958 31.336 76.0038 30.728 75.6198 30.296C75.2358 29.848 74.6198 29.416 73.7718 29L72.7878 28.568C71.4118 27.96 70.3318 27.264 69.5478 26.48C68.7798 25.68 68.3958 24.624 68.3958 23.312C68.3958 22.368 68.6358 21.552 69.1158 20.864C69.6118 20.176 70.2918 19.648 71.1558 19.28C72.0358 18.912 73.0598 18.728 74.2278 18.728C75.0758 18.728 75.8758 18.84 76.6278 19.064C77.3958 19.288 78.0598 19.592 78.6198 19.976L78.4758 22.856H78.2358L77.2518 21.056C76.9798 20.496 76.7078 20.104 76.4358 19.88C76.1638 19.64 75.8518 19.472 75.4998 19.376C75.2918 19.312 75.0998 19.272 74.9238 19.256C74.7478 19.224 74.5238 19.208 74.2518 19.208C73.4358 19.208 72.7478 19.448 72.1878 19.928C71.6278 20.392 71.3478 21.024 71.3478 21.824C71.3478 22.64 71.5638 23.296 71.9958 23.792C72.4278 24.272 73.0598 24.704 73.8918 25.088L74.9958 25.568C76.5318 26.24 77.6358 26.96 78.3078 27.728C78.9798 28.48 79.3158 29.456 79.3158 30.656C79.3158 32.064 78.7798 33.216 77.7078 34.112C76.6518 34.992 75.1478 35.432 73.1958 35.432ZM84.8291 35.36C83.8051 35.36 83.0051 35.104 82.4291 34.592C81.8691 34.08 81.5891 33.264 81.5891 32.144V23.936H79.9331V23.696L80.5091 23.6C81.0051 23.488 81.4291 23.328 81.7811 23.12C82.1491 22.912 82.5091 22.632 82.8611 22.28L84.8291 20.096H85.0691L84.9971 23.456H87.6851V23.936H84.9731V32.576C84.9731 33.136 85.0931 33.56 85.3331 33.848C85.5891 34.136 85.9091 34.28 86.2931 34.28C86.6291 34.28 86.9251 34.2 87.1811 34.04C87.4371 33.864 87.6931 33.632 87.9491 33.344L88.1891 33.584C87.8691 34.128 87.4291 34.56 86.8691 34.88C86.3091 35.2 85.6291 35.36 84.8291 35.36ZM94.9426 35.36C93.7266 35.36 92.6706 35.112 91.7746 34.616C90.8786 34.104 90.1826 33.384 89.6866 32.456C89.2066 31.528 88.9666 30.44 88.9666 29.192C88.9666 27.944 89.2226 26.864 89.7346 25.952C90.2626 25.04 90.9746 24.336 91.8706 23.84C92.7826 23.344 93.8066 23.096 94.9426 23.096C96.0786 23.096 97.0946 23.344 97.9906 23.84C98.8866 24.32 99.5906 25.016 100.103 25.928C100.631 26.84 100.895 27.928 100.895 29.192C100.895 30.456 100.647 31.552 100.151 32.48C99.6706 33.392 98.9826 34.104 98.0866 34.616C97.2066 35.112 96.1586 35.36 94.9426 35.36ZM94.9426 34.88C95.5026 34.88 95.9506 34.72 96.2866 34.4C96.6226 34.08 96.8626 33.512 97.0066 32.696C97.1666 31.88 97.2466 30.728 97.2466 29.24C97.2466 27.736 97.1666 26.576 97.0066 25.76C96.8626 24.944 96.6226 24.376 96.2866 24.056C95.9506 23.736 95.5026 23.576 94.9426 23.576C94.3826 23.576 93.9266 23.736 93.5746 24.056C93.2386 24.376 92.9906 24.944 92.8306 25.76C92.6866 26.576 92.6146 27.736 92.6146 29.24C92.6146 30.728 92.6866 31.88 92.8306 32.696C92.9906 33.512 93.2386 34.08 93.5746 34.4C93.9266 34.72 94.3826 34.88 94.9426 34.88ZM101.949 35V34.76L102.309 34.664C102.629 34.568 102.845 34.424 102.957 34.232C103.085 34.04 103.149 33.792 103.149 33.488V25.976C103.149 25.624 103.085 25.368 102.957 25.208C102.845 25.032 102.629 24.912 102.309 24.848L101.949 24.752V24.512L106.077 23.12L106.317 23.36L106.533 25.424V25.616C106.757 25.168 107.045 24.76 107.397 24.392C107.765 24.008 108.165 23.696 108.597 23.456C109.045 23.216 109.485 23.096 109.917 23.096C110.525 23.096 110.989 23.264 111.309 23.6C111.629 23.936 111.789 24.36 111.789 24.872C111.789 25.416 111.629 25.84 111.309 26.144C111.005 26.432 110.637 26.576 110.205 26.576C109.533 26.576 108.941 26.24 108.429 25.568L108.381 25.52C108.221 25.296 108.037 25.176 107.829 25.16C107.621 25.128 107.429 25.224 107.253 25.448C107.093 25.592 106.957 25.768 106.845 25.976C106.749 26.168 106.653 26.392 106.557 26.648V33.344C106.557 33.984 106.837 34.384 107.397 34.544L108.165 34.76V35H101.949ZM118.192 23.096C119.232 23.096 120.12 23.312 120.856 23.744C121.592 24.16 122.152 24.736 122.536 25.472C122.936 26.192 123.136 27.016 123.136 27.944C123.136 28.12 123.128 28.304 123.112 28.496C123.096 28.672 123.064 28.832 123.016 28.976H115.864C115.88 30.704 116.184 31.952 116.776 32.72C117.384 33.472 118.28 33.848 119.464 33.848C120.264 33.848 120.912 33.72 121.408 33.464C121.904 33.208 122.368 32.832 122.8 32.336L123.04 32.552C122.544 33.432 121.88 34.12 121.048 34.616C120.232 35.112 119.248 35.36 118.096 35.36C116.96 35.36 115.952 35.12 115.072 34.64C114.192 34.144 113.504 33.44 113.008 32.528C112.512 31.616 112.264 30.528 112.264 29.264C112.264 27.952 112.552 26.84 113.128 25.928C113.704 25 114.44 24.296 115.336 23.816C116.248 23.336 117.2 23.096 118.192 23.096ZM118.12 23.576C117.656 23.576 117.256 23.72 116.92 24.008C116.6 24.28 116.344 24.776 116.152 25.496C115.976 26.2 115.88 27.2 115.864 28.496H119.968C120.128 26.752 120.064 25.496 119.776 24.728C119.488 23.96 118.936 23.576 118.12 23.576Z" fill="black"/>
<defs>
<linearGradient id="paint0_linear_1480_1043" x1="72.5" y1="0" x2="72.5" y2="53" gradientUnits="userSpaceOnUse">
<stop stop-color="white"/>
<stop offset="1" stop-color="#787777"/>
</linearGradient>
</defs>
</svg>
