<svg width="1613" height="179" viewBox="0 0 1613 179" fill="none" xmlns="http://www.w3.org/2000/svg">
<path opacity="0.8" d="M23.4881 137.133L13.0377 50.7568H29.2465L34.3651 101.089L40.87 50.8634H53.5598L60.3846 100.77L65.6098 50.7568H81.6053L71.2616 137.133H54.6262L47.2682 84.9873L40.3368 137.133H23.4881ZM90.9111 137.133V50.7568H129.727V63.7665H109.999V85.2006H125.035V98.4236H109.999V124.23H129.94V137.133H90.9111ZM161.731 137.133L178.047 50.7568H199.801L215.903 137.133H198.308L195.429 118.898H182.739L179.753 137.133H161.731ZM184.445 107.488H193.616L189.031 73.7904L184.445 107.488ZM224.624 137.133V50.7568H248.404C254.234 50.7568 259.281 51.3966 263.547 52.6762C267.812 53.9559 271.118 56.2664 273.464 59.6077C275.881 62.8779 277.089 67.5343 277.089 73.5771C277.089 77.1317 276.805 80.2953 276.236 83.0678C275.668 85.8404 274.601 88.2575 273.037 90.3191C271.544 92.3097 269.376 93.9803 266.532 95.3311L278.369 137.133H258.641L249.151 98.4236H243.712V137.133H224.624ZM243.712 87.4399H249.044C251.745 87.4399 253.843 86.9778 255.335 86.0537C256.828 85.0584 257.859 83.6721 258.428 81.8948C259.068 80.0464 259.388 77.8426 259.388 75.2833C259.388 71.5866 258.712 68.7074 257.362 66.6457C256.011 64.5841 253.523 63.5532 249.897 63.5532H243.712V87.4399ZM288.565 137.133V50.7568H327.38V63.7665H307.653V85.2006H322.688V98.4236H307.653V124.23H327.594V137.133H288.565ZM386.471 138.412C381.068 138.412 376.553 137.453 372.928 135.533C369.302 133.614 366.565 130.663 364.717 126.682C362.868 122.63 361.838 117.405 361.624 111.007L377.94 108.554C378.011 112.251 378.331 115.237 378.9 117.512C379.539 119.787 380.392 121.422 381.459 122.417C382.596 123.412 383.947 123.91 385.511 123.91C387.502 123.91 388.781 123.234 389.35 121.884C389.99 120.533 390.31 119.111 390.31 117.618C390.31 114.064 389.457 111.078 387.75 108.661C386.044 106.173 383.734 103.684 380.819 101.196L373.354 94.6913C370.084 91.9187 367.312 88.7907 365.037 85.3072C362.833 81.7526 361.731 77.3805 361.731 72.1908C361.731 64.8684 363.899 59.2877 368.236 55.4488C372.572 51.5388 378.473 49.5838 385.938 49.5838C390.558 49.5838 394.255 50.3658 397.028 51.9298C399.871 53.4938 402.004 55.5555 403.426 58.1147C404.919 60.6029 405.914 63.2689 406.412 66.1125C406.981 68.8851 407.301 71.551 407.372 74.1103L390.949 76.1364C390.878 73.5771 390.701 71.3733 390.416 69.5249C390.203 67.6054 389.705 66.1481 388.923 65.1528C388.141 64.0864 386.933 63.5532 385.298 63.5532C383.52 63.5532 382.205 64.2997 381.352 65.7926C380.57 67.2855 380.179 68.7784 380.179 70.2714C380.179 73.4705 380.926 76.1009 382.419 78.1625C383.983 80.1531 386.009 82.2503 388.497 84.4541L395.642 90.7457C399.409 93.9448 402.573 97.5705 405.132 101.623C407.763 105.675 409.078 110.687 409.078 116.658C409.078 120.711 408.154 124.407 406.305 127.749C404.457 131.019 401.826 133.614 398.414 135.533C395.073 137.453 391.092 138.412 386.471 138.412ZM426.105 137.133V64.9395H413.095V50.7568H458.202V64.9395H445.299V137.133H426.105ZM465.914 137.133V50.7568H485.002V137.133H465.914ZM497.881 137.133V50.7568H516.97V124.23H536.804V137.133H497.881ZM545.16 137.133V50.7568H564.248V124.23H584.083V137.133H545.16ZM627.507 137.133V64.9395H614.497V50.7568H659.605V64.9395H646.702V137.133H627.507ZM658.26 137.133L674.576 50.7568H696.33L712.432 137.133H694.837L691.958 118.898H679.268L676.282 137.133H658.26ZM680.974 107.488H690.145L685.559 73.7904L680.974 107.488ZM721.26 137.133V50.7568H740.348V137.133H721.26ZM753.227 137.133V50.7568H772.315V124.23H792.15V137.133H753.227ZM823.892 138.412C817.422 138.412 812.304 137.275 808.536 135C804.768 132.725 802.067 129.455 800.432 125.189C798.797 120.924 797.979 115.841 797.979 109.94V77.8426C797.979 71.8709 798.797 66.7879 800.432 62.5935C802.067 58.3991 804.768 55.2 808.536 52.9962C812.304 50.7212 817.422 49.5838 823.892 49.5838C830.432 49.5838 835.586 50.7212 839.354 52.9962C843.193 55.2 845.93 58.3991 847.565 62.5935C849.2 66.7879 850.018 71.8709 850.018 77.8426V109.94C850.018 115.841 849.2 120.924 847.565 125.189C845.93 129.455 843.193 132.725 839.354 135C835.586 137.275 830.432 138.412 823.892 138.412ZM823.892 124.87C825.882 124.87 827.34 124.372 828.264 123.377C829.188 122.381 829.792 121.102 830.077 119.538C830.361 117.974 830.503 116.374 830.503 114.739V73.1506C830.503 71.4444 830.361 69.8448 830.077 68.3519C829.792 66.7879 829.188 65.5082 828.264 64.513C827.34 63.5177 825.882 63.02 823.892 63.02C822.043 63.02 820.657 63.5177 819.733 64.513C818.809 65.5082 818.204 66.7879 817.92 68.3519C817.636 69.8448 817.494 71.4444 817.494 73.1506V114.739C817.494 116.374 817.6 117.974 817.813 119.538C818.098 121.102 818.667 122.381 819.52 123.377C820.444 124.372 821.901 124.87 823.892 124.87ZM861.635 137.133V50.7568H885.415C891.244 50.7568 896.292 51.3966 900.557 52.6762C904.823 53.9559 908.128 56.2664 910.474 59.6077C912.892 62.8779 914.1 67.5343 914.1 73.5771C914.1 77.1317 913.816 80.2953 913.247 83.0678C912.678 85.8404 911.612 88.2575 910.048 90.3191C908.555 92.3097 906.387 93.9803 903.543 95.3311L915.38 137.133H895.652L886.161 98.4236H880.723V137.133H861.635ZM880.723 87.4399H886.055C888.756 87.4399 890.853 86.9778 892.346 86.0537C893.839 85.0584 894.87 83.6721 895.439 81.8948C896.078 80.0464 896.398 77.8426 896.398 75.2833C896.398 71.5866 895.723 68.7074 894.372 66.6457C893.022 64.5841 890.533 63.5532 886.908 63.5532H880.723V87.4399ZM925.682 137.133V50.7568H944.77V137.133H925.682ZM957.65 137.133V50.7568H971.086L988.788 92.3452V50.7568H1004.57V137.133H991.667L973.965 92.3452V137.133H957.65ZM1039.93 138.412C1033.95 138.412 1029.23 137.168 1025.74 134.68C1022.33 132.192 1019.88 128.708 1018.38 124.23C1016.96 119.68 1016.25 114.455 1016.25 108.554V79.5488C1016.25 73.4349 1017.03 68.1386 1018.6 63.6599C1020.16 59.1811 1022.83 55.7332 1026.6 53.3161C1030.43 50.8279 1035.62 49.5838 1042.16 49.5838C1048.56 49.5838 1053.57 50.6501 1057.2 52.7829C1060.9 54.9156 1063.53 57.8659 1065.09 61.6338C1066.66 65.4016 1067.44 69.8093 1067.44 74.8568V80.4019H1048.78V73.3638C1048.78 71.5155 1048.63 69.8093 1048.35 68.2453C1048.14 66.6813 1047.57 65.4372 1046.64 64.513C1045.79 63.5177 1044.37 63.02 1042.38 63.02C1040.32 63.02 1038.82 63.5888 1037.9 64.7262C1036.97 65.7926 1036.37 67.1433 1036.09 68.7784C1035.87 70.4135 1035.77 72.1197 1035.77 73.897V113.886C1035.77 115.805 1035.94 117.618 1036.3 119.324C1036.73 120.96 1037.44 122.31 1038.43 123.377C1039.5 124.372 1040.99 124.87 1042.91 124.87C1044.9 124.87 1046.43 124.336 1047.5 123.27C1048.56 122.204 1049.31 120.817 1049.74 119.111C1050.16 117.405 1050.38 115.592 1050.38 113.673V103.542H1042.59V92.3452H1067.54V137.133H1054.96L1053.89 129.988C1052.76 132.405 1051.09 134.431 1048.88 136.066C1046.68 137.63 1043.69 138.412 1039.93 138.412ZM1114.56 137.133V64.9395H1101.55V50.7568H1146.66V64.9395H1133.75V137.133H1114.56ZM1154.58 137.133V50.7568H1173.67V85.7337H1187.11V50.7568H1206.19V137.133H1187.11V99.3833H1173.67V137.133H1154.58ZM1219.45 137.133V50.7568H1238.54V137.133H1219.45ZM1274.35 138.412C1268.95 138.412 1264.43 137.453 1260.81 135.533C1257.18 133.614 1254.44 130.663 1252.6 126.682C1250.75 122.63 1249.72 117.405 1249.5 111.007L1265.82 108.554C1265.89 112.251 1266.21 115.237 1266.78 117.512C1267.42 119.787 1268.27 121.422 1269.34 122.417C1270.47 123.412 1271.83 123.91 1273.39 123.91C1275.38 123.91 1276.66 123.234 1277.23 121.884C1277.87 120.533 1278.19 119.111 1278.19 117.618C1278.19 114.064 1277.34 111.078 1275.63 108.661C1273.92 106.173 1271.61 103.684 1268.7 101.196L1261.23 94.6913C1257.96 91.9187 1255.19 88.7907 1252.92 85.3072C1250.71 81.7526 1249.61 77.3805 1249.61 72.1908C1249.61 64.8684 1251.78 59.2877 1256.11 55.4488C1260.45 51.5388 1266.35 49.5838 1273.82 49.5838C1278.44 49.5838 1282.13 50.3658 1284.91 51.9298C1287.75 53.4938 1289.88 55.5555 1291.3 58.1147C1292.8 60.6029 1293.79 63.2689 1294.29 66.1125C1294.86 68.8851 1295.18 71.551 1295.25 74.1103L1278.83 76.1364C1278.76 73.5771 1278.58 71.3733 1278.29 69.5249C1278.08 67.6054 1277.58 66.1481 1276.8 65.1528C1276.02 64.0864 1274.81 63.5532 1273.18 63.5532C1271.4 63.5532 1270.08 64.2997 1269.23 65.7926C1268.45 67.2855 1268.06 68.7784 1268.06 70.2714C1268.06 73.4705 1268.8 76.1009 1270.3 78.1625C1271.86 80.1531 1273.89 82.2503 1276.38 84.4541L1283.52 90.7457C1287.29 93.9448 1290.45 97.5705 1293.01 101.623C1295.64 105.675 1296.96 110.687 1296.96 116.658C1296.96 120.711 1296.03 124.407 1294.18 127.749C1292.34 131.019 1289.71 133.614 1286.29 135.533C1282.95 137.453 1278.97 138.412 1274.35 138.412ZM1356.41 138.412C1351.01 138.412 1346.49 137.453 1342.87 135.533C1339.24 133.614 1336.5 130.663 1334.66 126.682C1332.81 122.63 1331.78 117.405 1331.56 111.007L1347.88 108.554C1347.95 112.251 1348.27 115.237 1348.84 117.512C1349.48 119.787 1350.33 121.422 1351.4 122.417C1352.54 123.412 1353.89 123.91 1355.45 123.91C1357.44 123.91 1358.72 123.234 1359.29 121.884C1359.93 120.533 1360.25 119.111 1360.25 117.618C1360.25 114.064 1359.4 111.078 1357.69 108.661C1355.98 106.173 1353.67 103.684 1350.76 101.196L1343.29 94.6913C1340.02 91.9187 1337.25 88.7907 1334.98 85.3072C1332.77 81.7526 1331.67 77.3805 1331.67 72.1908C1331.67 64.8684 1333.84 59.2877 1338.17 55.4488C1342.51 51.5388 1348.41 49.5838 1355.88 49.5838C1360.5 49.5838 1364.19 50.3658 1366.97 51.9298C1369.81 53.4938 1371.94 55.5555 1373.37 58.1147C1374.86 60.6029 1375.85 63.2689 1376.35 66.1125C1376.92 68.8851 1377.24 71.551 1377.31 74.1103L1360.89 76.1364C1360.82 73.5771 1360.64 71.3733 1360.36 69.5249C1360.14 67.6054 1359.64 66.1481 1358.86 65.1528C1358.08 64.0864 1356.87 63.5532 1355.24 63.5532C1353.46 63.5532 1352.14 64.2997 1351.29 65.7926C1350.51 67.2855 1350.12 68.7784 1350.12 70.2714C1350.12 73.4705 1350.86 76.1009 1352.36 78.1625C1353.92 80.1531 1355.95 82.2503 1358.44 84.4541L1365.58 90.7457C1369.35 93.9448 1372.51 97.5705 1375.07 101.623C1377.7 105.675 1379.02 110.687 1379.02 116.658C1379.02 120.711 1378.09 124.407 1376.24 127.749C1374.4 131.019 1371.77 133.614 1368.35 135.533C1365.01 137.453 1361.03 138.412 1356.41 138.412ZM1388.26 137.133V50.7568H1417.26C1422.45 50.7568 1426.72 51.7521 1430.06 53.7426C1433.4 55.6621 1435.89 58.5057 1437.53 62.2736C1439.16 65.9703 1439.98 70.4846 1439.98 75.8165C1439.98 82.4991 1438.88 87.6177 1436.67 91.1722C1434.47 94.6557 1431.48 97.0728 1427.72 98.4236C1423.95 99.7743 1419.72 100.45 1415.03 100.45H1407.35V137.133H1388.26ZM1407.35 87.12H1413.75C1416.09 87.12 1417.87 86.6935 1419.08 85.8404C1420.29 84.9873 1421.07 83.7076 1421.42 82.0014C1421.85 80.2953 1422.06 78.127 1422.06 75.4966C1422.06 73.2928 1421.89 71.3733 1421.53 69.7382C1421.25 68.032 1420.5 66.6813 1419.29 65.686C1418.08 64.6907 1416.2 64.1931 1413.64 64.1931H1407.35V87.12ZM1439.92 137.133L1456.23 50.7568H1477.99L1494.09 137.133H1476.49L1473.62 118.898H1460.93L1457.94 137.133H1439.92ZM1462.63 107.488H1471.8L1467.22 73.7904L1462.63 107.488ZM1526.2 138.412C1519.66 138.412 1514.47 137.239 1510.63 134.893C1506.86 132.476 1504.19 129.135 1502.63 124.87C1501.07 120.533 1500.28 115.45 1500.28 109.62V78.4824C1500.28 72.5107 1501.07 67.3922 1502.63 63.1267C1504.19 58.7901 1506.86 55.4488 1510.63 53.1028C1514.47 50.7568 1519.66 49.5838 1526.2 49.5838C1532.6 49.5838 1537.57 50.6501 1541.13 52.7829C1544.75 54.8445 1547.31 57.7593 1548.8 61.5271C1550.3 65.295 1551.04 69.6315 1551.04 74.5369V82.0014H1532.38V73.3638C1532.38 71.6576 1532.28 70.0225 1532.06 68.4585C1531.92 66.8945 1531.42 65.6149 1530.57 64.6196C1529.72 63.5532 1528.26 63.02 1526.2 63.02C1524.21 63.02 1522.71 63.5532 1521.72 64.6196C1520.79 65.686 1520.19 67.0367 1519.91 68.6718C1519.69 70.2358 1519.59 71.9065 1519.59 73.6838V114.312C1519.59 116.232 1519.73 118.009 1520.01 119.644C1520.37 121.208 1521.01 122.488 1521.93 123.483C1522.93 124.407 1524.35 124.87 1526.2 124.87C1528.19 124.87 1529.61 124.372 1530.46 123.377C1531.32 122.31 1531.85 120.96 1532.06 119.324C1532.28 117.689 1532.38 116.019 1532.38 114.312V105.248H1551.04V112.713C1551.04 117.618 1550.3 122.026 1548.8 125.936C1547.38 129.775 1544.86 132.832 1541.23 135.107C1537.68 137.311 1532.67 138.412 1526.2 138.412ZM1561.54 137.133V50.7568H1600.36V63.7665H1580.63V85.2006H1595.67V98.4236H1580.63V124.23H1600.57V137.133H1561.54Z" fill="#3A2E2E"/>
</svg>
