<svg width="514" height="198" viewBox="0 0 514 198" fill="none" xmlns="http://www.w3.org/2000/svg">
<g clip-path="url(#paint0_diamond_1796_1200_clip_path)" data-figma-skip-parse="true"><g transform="matrix(-0.367602 -0.1015 0.0450849 -0.125767 379.211 142)"><rect x="0" y="0" width="1068.04" height="1297.89" fill="url(#paint0_diamond_1796_1200)" opacity="1" shape-rendering="crispEdges"/><rect x="0" y="0" width="1068.04" height="1297.89" transform="scale(1 -1)" fill="url(#paint0_diamond_1796_1200)" opacity="1" shape-rendering="crispEdges"/><rect x="0" y="0" width="1068.04" height="1297.89" transform="scale(-1 1)" fill="url(#paint0_diamond_1796_1200)" opacity="1" shape-rendering="crispEdges"/><rect x="0" y="0" width="1068.04" height="1297.89" transform="scale(-1)" fill="url(#paint0_diamond_1796_1200)" opacity="1" shape-rendering="crispEdges"/></g></g><path d="M50.112 69.104H57.216V25.328H50.112V24.432H70.72V25.328H63.616V69.104H70.72V70H50.112V69.104ZM76.4125 69.104H81.3405V43.44H76.4125V42.544H86.7165V49.392H86.8445C87.1005 48.8373 87.4632 48.1333 87.9325 47.28C88.4445 46.4267 89.1272 45.5947 89.9805 44.784C90.8338 43.9733 91.9005 43.2907 93.1805 42.736C94.4605 42.1387 96.0178 41.84 97.8525 41.84C100.669 41.84 102.951 42.5227 104.701 43.888C106.493 45.2533 107.389 47.4293 107.389 50.416V69.104H112.317V70H96.9565V69.104H101.885V48.432C101.885 46.768 101.479 45.4027 100.669 44.336C99.9005 43.2693 98.6845 42.736 97.0205 42.736C95.6552 42.736 94.3538 43.0347 93.1165 43.632C91.8792 44.2293 90.7912 45.0613 89.8525 46.128C88.9138 47.1947 88.1672 48.4533 87.6125 49.904C87.1005 51.3547 86.8445 52.9333 86.8445 54.64V69.104H91.7725V70H76.4125V69.104ZM136.838 42.544H141.766V34.288C142.107 34.416 142.427 34.5227 142.726 34.608C143.025 34.6933 143.537 34.736 144.262 34.736C144.902 34.736 145.457 34.672 145.926 34.544C146.395 34.3733 146.843 34.1173 147.27 33.776V42.544H156.358V43.44H147.27V64.368C147.27 65.5627 147.377 66.544 147.59 67.312C147.846 68.0373 148.166 68.6133 148.55 69.04C148.934 69.424 149.339 69.68 149.766 69.808C150.235 69.936 150.683 70 151.11 70C152.603 70 153.798 69.4667 154.694 68.4C155.633 67.2907 156.23 66.032 156.486 64.624L157.382 64.944C157.254 65.4987 157.062 66.1173 156.806 66.8C156.55 67.4827 156.145 68.144 155.59 68.784C155.078 69.3813 154.395 69.872 153.542 70.256C152.689 70.6827 151.622 70.896 150.342 70.896C147.142 70.896 144.902 70.2773 143.622 69.04C142.385 67.8027 141.766 66.0533 141.766 63.792V43.44H136.838V42.544ZM160.663 69.104H165.591V24.752H160.663V23.856H171.095V49.008H171.223C171.436 48.4533 171.799 47.7707 172.311 46.96C172.823 46.1067 173.505 45.3173 174.359 44.592C175.255 43.824 176.321 43.184 177.559 42.672C178.839 42.1173 180.353 41.84 182.103 41.84C184.919 41.84 187.201 42.5227 188.951 43.888C190.743 45.2533 191.639 47.4293 191.639 50.416V69.104H196.567V70H181.207V69.104H186.135V48.432C186.135 46.768 185.729 45.4027 184.919 44.336C184.151 43.2693 182.935 42.736 181.271 42.736C179.905 42.736 178.604 43.0347 177.367 43.632C176.129 44.2293 175.041 45.0613 174.103 46.128C173.164 47.1947 172.417 48.4533 171.863 49.904C171.351 51.3547 171.095 52.9333 171.095 54.64V69.104H176.023V70H160.663V69.104ZM222.716 53.232C222.801 52.6347 222.844 52.08 222.844 51.568C222.844 51.056 222.844 50.5227 222.844 49.968C222.844 48.5173 222.694 47.3227 222.396 46.384C222.14 45.4453 221.756 44.6987 221.244 44.144C220.774 43.5893 220.177 43.2053 219.452 42.992C218.769 42.736 218.022 42.608 217.212 42.608C215.761 42.608 214.566 42.9067 213.628 43.504C212.689 44.0587 211.942 44.8267 211.388 45.808C210.833 46.7893 210.406 47.92 210.108 49.2C209.852 50.48 209.681 51.824 209.595 53.232H222.716ZM209.532 54.128C209.532 54.5547 209.51 55.0027 209.468 55.472C209.468 55.8987 209.468 56.4533 209.468 57.136C209.468 58.544 209.553 60.016 209.724 61.552C209.894 63.088 210.257 64.4747 210.812 65.712C211.409 66.9493 212.262 67.9733 213.372 68.784C214.524 69.5947 216.038 70 217.916 70C219.793 70 221.329 69.7227 222.524 69.168C223.761 68.6133 224.721 67.952 225.404 67.184C226.129 66.3733 226.662 65.5627 227.004 64.752C227.345 63.9413 227.601 63.28 227.772 62.768L228.732 62.96C228.604 63.4293 228.348 64.112 227.964 65.008C227.622 65.8613 227.046 66.736 226.236 67.632C225.468 68.4853 224.401 69.2533 223.036 69.936C221.713 70.576 219.985 70.896 217.852 70.896C215.718 70.896 213.734 70.5547 211.9 69.872C210.108 69.1893 208.55 68.208 207.228 66.928C205.905 65.648 204.881 64.1333 204.156 62.384C203.43 60.592 203.068 58.608 203.068 56.432C203.068 54.5547 203.43 52.7413 204.156 50.992C204.924 49.2 205.948 47.6213 207.228 46.256C208.55 44.8907 210.086 43.8027 211.836 42.992C213.585 42.1387 215.462 41.712 217.468 41.712C218.662 41.712 219.942 41.9253 221.308 42.352C222.673 42.7787 223.932 43.4827 225.084 44.464C226.278 45.4027 227.26 46.6613 228.028 48.24C228.838 49.8187 229.244 51.7813 229.244 54.128H209.532ZM253.744 42.544H269.168V43.44H263.856L271.024 63.408L277.68 47.6L276.08 43.44H273.392V42.544H286.128V43.44H281.84L289.264 63.28L297.264 43.44H291.248V42.544H301.68V43.44H298.288L286.832 72.112L278.128 48.88L268.4 72.112L258.096 43.44H253.744V42.544ZM312.093 56.304C312.093 59.3333 312.327 61.744 312.797 63.536C313.266 65.328 313.885 66.7147 314.653 67.696C315.421 68.6347 316.317 69.2533 317.341 69.552C318.365 69.8507 319.453 70 320.605 70C321.757 70 322.845 69.8507 323.869 69.552C324.893 69.2533 325.789 68.6347 326.557 67.696C327.325 66.7147 327.943 65.328 328.413 63.536C328.882 61.744 329.117 59.3333 329.117 56.304C329.117 53.744 328.946 51.6107 328.605 49.904C328.263 48.1547 327.73 46.7467 327.005 45.68C326.322 44.5707 325.447 43.7813 324.381 43.312C323.314 42.8427 322.055 42.608 320.605 42.608C319.154 42.608 317.895 42.8427 316.829 43.312C315.762 43.7813 314.866 44.5707 314.141 45.68C313.458 46.7467 312.946 48.1547 312.605 49.904C312.263 51.6107 312.093 53.744 312.093 56.304ZM305.693 56.304C305.693 54.2133 306.141 52.272 307.036 50.48C307.975 48.688 309.149 47.152 310.557 45.872C312.007 44.5493 313.607 43.5253 315.357 42.8C317.149 42.0747 318.898 41.712 320.605 41.712C322.311 41.712 324.039 42.0747 325.789 42.8C327.581 43.5253 329.181 44.5493 330.589 45.872C332.039 47.152 333.213 48.688 334.109 50.48C335.047 52.272 335.517 54.2133 335.517 56.304C335.517 58.3093 335.09 60.208 334.237 62C333.383 63.7493 332.253 65.2853 330.845 66.608C329.479 67.9307 327.901 68.976 326.109 69.744C324.317 70.512 322.482 70.896 320.605 70.896C318.727 70.896 316.893 70.512 315.101 69.744C313.309 68.976 311.709 67.9307 310.301 66.608C308.935 65.2853 307.826 63.7493 306.973 62C306.119 60.208 305.693 58.3093 305.693 56.304ZM342.103 69.104H347.031V43.44H342.103V42.544H352.407V49.008H352.535C352.706 48.368 352.983 47.6427 353.367 46.832C353.751 46.0213 354.284 45.2533 354.967 44.528C355.65 43.76 356.46 43.12 357.399 42.608C358.38 42.096 359.554 41.84 360.919 41.84C361.9 41.84 362.754 42.0107 363.479 42.352C364.204 42.6507 364.802 43.056 365.271 43.568C365.74 44.0373 366.082 44.592 366.295 45.232C366.508 45.872 366.615 46.512 366.615 47.152C366.615 48.56 366.295 49.4987 365.655 49.968C365.015 50.4373 364.268 50.672 363.415 50.672C361.538 50.672 360.599 50.0747 360.599 48.88C360.599 48.496 360.642 48.1973 360.727 47.984C360.812 47.728 360.898 47.4933 360.983 47.28C361.111 47.024 361.218 46.7467 361.303 46.448C361.388 46.1493 361.431 45.7227 361.431 45.168C361.431 43.8027 360.684 43.12 359.191 43.12C358.508 43.12 357.783 43.376 357.015 43.888C356.247 44.4 355.522 45.1467 354.839 46.128C354.199 47.1093 353.644 48.304 353.175 49.712C352.748 51.0773 352.535 52.656 352.535 54.448V69.104H358.103V70H342.103V69.104ZM370.23 69.104H375.158V24.752H370.23V23.856H380.662V69.104H385.59V70H370.23V69.104ZM399.103 55.344C399.103 57.5627 399.167 59.5893 399.295 61.424C399.423 63.216 399.743 64.752 400.255 66.032C400.767 67.312 401.535 68.2933 402.559 68.976C403.583 69.6587 404.97 70 406.719 70C408.511 70 409.94 69.616 411.007 68.848C412.116 68.08 412.97 67.0987 413.567 65.904C414.164 64.6667 414.57 63.3013 414.783 61.808C414.996 60.3147 415.103 58.864 415.103 57.456C415.103 55.792 415.06 54.3627 414.975 53.168C414.932 51.9307 414.826 50.8427 414.655 49.904C414.484 48.9653 414.25 48.1547 413.951 47.472C413.652 46.7893 413.29 46.1493 412.863 45.552C412.223 44.6987 411.391 43.9947 410.367 43.44C409.343 42.8853 408.042 42.608 406.463 42.608C404.97 42.608 403.732 42.9067 402.751 43.504C401.812 44.1013 401.066 44.9547 400.511 46.064C399.999 47.1733 399.636 48.5173 399.423 50.096C399.21 51.632 399.103 53.3813 399.103 55.344ZM410.175 23.856H420.607V69.104H425.535V70H415.231V64.432H415.103C414.932 64.944 414.676 65.5627 414.335 66.288C413.994 67.0133 413.482 67.7173 412.799 68.4C412.159 69.0827 411.327 69.6587 410.303 70.128C409.322 70.64 408.106 70.896 406.655 70.896C404.778 70.896 402.986 70.4907 401.279 69.68C399.615 68.8693 398.143 67.7813 396.863 66.416C395.583 65.0507 394.559 63.4933 393.791 61.744C393.066 59.952 392.703 58.0747 392.703 56.112C392.703 54.192 393.066 52.3573 393.791 50.608C394.516 48.8587 395.498 47.344 396.735 46.064C397.972 44.7413 399.402 43.696 401.023 42.928C402.644 42.1173 404.372 41.712 406.207 41.712C408.554 41.712 410.452 42.288 411.903 43.44C413.354 44.592 414.378 46 414.975 47.664H415.103V24.752H410.175V23.856ZM458.405 56.304C458.405 59.3333 458.64 61.744 459.109 63.536C459.578 65.328 460.197 66.7147 460.965 67.696C461.733 68.6347 462.629 69.2533 463.653 69.552C464.677 69.8507 465.765 70 466.917 70C468.069 70 469.157 69.8507 470.181 69.552C471.205 69.2533 472.101 68.6347 472.869 67.696C473.637 66.7147 474.256 65.328 474.725 63.536C475.194 61.744 475.429 59.3333 475.429 56.304C475.429 53.744 475.258 51.6107 474.917 49.904C474.576 48.1547 474.042 46.7467 473.317 45.68C472.634 44.5707 471.76 43.7813 470.693 43.312C469.626 42.8427 468.368 42.608 466.917 42.608C465.466 42.608 464.208 42.8427 463.141 43.312C462.074 43.7813 461.178 44.5707 460.453 45.68C459.77 46.7467 459.258 48.1547 458.917 49.904C458.576 51.6107 458.405 53.744 458.405 56.304ZM452.005 56.304C452.005 54.2133 452.453 52.272 453.349 50.48C454.288 48.688 455.461 47.152 456.869 45.872C458.32 44.5493 459.92 43.5253 461.669 42.8C463.461 42.0747 465.21 41.712 466.917 41.712C468.624 41.712 470.352 42.0747 472.101 42.8C473.893 43.5253 475.493 44.5493 476.901 45.872C478.352 47.152 479.525 48.688 480.421 50.48C481.36 52.272 481.829 54.2133 481.829 56.304C481.829 58.3093 481.402 60.208 480.549 62C479.696 63.7493 478.565 65.2853 477.157 66.608C475.792 67.9307 474.213 68.976 472.421 69.744C470.629 70.512 468.794 70.896 466.917 70.896C465.04 70.896 463.205 70.512 461.413 69.744C459.621 68.976 458.021 67.9307 456.613 66.608C455.248 65.2853 454.138 63.7493 453.285 62C452.432 60.208 452.005 58.3093 452.005 56.304ZM488.48 69.104H493.408V43.44H488.48V42.544H493.408V39.152C493.408 37.6587 493.472 36.3787 493.6 35.312C493.77 34.2027 493.984 33.2427 494.24 32.432C494.496 31.5787 494.794 30.8533 495.135 30.256C495.477 29.616 495.861 29.04 496.288 28.528C497.397 27.12 498.784 25.904 500.448 24.88C502.112 23.8133 503.882 23.28 505.76 23.28C507.168 23.28 508.362 23.4933 509.344 23.92C510.368 24.304 511.2 24.7947 511.84 25.392C512.48 25.9893 512.949 26.6507 513.248 27.376C513.546 28.0587 513.696 28.6773 513.696 29.232C513.696 30.0427 513.461 30.7893 512.992 31.472C512.522 32.1547 511.733 32.496 510.624 32.496C510.069 32.496 509.429 32.368 508.704 32.112C508.021 31.856 507.68 31.3013 507.68 30.448C507.68 29.7227 507.872 29.0827 508.256 28.528C508.682 27.9307 508.896 27.2693 508.896 26.544C508.896 25.6053 508.512 24.9867 507.744 24.688C506.976 24.3467 506.186 24.176 505.376 24.176C503.626 24.176 502.112 24.944 500.832 26.48C499.552 28.016 498.912 30.4053 498.912 33.648V42.544H506.848V43.44H498.912V69.104H504.736V70H488.48V69.104ZM212.858 168.104H219.962V124.328H212.858V123.432H249.466V134.504H248.762C248.207 132.84 247.61 131.389 246.97 130.152C246.33 128.872 245.562 127.805 244.666 126.952C243.77 126.056 242.703 125.395 241.466 124.968C240.228 124.541 238.735 124.328 236.986 124.328H226.362V145.064H230.522C231.93 145.064 233.124 144.936 234.106 144.68C235.087 144.424 235.919 143.955 236.602 143.272C237.327 142.547 237.924 141.587 238.394 140.392C238.906 139.155 239.396 137.576 239.866 135.656H240.57V155.56H239.866C239.567 154.323 239.247 153.128 238.906 151.976C238.607 150.824 238.159 149.8 237.562 148.904C237.007 148.008 236.239 147.304 235.258 146.792C234.319 146.237 233.082 145.96 231.546 145.96H226.362V168.104H233.466V169H212.858V168.104ZM257.417 168.104H262.345V123.752H257.417V122.856H267.849V168.104H272.777V169H257.417V168.104ZM285.843 155.304C285.843 158.333 286.077 160.744 286.547 162.536C287.016 164.328 287.635 165.715 288.403 166.696C289.171 167.635 290.067 168.253 291.091 168.552C292.115 168.851 293.203 169 294.355 169C295.507 169 296.595 168.851 297.619 168.552C298.643 168.253 299.539 167.635 300.307 166.696C301.075 165.715 301.693 164.328 302.163 162.536C302.632 160.744 302.867 158.333 302.867 155.304C302.867 152.744 302.696 150.611 302.355 148.904C302.013 147.155 301.48 145.747 300.755 144.68C300.072 143.571 299.197 142.781 298.131 142.312C297.064 141.843 295.805 141.608 294.355 141.608C292.904 141.608 291.645 141.843 290.579 142.312C289.512 142.781 288.616 143.571 287.891 144.68C287.208 145.747 286.696 147.155 286.355 148.904C286.013 150.611 285.843 152.744 285.843 155.304ZM279.443 155.304C279.443 153.213 279.891 151.272 280.786 149.48C281.725 147.688 282.899 146.152 284.307 144.872C285.757 143.549 287.357 142.525 289.107 141.8C290.899 141.075 292.648 140.712 294.355 140.712C296.061 140.712 297.789 141.075 299.539 141.8C301.331 142.525 302.931 143.549 304.339 144.872C305.789 146.152 306.963 147.688 307.859 149.48C308.797 151.272 309.267 153.213 309.267 155.304C309.267 157.309 308.84 159.208 307.987 161C307.133 162.749 306.003 164.285 304.595 165.608C303.229 166.931 301.651 167.976 299.859 168.744C298.067 169.512 296.232 169.896 294.355 169.896C292.477 169.896 290.643 169.512 288.851 168.744C287.059 167.976 285.459 166.931 284.051 165.608C282.685 164.285 281.576 162.749 280.723 161C279.869 159.208 279.443 157.309 279.443 155.304ZM315.405 168.104H320.333V142.44H315.405V141.544H325.709V148.264H325.837C326.733 145.704 328.013 143.827 329.677 142.632C331.384 141.437 333.432 140.84 335.821 140.84C337.954 140.84 339.832 141.309 341.453 142.248C343.117 143.187 344.205 144.744 344.717 146.92H344.845C345.144 146.152 345.549 145.405 346.061 144.68C346.573 143.955 347.213 143.315 347.981 142.76C348.749 142.163 349.645 141.693 350.669 141.352C351.736 141.011 352.93 140.84 354.253 140.84C360.482 140.84 363.597 144.019 363.597 150.376V168.104H368.525V169H353.165V168.104H358.093V146.344C358.093 144.893 357.688 143.763 356.877 142.952C356.109 142.141 355.042 141.736 353.677 141.736C352.61 141.736 351.544 141.949 350.477 142.376C349.41 142.76 348.45 143.357 347.597 144.168C346.744 144.979 346.04 146.024 345.485 147.304C344.973 148.584 344.717 150.077 344.717 151.784V168.104H349.645V169H334.285V168.104H339.213V147.24C339.213 145.363 338.829 143.976 338.061 143.08C337.293 142.184 336.269 141.736 334.989 141.736C334.093 141.736 333.112 141.971 332.045 142.44C330.978 142.867 329.976 143.571 329.037 144.552C328.141 145.491 327.373 146.728 326.733 148.264C326.136 149.8 325.837 151.677 325.837 153.896V168.104H330.765V169H315.405V168.104ZM377.765 126.632C377.765 125.693 378.085 124.904 378.725 124.264C379.407 123.581 380.218 123.24 381.157 123.24C382.095 123.24 382.885 123.581 383.525 124.264C384.207 124.904 384.549 125.693 384.549 126.632C384.549 127.571 384.207 128.381 383.525 129.064C382.885 129.704 382.095 130.024 381.157 130.024C380.218 130.024 379.407 129.704 378.725 129.064C378.085 128.381 377.765 127.571 377.765 126.632ZM373.605 168.104H378.533V142.44H373.605V141.544H384.037V168.104H388.965V169H373.605V168.104ZM394.478 168.104H399.406V142.44H394.478V141.544H404.782V148.008H404.91C405.081 147.368 405.358 146.643 405.742 145.832C406.126 145.021 406.659 144.253 407.342 143.528C408.025 142.76 408.835 142.12 409.774 141.608C410.755 141.096 411.929 140.84 413.294 140.84C414.275 140.84 415.129 141.011 415.854 141.352C416.579 141.651 417.177 142.056 417.646 142.568C418.115 143.037 418.457 143.592 418.67 144.232C418.883 144.872 418.99 145.512 418.99 146.152C418.99 147.56 418.67 148.499 418.03 148.968C417.39 149.437 416.643 149.672 415.79 149.672C413.913 149.672 412.974 149.075 412.974 147.88C412.974 147.496 413.017 147.197 413.102 146.984C413.187 146.728 413.273 146.493 413.358 146.28C413.486 146.024 413.593 145.747 413.678 145.448C413.763 145.149 413.806 144.723 413.806 144.168C413.806 142.803 413.059 142.12 411.566 142.12C410.883 142.12 410.158 142.376 409.39 142.888C408.622 143.4 407.897 144.147 407.214 145.128C406.574 146.109 406.019 147.304 405.55 148.712C405.123 150.077 404.91 151.656 404.91 153.448V168.104H410.478V169H394.478V168.104ZM457.229 169H446.925V162.536H446.797C446.413 163.389 445.943 164.264 445.389 165.16C444.877 166.013 444.215 166.803 443.405 167.528C442.637 168.211 441.719 168.765 440.653 169.192C439.629 169.661 438.413 169.896 437.005 169.896C435.298 169.896 433.911 169.704 432.845 169.32C431.778 168.936 430.946 168.531 430.349 168.104C430.05 167.891 429.709 167.635 429.325 167.336C428.983 166.995 428.663 166.547 428.365 165.992C428.066 165.437 427.81 164.733 427.597 163.88C427.383 162.984 427.277 161.896 427.277 160.616V142.44H422.349V141.544H432.781V161.192C432.781 162.301 432.845 163.325 432.973 164.264C433.143 165.203 433.442 166.035 433.869 166.76C434.295 167.443 434.85 167.997 435.533 168.424C436.215 168.808 437.111 169 438.221 169C439.159 169 440.119 168.723 441.101 168.168C442.125 167.613 443.042 166.824 443.853 165.8C444.706 164.776 445.41 163.56 445.965 162.152C446.519 160.701 446.797 159.08 446.797 157.288V142.44H441.933V141.544H452.301V168.104H457.229V169ZM483.278 152.232C483.363 151.635 483.406 151.08 483.406 150.568C483.406 150.056 483.406 149.523 483.406 148.968C483.406 147.517 483.257 146.323 482.958 145.384C482.702 144.445 482.318 143.699 481.806 143.144C481.337 142.589 480.739 142.205 480.014 141.992C479.331 141.736 478.585 141.608 477.774 141.608C476.323 141.608 475.129 141.907 474.19 142.504C473.251 143.059 472.505 143.827 471.95 144.808C471.395 145.789 470.969 146.92 470.67 148.2C470.414 149.48 470.243 150.824 470.158 152.232H483.278ZM470.094 153.128C470.094 153.555 470.073 154.003 470.03 154.472C470.03 154.899 470.03 155.453 470.03 156.136C470.03 157.544 470.115 159.016 470.286 160.552C470.457 162.088 470.819 163.475 471.374 164.712C471.971 165.949 472.825 166.973 473.934 167.784C475.086 168.595 476.601 169 478.478 169C480.355 169 481.891 168.723 483.086 168.168C484.323 167.613 485.283 166.952 485.966 166.184C486.691 165.373 487.225 164.563 487.566 163.752C487.907 162.941 488.163 162.28 488.334 161.768L489.294 161.96C489.166 162.429 488.91 163.112 488.526 164.008C488.185 164.861 487.609 165.736 486.798 166.632C486.03 167.485 484.963 168.253 483.598 168.936C482.275 169.576 480.547 169.896 478.414 169.896C476.281 169.896 474.297 169.555 472.462 168.872C470.67 168.189 469.113 167.208 467.79 165.928C466.467 164.648 465.443 163.133 464.718 161.384C463.993 159.592 463.63 157.608 463.63 155.432C463.63 153.555 463.993 151.741 464.718 149.992C465.486 148.2 466.51 146.621 467.79 145.256C469.113 143.891 470.649 142.803 472.398 141.992C474.147 141.139 476.025 140.712 478.03 140.712C479.225 140.712 480.505 140.925 481.87 141.352C483.235 141.779 484.494 142.483 485.646 143.464C486.841 144.403 487.822 145.661 488.59 147.24C489.401 148.819 489.806 150.781 489.806 153.128H470.094ZM497.884 179.944C499.121 179.048 500.124 178.173 500.892 177.32C501.702 176.509 502.321 175.72 502.748 174.952C503.217 174.227 503.516 173.565 503.644 172.968C503.814 172.371 503.9 171.859 503.9 171.432C503.9 170.067 503.516 168.957 502.748 168.104C502.022 169.171 501.105 169.704 499.996 169.704C499.185 169.704 498.396 169.405 497.628 168.808C496.86 168.211 496.476 167.357 496.476 166.248C496.476 165.267 496.838 164.413 497.564 163.688C498.332 162.963 499.27 162.6 500.38 162.6C501.19 162.6 501.916 162.792 502.556 163.176C503.238 163.56 503.814 164.051 504.284 164.648C504.753 165.245 505.094 165.949 505.308 166.76C505.564 167.571 505.692 168.381 505.692 169.192C505.692 170.429 505.436 171.645 504.924 172.84C504.412 174.077 503.793 175.208 503.068 176.232C502.342 177.256 501.553 178.152 500.7 178.92C499.846 179.688 499.1 180.285 498.46 180.712L497.884 179.944Z" data-figma-gradient-fill="{&#34;type&#34;:&#34;GRADIENT_DIAMOND&#34;,&#34;stops&#34;:[{&#34;color&#34;:{&#34;r&#34;:0.65454483032226562,&#34;g&#34;:0.12514296174049377,&#34;b&#34;:0.91924577951431274,&#34;a&#34;:0.73000001907348633},&#34;position&#34;:0.40384614467620850},{&#34;color&#34;:{&#34;r&#34;:0.23033502697944641,&#34;g&#34;:0.019933830946683884,&#34;b&#34;:0.76252627372741699,&#34;a&#34;:0.64999997615814209},&#34;position&#34;:0.74038463830947876},{&#34;color&#34;:{&#34;r&#34;:0.0761718750,&#34;g&#34;:0.0021025685127824545,&#34;b&#34;:0.0018796920776367188,&#34;a&#34;:1.0},&#34;position&#34;:1.0}],&#34;stopsVar&#34;:[{&#34;color&#34;:{&#34;r&#34;:0.65454483032226562,&#34;g&#34;:0.12514296174049377,&#34;b&#34;:0.91924577951431274,&#34;a&#34;:0.73000001907348633},&#34;position&#34;:0.40384614467620850},{&#34;color&#34;:{&#34;r&#34;:0.23033502697944641,&#34;g&#34;:0.019933830946683884,&#34;b&#34;:0.76252627372741699,&#34;a&#34;:0.64999997615814209},&#34;position&#34;:0.74038463830947876},{&#34;color&#34;:{&#34;r&#34;:0.0761718750,&#34;g&#34;:0.0021025685127824545,&#34;b&#34;:0.0018796920776367188,&#34;a&#34;:1.0},&#34;position&#34;:1.0}],&#34;transform&#34;:{&#34;m00&#34;:-735.2048339843750,&#34;m01&#34;:90.169769287109375,&#34;m02&#34;:701.7285156250,&#34;m10&#34;:-202.99998474121094,&#34;m11&#34;:-251.53437805175781,&#34;m12&#34;:369.26718139648438},&#34;opacity&#34;:1.0,&#34;blendMode&#34;:&#34;NORMAL&#34;,&#34;visible&#34;:true}"/>
<defs>
<clipPath id="paint0_diamond_1796_1200_clip_path"><path d="M50.112 69.104H57.216V25.328H50.112V24.432H70.72V25.328H63.616V69.104H70.72V70H50.112V69.104ZM76.4125 69.104H81.3405V43.44H76.4125V42.544H86.7165V49.392H86.8445C87.1005 48.8373 87.4632 48.1333 87.9325 47.28C88.4445 46.4267 89.1272 45.5947 89.9805 44.784C90.8338 43.9733 91.9005 43.2907 93.1805 42.736C94.4605 42.1387 96.0178 41.84 97.8525 41.84C100.669 41.84 102.951 42.5227 104.701 43.888C106.493 45.2533 107.389 47.4293 107.389 50.416V69.104H112.317V70H96.9565V69.104H101.885V48.432C101.885 46.768 101.479 45.4027 100.669 44.336C99.9005 43.2693 98.6845 42.736 97.0205 42.736C95.6552 42.736 94.3538 43.0347 93.1165 43.632C91.8792 44.2293 90.7912 45.0613 89.8525 46.128C88.9138 47.1947 88.1672 48.4533 87.6125 49.904C87.1005 51.3547 86.8445 52.9333 86.8445 54.64V69.104H91.7725V70H76.4125V69.104ZM136.838 42.544H141.766V34.288C142.107 34.416 142.427 34.5227 142.726 34.608C143.025 34.6933 143.537 34.736 144.262 34.736C144.902 34.736 145.457 34.672 145.926 34.544C146.395 34.3733 146.843 34.1173 147.27 33.776V42.544H156.358V43.44H147.27V64.368C147.27 65.5627 147.377 66.544 147.59 67.312C147.846 68.0373 148.166 68.6133 148.55 69.04C148.934 69.424 149.339 69.68 149.766 69.808C150.235 69.936 150.683 70 151.11 70C152.603 70 153.798 69.4667 154.694 68.4C155.633 67.2907 156.23 66.032 156.486 64.624L157.382 64.944C157.254 65.4987 157.062 66.1173 156.806 66.8C156.55 67.4827 156.145 68.144 155.59 68.784C155.078 69.3813 154.395 69.872 153.542 70.256C152.689 70.6827 151.622 70.896 150.342 70.896C147.142 70.896 144.902 70.2773 143.622 69.04C142.385 67.8027 141.766 66.0533 141.766 63.792V43.44H136.838V42.544ZM160.663 69.104H165.591V24.752H160.663V23.856H171.095V49.008H171.223C171.436 48.4533 171.799 47.7707 172.311 46.96C172.823 46.1067 173.505 45.3173 174.359 44.592C175.255 43.824 176.321 43.184 177.559 42.672C178.839 42.1173 180.353 41.84 182.103 41.84C184.919 41.84 187.201 42.5227 188.951 43.888C190.743 45.2533 191.639 47.4293 191.639 50.416V69.104H196.567V70H181.207V69.104H186.135V48.432C186.135 46.768 185.729 45.4027 184.919 44.336C184.151 43.2693 182.935 42.736 181.271 42.736C179.905 42.736 178.604 43.0347 177.367 43.632C176.129 44.2293 175.041 45.0613 174.103 46.128C173.164 47.1947 172.417 48.4533 171.863 49.904C171.351 51.3547 171.095 52.9333 171.095 54.64V69.104H176.023V70H160.663V69.104ZM222.716 53.232C222.801 52.6347 222.844 52.08 222.844 51.568C222.844 51.056 222.844 50.5227 222.844 49.968C222.844 48.5173 222.694 47.3227 222.396 46.384C222.14 45.4453 221.756 44.6987 221.244 44.144C220.774 43.5893 220.177 43.2053 219.452 42.992C218.769 42.736 218.022 42.608 217.212 42.608C215.761 42.608 214.566 42.9067 213.628 43.504C212.689 44.0587 211.942 44.8267 211.388 45.808C210.833 46.7893 210.406 47.92 210.108 49.2C209.852 50.48 209.681 51.824 209.595 53.232H222.716ZM209.532 54.128C209.532 54.5547 209.51 55.0027 209.468 55.472C209.468 55.8987 209.468 56.4533 209.468 57.136C209.468 58.544 209.553 60.016 209.724 61.552C209.894 63.088 210.257 64.4747 210.812 65.712C211.409 66.9493 212.262 67.9733 213.372 68.784C214.524 69.5947 216.038 70 217.916 70C219.793 70 221.329 69.7227 222.524 69.168C223.761 68.6133 224.721 67.952 225.404 67.184C226.129 66.3733 226.662 65.5627 227.004 64.752C227.345 63.9413 227.601 63.28 227.772 62.768L228.732 62.96C228.604 63.4293 228.348 64.112 227.964 65.008C227.622 65.8613 227.046 66.736 226.236 67.632C225.468 68.4853 224.401 69.2533 223.036 69.936C221.713 70.576 219.985 70.896 217.852 70.896C215.718 70.896 213.734 70.5547 211.9 69.872C210.108 69.1893 208.55 68.208 207.228 66.928C205.905 65.648 204.881 64.1333 204.156 62.384C203.43 60.592 203.068 58.608 203.068 56.432C203.068 54.5547 203.43 52.7413 204.156 50.992C204.924 49.2 205.948 47.6213 207.228 46.256C208.55 44.8907 210.086 43.8027 211.836 42.992C213.585 42.1387 215.462 41.712 217.468 41.712C218.662 41.712 219.942 41.9253 221.308 42.352C222.673 42.7787 223.932 43.4827 225.084 44.464C226.278 45.4027 227.26 46.6613 228.028 48.24C228.838 49.8187 229.244 51.7813 229.244 54.128H209.532ZM253.744 42.544H269.168V43.44H263.856L271.024 63.408L277.68 47.6L276.08 43.44H273.392V42.544H286.128V43.44H281.84L289.264 63.28L297.264 43.44H291.248V42.544H301.68V43.44H298.288L286.832 72.112L278.128 48.88L268.4 72.112L258.096 43.44H253.744V42.544ZM312.093 56.304C312.093 59.3333 312.327 61.744 312.797 63.536C313.266 65.328 313.885 66.7147 314.653 67.696C315.421 68.6347 316.317 69.2533 317.341 69.552C318.365 69.8507 319.453 70 320.605 70C321.757 70 322.845 69.8507 323.869 69.552C324.893 69.2533 325.789 68.6347 326.557 67.696C327.325 66.7147 327.943 65.328 328.413 63.536C328.882 61.744 329.117 59.3333 329.117 56.304C329.117 53.744 328.946 51.6107 328.605 49.904C328.263 48.1547 327.73 46.7467 327.005 45.68C326.322 44.5707 325.447 43.7813 324.381 43.312C323.314 42.8427 322.055 42.608 320.605 42.608C319.154 42.608 317.895 42.8427 316.829 43.312C315.762 43.7813 314.866 44.5707 314.141 45.68C313.458 46.7467 312.946 48.1547 312.605 49.904C312.263 51.6107 312.093 53.744 312.093 56.304ZM305.693 56.304C305.693 54.2133 306.141 52.272 307.036 50.48C307.975 48.688 309.149 47.152 310.557 45.872C312.007 44.5493 313.607 43.5253 315.357 42.8C317.149 42.0747 318.898 41.712 320.605 41.712C322.311 41.712 324.039 42.0747 325.789 42.8C327.581 43.5253 329.181 44.5493 330.589 45.872C332.039 47.152 333.213 48.688 334.109 50.48C335.047 52.272 335.517 54.2133 335.517 56.304C335.517 58.3093 335.09 60.208 334.237 62C333.383 63.7493 332.253 65.2853 330.845 66.608C329.479 67.9307 327.901 68.976 326.109 69.744C324.317 70.512 322.482 70.896 320.605 70.896C318.727 70.896 316.893 70.512 315.101 69.744C313.309 68.976 311.709 67.9307 310.301 66.608C308.935 65.2853 307.826 63.7493 306.973 62C306.119 60.208 305.693 58.3093 305.693 56.304ZM342.103 69.104H347.031V43.44H342.103V42.544H352.407V49.008H352.535C352.706 48.368 352.983 47.6427 353.367 46.832C353.751 46.0213 354.284 45.2533 354.967 44.528C355.65 43.76 356.46 43.12 357.399 42.608C358.38 42.096 359.554 41.84 360.919 41.84C361.9 41.84 362.754 42.0107 363.479 42.352C364.204 42.6507 364.802 43.056 365.271 43.568C365.74 44.0373 366.082 44.592 366.295 45.232C366.508 45.872 366.615 46.512 366.615 47.152C366.615 48.56 366.295 49.4987 365.655 49.968C365.015 50.4373 364.268 50.672 363.415 50.672C361.538 50.672 360.599 50.0747 360.599 48.88C360.599 48.496 360.642 48.1973 360.727 47.984C360.812 47.728 360.898 47.4933 360.983 47.28C361.111 47.024 361.218 46.7467 361.303 46.448C361.388 46.1493 361.431 45.7227 361.431 45.168C361.431 43.8027 360.684 43.12 359.191 43.12C358.508 43.12 357.783 43.376 357.015 43.888C356.247 44.4 355.522 45.1467 354.839 46.128C354.199 47.1093 353.644 48.304 353.175 49.712C352.748 51.0773 352.535 52.656 352.535 54.448V69.104H358.103V70H342.103V69.104ZM370.23 69.104H375.158V24.752H370.23V23.856H380.662V69.104H385.59V70H370.23V69.104ZM399.103 55.344C399.103 57.5627 399.167 59.5893 399.295 61.424C399.423 63.216 399.743 64.752 400.255 66.032C400.767 67.312 401.535 68.2933 402.559 68.976C403.583 69.6587 404.97 70 406.719 70C408.511 70 409.94 69.616 411.007 68.848C412.116 68.08 412.97 67.0987 413.567 65.904C414.164 64.6667 414.57 63.3013 414.783 61.808C414.996 60.3147 415.103 58.864 415.103 57.456C415.103 55.792 415.06 54.3627 414.975 53.168C414.932 51.9307 414.826 50.8427 414.655 49.904C414.484 48.9653 414.25 48.1547 413.951 47.472C413.652 46.7893 413.29 46.1493 412.863 45.552C412.223 44.6987 411.391 43.9947 410.367 43.44C409.343 42.8853 408.042 42.608 406.463 42.608C404.97 42.608 403.732 42.9067 402.751 43.504C401.812 44.1013 401.066 44.9547 400.511 46.064C399.999 47.1733 399.636 48.5173 399.423 50.096C399.21 51.632 399.103 53.3813 399.103 55.344ZM410.175 23.856H420.607V69.104H425.535V70H415.231V64.432H415.103C414.932 64.944 414.676 65.5627 414.335 66.288C413.994 67.0133 413.482 67.7173 412.799 68.4C412.159 69.0827 411.327 69.6587 410.303 70.128C409.322 70.64 408.106 70.896 406.655 70.896C404.778 70.896 402.986 70.4907 401.279 69.68C399.615 68.8693 398.143 67.7813 396.863 66.416C395.583 65.0507 394.559 63.4933 393.791 61.744C393.066 59.952 392.703 58.0747 392.703 56.112C392.703 54.192 393.066 52.3573 393.791 50.608C394.516 48.8587 395.498 47.344 396.735 46.064C397.972 44.7413 399.402 43.696 401.023 42.928C402.644 42.1173 404.372 41.712 406.207 41.712C408.554 41.712 410.452 42.288 411.903 43.44C413.354 44.592 414.378 46 414.975 47.664H415.103V24.752H410.175V23.856ZM458.405 56.304C458.405 59.3333 458.64 61.744 459.109 63.536C459.578 65.328 460.197 66.7147 460.965 67.696C461.733 68.6347 462.629 69.2533 463.653 69.552C464.677 69.8507 465.765 70 466.917 70C468.069 70 469.157 69.8507 470.181 69.552C471.205 69.2533 472.101 68.6347 472.869 67.696C473.637 66.7147 474.256 65.328 474.725 63.536C475.194 61.744 475.429 59.3333 475.429 56.304C475.429 53.744 475.258 51.6107 474.917 49.904C474.576 48.1547 474.042 46.7467 473.317 45.68C472.634 44.5707 471.76 43.7813 470.693 43.312C469.626 42.8427 468.368 42.608 466.917 42.608C465.466 42.608 464.208 42.8427 463.141 43.312C462.074 43.7813 461.178 44.5707 460.453 45.68C459.77 46.7467 459.258 48.1547 458.917 49.904C458.576 51.6107 458.405 53.744 458.405 56.304ZM452.005 56.304C452.005 54.2133 452.453 52.272 453.349 50.48C454.288 48.688 455.461 47.152 456.869 45.872C458.32 44.5493 459.92 43.5253 461.669 42.8C463.461 42.0747 465.21 41.712 466.917 41.712C468.624 41.712 470.352 42.0747 472.101 42.8C473.893 43.5253 475.493 44.5493 476.901 45.872C478.352 47.152 479.525 48.688 480.421 50.48C481.36 52.272 481.829 54.2133 481.829 56.304C481.829 58.3093 481.402 60.208 480.549 62C479.696 63.7493 478.565 65.2853 477.157 66.608C475.792 67.9307 474.213 68.976 472.421 69.744C470.629 70.512 468.794 70.896 466.917 70.896C465.04 70.896 463.205 70.512 461.413 69.744C459.621 68.976 458.021 67.9307 456.613 66.608C455.248 65.2853 454.138 63.7493 453.285 62C452.432 60.208 452.005 58.3093 452.005 56.304ZM488.48 69.104H493.408V43.44H488.48V42.544H493.408V39.152C493.408 37.6587 493.472 36.3787 493.6 35.312C493.77 34.2027 493.984 33.2427 494.24 32.432C494.496 31.5787 494.794 30.8533 495.135 30.256C495.477 29.616 495.861 29.04 496.288 28.528C497.397 27.12 498.784 25.904 500.448 24.88C502.112 23.8133 503.882 23.28 505.76 23.28C507.168 23.28 508.362 23.4933 509.344 23.92C510.368 24.304 511.2 24.7947 511.84 25.392C512.48 25.9893 512.949 26.6507 513.248 27.376C513.546 28.0587 513.696 28.6773 513.696 29.232C513.696 30.0427 513.461 30.7893 512.992 31.472C512.522 32.1547 511.733 32.496 510.624 32.496C510.069 32.496 509.429 32.368 508.704 32.112C508.021 31.856 507.68 31.3013 507.68 30.448C507.68 29.7227 507.872 29.0827 508.256 28.528C508.682 27.9307 508.896 27.2693 508.896 26.544C508.896 25.6053 508.512 24.9867 507.744 24.688C506.976 24.3467 506.186 24.176 505.376 24.176C503.626 24.176 502.112 24.944 500.832 26.48C499.552 28.016 498.912 30.4053 498.912 33.648V42.544H506.848V43.44H498.912V69.104H504.736V70H488.48V69.104ZM212.858 168.104H219.962V124.328H212.858V123.432H249.466V134.504H248.762C248.207 132.84 247.61 131.389 246.97 130.152C246.33 128.872 245.562 127.805 244.666 126.952C243.77 126.056 242.703 125.395 241.466 124.968C240.228 124.541 238.735 124.328 236.986 124.328H226.362V145.064H230.522C231.93 145.064 233.124 144.936 234.106 144.68C235.087 144.424 235.919 143.955 236.602 143.272C237.327 142.547 237.924 141.587 238.394 140.392C238.906 139.155 239.396 137.576 239.866 135.656H240.57V155.56H239.866C239.567 154.323 239.247 153.128 238.906 151.976C238.607 150.824 238.159 149.8 237.562 148.904C237.007 148.008 236.239 147.304 235.258 146.792C234.319 146.237 233.082 145.96 231.546 145.96H226.362V168.104H233.466V169H212.858V168.104ZM257.417 168.104H262.345V123.752H257.417V122.856H267.849V168.104H272.777V169H257.417V168.104ZM285.843 155.304C285.843 158.333 286.077 160.744 286.547 162.536C287.016 164.328 287.635 165.715 288.403 166.696C289.171 167.635 290.067 168.253 291.091 168.552C292.115 168.851 293.203 169 294.355 169C295.507 169 296.595 168.851 297.619 168.552C298.643 168.253 299.539 167.635 300.307 166.696C301.075 165.715 301.693 164.328 302.163 162.536C302.632 160.744 302.867 158.333 302.867 155.304C302.867 152.744 302.696 150.611 302.355 148.904C302.013 147.155 301.48 145.747 300.755 144.68C300.072 143.571 299.197 142.781 298.131 142.312C297.064 141.843 295.805 141.608 294.355 141.608C292.904 141.608 291.645 141.843 290.579 142.312C289.512 142.781 288.616 143.571 287.891 144.68C287.208 145.747 286.696 147.155 286.355 148.904C286.013 150.611 285.843 152.744 285.843 155.304ZM279.443 155.304C279.443 153.213 279.891 151.272 280.786 149.48C281.725 147.688 282.899 146.152 284.307 144.872C285.757 143.549 287.357 142.525 289.107 141.8C290.899 141.075 292.648 140.712 294.355 140.712C296.061 140.712 297.789 141.075 299.539 141.8C301.331 142.525 302.931 143.549 304.339 144.872C305.789 146.152 306.963 147.688 307.859 149.48C308.797 151.272 309.267 153.213 309.267 155.304C309.267 157.309 308.84 159.208 307.987 161C307.133 162.749 306.003 164.285 304.595 165.608C303.229 166.931 301.651 167.976 299.859 168.744C298.067 169.512 296.232 169.896 294.355 169.896C292.477 169.896 290.643 169.512 288.851 168.744C287.059 167.976 285.459 166.931 284.051 165.608C282.685 164.285 281.576 162.749 280.723 161C279.869 159.208 279.443 157.309 279.443 155.304ZM315.405 168.104H320.333V142.44H315.405V141.544H325.709V148.264H325.837C326.733 145.704 328.013 143.827 329.677 142.632C331.384 141.437 333.432 140.84 335.821 140.84C337.954 140.84 339.832 141.309 341.453 142.248C343.117 143.187 344.205 144.744 344.717 146.92H344.845C345.144 146.152 345.549 145.405 346.061 144.68C346.573 143.955 347.213 143.315 347.981 142.76C348.749 142.163 349.645 141.693 350.669 141.352C351.736 141.011 352.93 140.84 354.253 140.84C360.482 140.84 363.597 144.019 363.597 150.376V168.104H368.525V169H353.165V168.104H358.093V146.344C358.093 144.893 357.688 143.763 356.877 142.952C356.109 142.141 355.042 141.736 353.677 141.736C352.61 141.736 351.544 141.949 350.477 142.376C349.41 142.76 348.45 143.357 347.597 144.168C346.744 144.979 346.04 146.024 345.485 147.304C344.973 148.584 344.717 150.077 344.717 151.784V168.104H349.645V169H334.285V168.104H339.213V147.24C339.213 145.363 338.829 143.976 338.061 143.08C337.293 142.184 336.269 141.736 334.989 141.736C334.093 141.736 333.112 141.971 332.045 142.44C330.978 142.867 329.976 143.571 329.037 144.552C328.141 145.491 327.373 146.728 326.733 148.264C326.136 149.8 325.837 151.677 325.837 153.896V168.104H330.765V169H315.405V168.104ZM377.765 126.632C377.765 125.693 378.085 124.904 378.725 124.264C379.407 123.581 380.218 123.24 381.157 123.24C382.095 123.24 382.885 123.581 383.525 124.264C384.207 124.904 384.549 125.693 384.549 126.632C384.549 127.571 384.207 128.381 383.525 129.064C382.885 129.704 382.095 130.024 381.157 130.024C380.218 130.024 379.407 129.704 378.725 129.064C378.085 128.381 377.765 127.571 377.765 126.632ZM373.605 168.104H378.533V142.44H373.605V141.544H384.037V168.104H388.965V169H373.605V168.104ZM394.478 168.104H399.406V142.44H394.478V141.544H404.782V148.008H404.91C405.081 147.368 405.358 146.643 405.742 145.832C406.126 145.021 406.659 144.253 407.342 143.528C408.025 142.76 408.835 142.12 409.774 141.608C410.755 141.096 411.929 140.84 413.294 140.84C414.275 140.84 415.129 141.011 415.854 141.352C416.579 141.651 417.177 142.056 417.646 142.568C418.115 143.037 418.457 143.592 418.67 144.232C418.883 144.872 418.99 145.512 418.99 146.152C418.99 147.56 418.67 148.499 418.03 148.968C417.39 149.437 416.643 149.672 415.79 149.672C413.913 149.672 412.974 149.075 412.974 147.88C412.974 147.496 413.017 147.197 413.102 146.984C413.187 146.728 413.273 146.493 413.358 146.28C413.486 146.024 413.593 145.747 413.678 145.448C413.763 145.149 413.806 144.723 413.806 144.168C413.806 142.803 413.059 142.12 411.566 142.12C410.883 142.12 410.158 142.376 409.39 142.888C408.622 143.4 407.897 144.147 407.214 145.128C406.574 146.109 406.019 147.304 405.55 148.712C405.123 150.077 404.91 151.656 404.91 153.448V168.104H410.478V169H394.478V168.104ZM457.229 169H446.925V162.536H446.797C446.413 163.389 445.943 164.264 445.389 165.16C444.877 166.013 444.215 166.803 443.405 167.528C442.637 168.211 441.719 168.765 440.653 169.192C439.629 169.661 438.413 169.896 437.005 169.896C435.298 169.896 433.911 169.704 432.845 169.32C431.778 168.936 430.946 168.531 430.349 168.104C430.05 167.891 429.709 167.635 429.325 167.336C428.983 166.995 428.663 166.547 428.365 165.992C428.066 165.437 427.81 164.733 427.597 163.88C427.383 162.984 427.277 161.896 427.277 160.616V142.44H422.349V141.544H432.781V161.192C432.781 162.301 432.845 163.325 432.973 164.264C433.143 165.203 433.442 166.035 433.869 166.76C434.295 167.443 434.85 167.997 435.533 168.424C436.215 168.808 437.111 169 438.221 169C439.159 169 440.119 168.723 441.101 168.168C442.125 167.613 443.042 166.824 443.853 165.8C444.706 164.776 445.41 163.56 445.965 162.152C446.519 160.701 446.797 159.08 446.797 157.288V142.44H441.933V141.544H452.301V168.104H457.229V169ZM483.278 152.232C483.363 151.635 483.406 151.08 483.406 150.568C483.406 150.056 483.406 149.523 483.406 148.968C483.406 147.517 483.257 146.323 482.958 145.384C482.702 144.445 482.318 143.699 481.806 143.144C481.337 142.589 480.739 142.205 480.014 141.992C479.331 141.736 478.585 141.608 477.774 141.608C476.323 141.608 475.129 141.907 474.19 142.504C473.251 143.059 472.505 143.827 471.95 144.808C471.395 145.789 470.969 146.92 470.67 148.2C470.414 149.48 470.243 150.824 470.158 152.232H483.278ZM470.094 153.128C470.094 153.555 470.073 154.003 470.03 154.472C470.03 154.899 470.03 155.453 470.03 156.136C470.03 157.544 470.115 159.016 470.286 160.552C470.457 162.088 470.819 163.475 471.374 164.712C471.971 165.949 472.825 166.973 473.934 167.784C475.086 168.595 476.601 169 478.478 169C480.355 169 481.891 168.723 483.086 168.168C484.323 167.613 485.283 166.952 485.966 166.184C486.691 165.373 487.225 164.563 487.566 163.752C487.907 162.941 488.163 162.28 488.334 161.768L489.294 161.96C489.166 162.429 488.91 163.112 488.526 164.008C488.185 164.861 487.609 165.736 486.798 166.632C486.03 167.485 484.963 168.253 483.598 168.936C482.275 169.576 480.547 169.896 478.414 169.896C476.281 169.896 474.297 169.555 472.462 168.872C470.67 168.189 469.113 167.208 467.79 165.928C466.467 164.648 465.443 163.133 464.718 161.384C463.993 159.592 463.63 157.608 463.63 155.432C463.63 153.555 463.993 151.741 464.718 149.992C465.486 148.2 466.51 146.621 467.79 145.256C469.113 143.891 470.649 142.803 472.398 141.992C474.147 141.139 476.025 140.712 478.03 140.712C479.225 140.712 480.505 140.925 481.87 141.352C483.235 141.779 484.494 142.483 485.646 143.464C486.841 144.403 487.822 145.661 488.59 147.24C489.401 148.819 489.806 150.781 489.806 153.128H470.094ZM497.884 179.944C499.121 179.048 500.124 178.173 500.892 177.32C501.702 176.509 502.321 175.72 502.748 174.952C503.217 174.227 503.516 173.565 503.644 172.968C503.814 172.371 503.9 171.859 503.9 171.432C503.9 170.067 503.516 168.957 502.748 168.104C502.022 169.171 501.105 169.704 499.996 169.704C499.185 169.704 498.396 169.405 497.628 168.808C496.86 168.211 496.476 167.357 496.476 166.248C496.476 165.267 496.838 164.413 497.564 163.688C498.332 162.963 499.27 162.6 500.38 162.6C501.19 162.6 501.916 162.792 502.556 163.176C503.238 163.56 503.814 164.051 504.284 164.648C504.753 165.245 505.094 165.949 505.308 166.76C505.564 167.571 505.692 168.381 505.692 169.192C505.692 170.429 505.436 171.645 504.924 172.84C504.412 174.077 503.793 175.208 503.068 176.232C502.342 177.256 501.553 178.152 500.7 178.92C499.846 179.688 499.1 180.285 498.46 180.712L497.884 179.944Z"/></clipPath><linearGradient id="paint0_diamond_1796_1200" x1="0" y1="0" x2="500" y2="500" gradientUnits="userSpaceOnUse">
<stop offset="0.403846" stop-color="#A720EA" stop-opacity="0.73"/>
<stop offset="0.740385" stop-color="#3B05C2" stop-opacity="0.65"/>
<stop offset="1" stop-color="#130100"/>
</linearGradient>
</defs>
</svg>
