<svg width="145" height="53" viewBox="0 0 145 53" fill="none" xmlns="http://www.w3.org/2000/svg">
<rect x="0.25" y="0.25" width="144.5" height="52.5" rx="4.75" stroke="url(#paint0_linear_1480_1030)" stroke-width="0.5"/>
<path d="M20.8143 35V34.76L21.7983 34.52C22.4543 34.376 22.7823 33.976 22.7823 33.32V19.64H20.7423C20.1503 19.64 19.7263 19.8 19.4703 20.12C19.2143 20.424 18.9423 20.848 18.6543 21.392L17.7903 23.072H17.5503L17.6703 19.16H31.5183L31.6143 23.072H31.3743L30.5103 21.392C30.2383 20.848 29.9743 20.424 29.7183 20.12C29.4623 19.8 29.0383 19.64 28.4463 19.64H26.4063V33.32C26.4063 33.976 26.7343 34.376 27.3903 34.52L28.3743 34.76V35H20.8143ZM32.6692 35V34.76L32.9572 34.664C33.5332 34.472 33.8212 34.072 33.8212 33.464V20.648C33.8212 20.312 33.7652 20.064 33.6532 19.904C33.5412 19.744 33.3252 19.624 33.0052 19.544L32.6452 19.448V19.208L36.8692 18.176L37.2532 18.392L37.1572 21.776V24.776C37.7172 24.312 38.3172 23.92 38.9572 23.6C39.6132 23.264 40.3332 23.096 41.1172 23.096C42.1572 23.096 42.9812 23.392 43.5892 23.984C44.2132 24.576 44.5252 25.488 44.5252 26.72V33.488C44.5252 33.808 44.5892 34.064 44.7172 34.256C44.8452 34.448 45.0692 34.592 45.3892 34.688L45.5812 34.76V35H39.9652V34.76L40.2532 34.688C40.8292 34.496 41.1172 34.088 41.1172 33.464V25.928C41.1172 25.288 41.0052 24.848 40.7812 24.608C40.5732 24.368 40.1972 24.248 39.6532 24.248C39.3012 24.248 38.9172 24.32 38.5012 24.464C38.0852 24.592 37.6612 24.824 37.2292 25.16V33.512C37.2292 34.136 37.5172 34.536 38.0932 34.712L38.2852 34.76V35H32.6692ZM52.5431 23.096C53.5831 23.096 54.4711 23.312 55.2071 23.744C55.9431 24.16 56.5031 24.736 56.8871 25.472C57.2871 26.192 57.4871 27.016 57.4871 27.944C57.4871 28.12 57.4791 28.304 57.4631 28.496C57.4471 28.672 57.4151 28.832 57.3671 28.976H50.2151C50.2311 30.704 50.5351 31.952 51.1271 32.72C51.7351 33.472 52.6311 33.848 53.8151 33.848C54.6151 33.848 55.2631 33.72 55.7591 33.464C56.2551 33.208 56.7191 32.832 57.1511 32.336L57.3911 32.552C56.8951 33.432 56.2311 34.12 55.3991 34.616C54.5831 35.112 53.5991 35.36 52.4471 35.36C51.3111 35.36 50.3031 35.12 49.4231 34.64C48.5431 34.144 47.8551 33.44 47.3591 32.528C46.8631 31.616 46.6151 30.528 46.6151 29.264C46.6151 27.952 46.9031 26.84 47.4791 25.928C48.0551 25 48.7911 24.296 49.6871 23.816C50.5991 23.336 51.5511 23.096 52.5431 23.096ZM52.4711 23.576C52.0071 23.576 51.6071 23.72 51.2711 24.008C50.9511 24.28 50.6951 24.776 50.5031 25.496C50.3271 26.2 50.2311 27.2 50.2151 28.496H54.3191C54.4791 26.752 54.4151 25.496 54.1271 24.728C53.8391 23.96 53.2871 23.576 52.4711 23.576ZM69.6598 35.072L64.5238 20.768C64.4118 20.448 64.2598 20.2 64.0678 20.024C63.8918 19.832 63.6438 19.688 63.3238 19.592L62.7477 19.4V19.16H69.6598V19.4L68.9158 19.616C68.5478 19.712 68.3398 19.88 68.2918 20.12C68.2598 20.36 68.2998 20.656 68.4118 21.008L71.9638 31.544L75.5398 20.984C75.6678 20.616 75.7238 20.312 75.7078 20.072C75.7078 19.832 75.5238 19.664 75.1558 19.568L74.5318 19.4V19.16H77.8918V19.4L77.2438 19.592C76.9398 19.672 76.7238 19.816 76.5958 20.024C76.4678 20.216 76.3478 20.472 76.2358 20.792L71.4358 35.072H69.6598ZM80.5006 21.848C79.9566 21.848 79.4926 21.68 79.1086 21.344C78.7406 20.992 78.5566 20.552 78.5566 20.024C78.5566 19.48 78.7406 19.04 79.1086 18.704C79.4926 18.368 79.9566 18.2 80.5006 18.2C81.0446 18.2 81.5006 18.368 81.8686 18.704C82.2366 19.04 82.4206 19.48 82.4206 20.024C82.4206 20.552 82.2366 20.992 81.8686 21.344C81.5006 21.68 81.0446 21.848 80.5006 21.848ZM77.6686 35V34.76L78.0046 34.664C78.3246 34.568 78.5406 34.424 78.6526 34.232C78.7806 34.04 78.8446 33.784 78.8446 33.464V25.952C78.8446 25.616 78.7806 25.368 78.6526 25.208C78.5406 25.032 78.3246 24.912 78.0046 24.848L77.6686 24.776V24.536L82.0606 23.12L82.3006 23.36L82.2286 26.768V33.488C82.2286 33.808 82.2846 34.064 82.3966 34.256C82.5246 34.448 82.7406 34.592 83.0446 34.688L83.2846 34.76V35H77.6686ZM88.4992 35.36C87.7152 35.36 87.0112 35.264 86.3872 35.072C85.7632 34.896 85.1872 34.672 84.6592 34.4L84.6832 31.544H84.9232L85.7392 32.984C86.0912 33.624 86.4752 34.104 86.8912 34.424C87.3232 34.728 87.8672 34.88 88.5232 34.88C89.2912 34.88 89.9072 34.712 90.3712 34.376C90.8512 34.024 91.0912 33.56 91.0912 32.984C91.0912 32.456 90.9232 32.024 90.5872 31.688C90.2512 31.352 89.6272 31.048 88.7152 30.776L87.7072 30.464C86.7312 30.176 85.9632 29.728 85.4032 29.12C84.8432 28.512 84.5632 27.768 84.5632 26.888C84.5632 25.832 84.9792 24.936 85.8112 24.2C86.6432 23.464 87.8352 23.096 89.3872 23.096C90.0112 23.096 90.5952 23.168 91.1392 23.312C91.6992 23.44 92.2352 23.64 92.7472 23.912L92.6032 26.504H92.3632L91.5232 25.016C91.2192 24.488 90.9152 24.12 90.6112 23.912C90.3232 23.688 89.8832 23.576 89.2912 23.576C88.7472 23.576 88.2352 23.728 87.7552 24.032C87.2752 24.336 87.0352 24.768 87.0352 25.328C87.0352 25.872 87.2352 26.304 87.6352 26.624C88.0512 26.944 88.6592 27.24 89.4592 27.512L90.5392 27.824C91.6912 28.176 92.5152 28.664 93.0112 29.288C93.5072 29.896 93.7552 30.632 93.7552 31.496C93.7552 32.664 93.2912 33.6 92.3632 34.304C91.4512 35.008 90.1632 35.36 88.4992 35.36ZM97.61 21.848C97.066 21.848 96.602 21.68 96.218 21.344C95.85 20.992 95.666 20.552 95.666 20.024C95.666 19.48 95.85 19.04 96.218 18.704C96.602 18.368 97.066 18.2 97.61 18.2C98.154 18.2 98.61 18.368 98.978 18.704C99.346 19.04 99.53 19.48 99.53 20.024C99.53 20.552 99.346 20.992 98.978 21.344C98.61 21.68 98.154 21.848 97.61 21.848ZM94.778 35V34.76L95.114 34.664C95.434 34.568 95.65 34.424 95.762 34.232C95.89 34.04 95.954 33.784 95.954 33.464V25.952C95.954 25.616 95.89 25.368 95.762 25.208C95.65 25.032 95.434 24.912 95.114 24.848L94.778 24.776V24.536L99.17 23.12L99.41 23.36L99.338 26.768V33.488C99.338 33.808 99.394 34.064 99.506 34.256C99.634 34.448 99.85 34.592 100.154 34.688L100.394 34.76V35H94.778ZM107.529 35.36C106.313 35.36 105.257 35.112 104.361 34.616C103.465 34.104 102.769 33.384 102.273 32.456C101.793 31.528 101.553 30.44 101.553 29.192C101.553 27.944 101.809 26.864 102.321 25.952C102.849 25.04 103.561 24.336 104.457 23.84C105.369 23.344 106.393 23.096 107.529 23.096C108.665 23.096 109.681 23.344 110.577 23.84C111.473 24.32 112.177 25.016 112.689 25.928C113.217 26.84 113.481 27.928 113.481 29.192C113.481 30.456 113.233 31.552 112.737 32.48C112.257 33.392 111.569 34.104 110.673 34.616C109.793 35.112 108.745 35.36 107.529 35.36ZM107.529 34.88C108.089 34.88 108.537 34.72 108.873 34.4C109.209 34.08 109.449 33.512 109.593 32.696C109.753 31.88 109.833 30.728 109.833 29.24C109.833 27.736 109.753 26.576 109.593 25.76C109.449 24.944 109.209 24.376 108.873 24.056C108.537 23.736 108.089 23.576 107.529 23.576C106.969 23.576 106.513 23.736 106.161 24.056C105.825 24.376 105.577 24.944 105.417 25.76C105.273 26.576 105.201 27.736 105.201 29.24C105.201 30.728 105.273 31.88 105.417 32.696C105.577 33.512 105.825 34.08 106.161 34.4C106.513 34.72 106.969 34.88 107.529 34.88ZM114.535 35V34.76L114.871 34.664C115.431 34.504 115.711 34.112 115.711 33.488V25.976C115.711 25.624 115.655 25.368 115.543 25.208C115.431 25.032 115.215 24.912 114.895 24.848L114.535 24.752V24.512L118.639 23.12L118.879 23.36L119.071 24.8C119.631 24.304 120.263 23.896 120.967 23.576C121.671 23.256 122.367 23.096 123.055 23.096C124.111 23.096 124.919 23.384 125.479 23.96C126.055 24.536 126.343 25.416 126.343 26.6V33.512C126.343 34.136 126.647 34.528 127.255 34.688L127.471 34.76V35H121.807V34.76L122.119 34.664C122.679 34.488 122.959 34.096 122.959 33.488V25.832C122.959 24.808 122.447 24.296 121.423 24.296C120.719 24.296 119.951 24.648 119.119 25.352V33.512C119.119 34.136 119.399 34.528 119.959 34.688L120.175 34.76V35H114.535Z" fill="black"/>
<defs>
<linearGradient id="paint0_linear_1480_1030" x1="72.5" y1="0" x2="72.5" y2="53" gradientUnits="userSpaceOnUse">
<stop stop-color="white"/>
<stop offset="1" stop-color="#D4AF37"/>
</linearGradient>
</defs>
</svg>
